<?xml version="1.0" encoding="utf-8"?>
<!-- Generator: Adobe Illustrator 17.0.0, SVG Export Plug-In . SVG Version: 6.00 Build 0)  -->
<!DOCTYPE svg PUBLIC "-//W3C//DTD SVG 1.1//EN" "http://www.w3.org/Graphics/SVG/1.1/DTD/svg11.dtd">
<svg version="1.1" id="Camada_1" xmlns="http://www.w3.org/2000/svg" xmlns:xlink="http://www.w3.org/1999/xlink" x="0px" y="0px"
	 width="100px" height="53px" viewBox="0 0 100 53" enable-background="new 0 0 100 53" xml:space="preserve">
<g>
	<g>
		<path fill="#65C298" d="M96.284,52.984H3.716C1.672,52.984,0,51.312,0,49.268V3.732c0-2.044,1.672-3.716,3.716-3.716h92.568
			c2.044,0,3.716,1.672,3.716,3.716v45.536C100,51.312,98.328,52.984,96.284,52.984z"/>
		<g>
			<path fill="#939393" d="M48.659,13.901c-4.255-6.06-11.37-10.034-19.433-10.034c-5.889,0-23.592,0-23.592,0s0,16.153,0,23.163
				c0,12.793,10.562,23.164,23.592,23.164c6.514,0,23.592,0,23.592,0s0-16.767,0-23.164c0-4.552-1.343-8.793-3.653-12.374"/>
			<path fill="#FFFFFF" d="M51.381,26.269c0-12.843-10.413-23.255-23.255-23.255c-5.806,0-23.256,0-23.256,0s0,16.217,0,23.255
				c0,12.843,10.412,23.256,23.256,23.256c6.421,0,23.255,0,23.255,0S51.381,32.691,51.381,26.269z"/>
		</g>
		<g>
			<path fill="#65C298" d="M48.656,26.028c0-11.381-9.227-20.608-20.608-20.608c-5.145,0-20.608,0-20.608,0s0,14.37,0,20.608
				c0,11.381,9.226,20.608,20.608,20.608c5.69,0,20.608,0,20.608,0S48.656,31.719,48.656,26.028z"/>
		</g>
		<g>
			<text transform="matrix(1 0 0 1 54.2412 26.9819)"><tspan x="0" y="0" fill="#FFFFFF" font-family="'Gotham-Bold'" font-size="9.3206">Mercado </tspan><tspan x="0" y="11.185" fill="#FFFFFF" font-family="'Gotham-Bold'" font-size="9.3206">Municipal</tspan></text>
		</g>
	</g>
	<g>
		<path fill="#FFFFFF" d="M47.174,23.479c-0.262-0.262-0.568-0.393-0.917-0.393h-3.837l-4.111-8.822
			c-0.204-0.437-0.539-0.655-1.005-0.655h-3.057V13.26c0-0.175-0.058-0.32-0.175-0.437c-0.117-0.117-0.262-0.175-0.437-0.175h-8.953
			c-0.175,0-0.32,0.058-0.437,0.175c-0.117,0.116-0.175,0.262-0.175,0.437v0.349h-3.188c-0.466,0-0.801,0.218-1.004,0.655
			l-4.112,8.822h-3.837c-0.349,0-0.655,0.131-0.917,0.393c-0.262,0.262-0.393,0.568-0.393,0.917c0,0.175,0.029,0.335,0.087,0.48
			l5.983,14.848c0.087,0.233,0.247,0.43,0.48,0.589c0.233,0.16,0.48,0.24,0.742,0.24h22.359c0.262,0,0.51-0.08,0.742-0.24
			c0.233-0.16,0.393-0.356,0.481-0.589l5.983-14.848c0.059-0.146,0.087-0.306,0.087-0.48C47.567,24.047,47.436,23.742,47.174,23.479
			L47.174,23.479z M40.274,33.305H35.82v-2.97h4.454V33.305z M41.759,30.336h0.709l-0.709,1.755V30.336z M17.827,30.336h3.799v2.97
			h-3.799V30.336z M16.342,31.875l-0.621-1.539h0.621V31.875z M21.627,25.707v3.144h-3.799v-3.144H21.627z M34.335,25.707v3.144
			l-4.498,0v-3.144H34.335z M28.352,28.851h-5.241v-3.144h5.241V28.851z M23.111,30.336h5.241v2.97h-5.241V30.336z M28.352,34.79
			v3.145h-5.241V34.79H28.352z M29.837,34.79h4.498v3.145h-4.498V34.79z M29.837,33.305v-2.97h4.498v2.97H29.837z M35.82,28.851
			v-3.144h4.454v3.144H35.82z M21.583,15.837h2.489v0.393c0,0.175,0.058,0.32,0.175,0.437c0.116,0.117,0.262,0.175,0.437,0.175
			h8.953c0.175,0,0.32-0.058,0.437-0.175c0.117-0.116,0.175-0.262,0.175-0.437v-0.393h2.358l3.327,7.249H18.256L21.583,15.837z
			 M16.342,25.707v3.144h-1.22l-1.269-3.144H16.342z M17.519,34.79h4.108v3.145h-2.839L17.519,34.79z M39.401,37.935H35.82V34.79
			h4.454v0.98L39.401,37.935z M43.067,28.851h-1.308v-3.144h2.577L43.067,28.851z M43.067,28.851"/>
	</g>
	<g>
		<path fill="#00BEEC" d="M96.284,53H3.716C1.672,53,0,51.327,0,49.282V3.718C0,1.673,1.672,0,3.716,0h92.568
			C98.328,0,100,1.673,100,3.718v45.563C100,51.327,98.328,53,96.284,53z"/>
		<g>
			<path fill="#939393" d="M48.659,13.901c-4.255-6.06-11.37-10.034-19.433-10.034c-5.889,0-23.592,0-23.592,0s0,16.153,0,23.163
				c0,12.793,10.562,23.164,23.592,23.164c6.514,0,23.592,0,23.592,0s0-16.767,0-23.164c0-4.552-1.343-8.793-3.653-12.374"/>
			<path fill="#FFFFFF" d="M51.381,26.269c0-12.843-10.413-23.255-23.255-23.255c-5.806,0-23.256,0-23.256,0s0,16.217,0,23.255
				c0,12.843,10.412,23.256,23.256,23.256c6.421,0,23.255,0,23.255,0S51.381,32.691,51.381,26.269z"/>
		</g>
		<g>
			<path fill="#00BEEC" d="M48.656,26.028c0-11.381-9.227-20.608-20.608-20.608c-5.145,0-20.608,0-20.608,0s0,14.37,0,20.608
				c0,11.381,9.226,20.608,20.608,20.608c5.69,0,20.608,0,20.608,0S48.656,31.719,48.656,26.028z"/>
		</g>
		<g>
			<g>
				<path fill="#FFFFFF" d="M55.024,20.455h1.548l1.715,2.76l1.716-2.76h1.548v6.526h-1.427v-4.261l-1.837,2.788H58.25l-1.817-2.76
					v4.232h-1.408V20.455z"/>
				<path fill="#FFFFFF" d="M62.49,24.511v-0.019c0-1.426,1.017-2.601,2.471-2.601c1.669,0,2.434,1.296,2.434,2.713
					c0,0.111-0.01,0.242-0.019,0.373h-3.478c0.14,0.643,0.587,0.979,1.221,0.979c0.476,0,0.82-0.149,1.212-0.513l0.812,0.718
					c-0.466,0.578-1.138,0.933-2.042,0.933C63.599,27.094,62.49,26.04,62.49,24.511z M66.014,24.092
					c-0.084-0.634-0.457-1.063-1.054-1.063c-0.588,0-0.97,0.42-1.082,1.063H66.014z"/>
				<path fill="#FFFFFF" d="M68.213,21.984h1.417v1.007c0.289-0.689,0.756-1.138,1.595-1.1v1.482h-0.075
					c-0.941,0-1.52,0.568-1.52,1.762v1.846h-1.417V21.984z"/>
				<path fill="#FFFFFF" d="M71.633,24.511v-0.019c0-1.426,1.091-2.601,2.62-2.601c0.941,0,1.528,0.316,1.995,0.839l-0.867,0.933
					c-0.317-0.336-0.634-0.551-1.138-0.551c-0.708,0-1.212,0.625-1.212,1.361v0.019c0,0.765,0.494,1.38,1.268,1.38
					c0.476,0,0.802-0.205,1.147-0.531l0.829,0.839c-0.484,0.531-1.044,0.914-2.041,0.914C72.733,27.094,71.633,25.937,71.633,24.511
					z"/>
				<path fill="#FFFFFF" d="M76.667,25.546v-0.019c0-1.091,0.829-1.595,2.014-1.595c0.503,0,0.867,0.084,1.221,0.205v-0.083
					c0-0.588-0.363-0.914-1.071-0.914c-0.541,0-0.924,0.103-1.38,0.271l-0.354-1.082c0.55-0.242,1.091-0.4,1.939-0.4
					c0.773,0,1.333,0.205,1.688,0.56c0.372,0.373,0.54,0.923,0.54,1.594v2.899h-1.37v-0.54c-0.345,0.382-0.82,0.634-1.511,0.634
					C77.44,27.075,76.667,26.534,76.667,25.546z M79.921,25.22v-0.252c-0.243-0.111-0.56-0.187-0.904-0.187
					c-0.606,0-0.979,0.242-0.979,0.69v0.019c0,0.382,0.317,0.605,0.773,0.605C79.472,26.096,79.921,25.732,79.921,25.22z"/>
				<path fill="#FFFFFF" d="M82.025,24.492v-0.019c0-1.669,1.091-2.582,2.274-2.582c0.756,0,1.222,0.345,1.558,0.745v-2.461h1.417
					v6.806h-1.417v-0.718c-0.345,0.466-0.82,0.812-1.558,0.812C83.134,27.075,82.025,26.161,82.025,24.492z M85.876,24.492v-0.019
					c0-0.83-0.55-1.38-1.212-1.38s-1.222,0.541-1.222,1.38v0.019c0,0.83,0.56,1.38,1.222,1.38S85.876,25.322,85.876,24.492z"/>
				<path fill="#FFFFFF" d="M88.065,24.511v-0.019c0-1.436,1.156-2.601,2.713-2.601c1.548,0,2.694,1.146,2.694,2.582v0.019
					c0,1.436-1.156,2.602-2.713,2.602C89.212,27.094,88.065,25.947,88.065,24.511z M92.074,24.511v-0.019
					c0-0.736-0.531-1.38-1.314-1.38c-0.812,0-1.296,0.625-1.296,1.361v0.019c0,0.736,0.531,1.38,1.314,1.38
					C91.589,25.872,92.074,25.248,92.074,24.511z"/>
				<path fill="#FFFFFF" d="M55.024,31.64h1.548l1.715,2.76l1.716-2.76h1.548v6.526h-1.427v-4.261l-1.837,2.788H58.25l-1.817-2.76
					v4.232h-1.408V31.64z"/>
				<path fill="#FFFFFF" d="M62.695,36.404v-3.235h1.417v2.788c0,0.671,0.317,1.016,0.857,1.016c0.541,0,0.886-0.345,0.886-1.016
					v-2.788h1.418v4.997h-1.418v-0.708c-0.326,0.419-0.745,0.802-1.463,0.802C63.32,38.26,62.695,37.551,62.695,36.404z"/>
				<path fill="#FFFFFF" d="M68.305,33.169h1.417v0.709c0.326-0.42,0.746-0.802,1.464-0.802c1.072,0,1.697,0.708,1.697,1.854v3.235
					h-1.417v-2.787c0-0.672-0.317-1.017-0.858-1.017c-0.54,0-0.886,0.345-0.886,1.017v2.787h-1.417V33.169z"/>
				<path fill="#FFFFFF" d="M73.908,31.36h1.491v1.259h-1.491V31.36z M73.945,33.169h1.417v4.997h-1.417V33.169z"/>
				<path fill="#FFFFFF" d="M76.218,35.695v-0.019c0-1.426,1.091-2.601,2.62-2.601c0.941,0,1.528,0.316,1.995,0.839l-0.867,0.933
					c-0.317-0.336-0.634-0.551-1.138-0.551c-0.708,0-1.212,0.625-1.212,1.361v0.019c0,0.765,0.494,1.38,1.268,1.38
					c0.476,0,0.802-0.205,1.147-0.531l0.829,0.839c-0.484,0.531-1.044,0.914-2.041,0.914C77.319,38.278,76.218,37.122,76.218,35.695
					z"/>
				<path fill="#FFFFFF" d="M81.578,31.36h1.491v1.259h-1.491V31.36z M81.615,33.169h1.417v4.997h-1.417V33.169z"/>
				<path fill="#FFFFFF" d="M84.131,33.169h1.417v0.718c0.346-0.466,0.82-0.811,1.558-0.811c1.165,0,2.274,0.913,2.274,2.582v0.019
					c0,1.669-1.091,2.583-2.274,2.583c-0.756,0-1.222-0.346-1.558-0.746v2.145h-1.417V33.169z M87.964,35.677v-0.019
					c0-0.83-0.56-1.38-1.222-1.38s-1.212,0.55-1.212,1.38v0.019c0,0.83,0.55,1.38,1.212,1.38S87.964,36.516,87.964,35.677z"/>
				<path fill="#FFFFFF" d="M89.892,36.73v-0.019c0-1.091,0.829-1.595,2.014-1.595c0.503,0,0.867,0.084,1.221,0.205v-0.083
					c0-0.588-0.363-0.914-1.071-0.914c-0.541,0-0.924,0.103-1.38,0.271l-0.354-1.082c0.55-0.242,1.091-0.4,1.939-0.4
					c0.773,0,1.333,0.205,1.688,0.56c0.372,0.373,0.54,0.923,0.54,1.594v2.899h-1.37v-0.54c-0.345,0.382-0.82,0.634-1.511,0.634
					C90.666,38.26,89.892,37.719,89.892,36.73z M93.146,36.404v-0.252c-0.243-0.111-0.56-0.187-0.905-0.187
					c-0.605,0-0.979,0.242-0.979,0.69v0.019c0,0.382,0.317,0.605,0.773,0.605C92.698,37.28,93.146,36.917,93.146,36.404z"/>
				<path fill="#FFFFFF" d="M95.54,31.36h1.417v6.806H95.54V31.36z"/>
			</g>
		</g>
	</g>
	<g>
		<path fill="#FFFFFF" d="M47.174,23.479c-0.262-0.262-0.568-0.393-0.917-0.393h-3.837l-4.111-8.822
			c-0.204-0.437-0.539-0.655-1.005-0.655h-3.057V13.26c0-0.175-0.058-0.32-0.175-0.437c-0.117-0.117-0.262-0.175-0.437-0.175h-8.953
			c-0.175,0-0.32,0.058-0.437,0.175c-0.117,0.116-0.175,0.262-0.175,0.437v0.349h-3.188c-0.466,0-0.801,0.218-1.004,0.655
			l-4.112,8.822h-3.837c-0.349,0-0.655,0.131-0.917,0.393c-0.262,0.262-0.393,0.568-0.393,0.917c0,0.175,0.029,0.335,0.087,0.48
			l5.983,14.848c0.087,0.233,0.247,0.43,0.48,0.589c0.233,0.16,0.48,0.24,0.742,0.24h22.359c0.262,0,0.51-0.08,0.742-0.24
			c0.233-0.16,0.393-0.356,0.481-0.589l5.983-14.848c0.059-0.146,0.087-0.306,0.087-0.48C47.567,24.047,47.436,23.742,47.174,23.479
			L47.174,23.479z M40.274,33.305H35.82v-2.97h4.454V33.305z M41.759,30.336h0.709l-0.709,1.755V30.336z M17.827,30.336h3.799v2.97
			h-3.799V30.336z M16.342,31.875l-0.621-1.539h0.621V31.875z M21.627,25.707v3.144h-3.799v-3.144H21.627z M34.335,25.707v3.144
			l-4.498,0v-3.144H34.335z M28.352,28.851h-5.241v-3.144h5.241V28.851z M23.111,30.336h5.241v2.97h-5.241V30.336z M28.352,34.79
			v3.145h-5.241V34.79H28.352z M29.837,34.79h4.498v3.145h-4.498V34.79z M29.837,33.305v-2.97h4.498v2.97H29.837z M35.82,28.851
			v-3.144h4.454v3.144H35.82z M21.583,15.837h2.489v0.393c0,0.175,0.058,0.32,0.175,0.437c0.116,0.117,0.262,0.175,0.437,0.175
			h8.953c0.175,0,0.32-0.058,0.437-0.175c0.117-0.116,0.175-0.262,0.175-0.437v-0.393h2.358l3.327,7.249H18.256L21.583,15.837z
			 M16.342,25.707v3.144h-1.22l-1.269-3.144H16.342z M17.519,34.79h4.108v3.145h-2.839L17.519,34.79z M39.401,37.935H35.82V34.79
			h4.454v0.98L39.401,37.935z M43.067,28.851h-1.308v-3.144h2.577L43.067,28.851z M43.067,28.851"/>
	</g>
</g>
</svg>
