<?xml version="1.0" standalone="no"?>
<!DOCTYPE svg PUBLIC "-//W3C//DTD SVG 20010904//EN"
 "http://www.w3.org/TR/2001/REC-SVG-20010904/DTD/svg10.dtd">
<svg version="1.0" xmlns="http://www.w3.org/2000/svg"
 width="260.000000pt" height="260.000000pt" viewBox="0 0 260.000000 260.000000"
 preserveAspectRatio="xMidYMid meet">
<metadata>
Created by potrace 1.11, written by Peter Selinger 2001-2013
</metadata>
<g transform="translate(0.000000,260.000000) scale(0.100000,-0.100000)"
fill="#000000" stroke="none">
<path d="M1205 2586 c-129 -32 -247 -131 -318 -266 -25 -47 -86 -205 -92 -237
-2 -15 -9 -50 -15 -80 -6 -29 -13 -65 -14 -80 l-3 -28 -229 0 -229 -1 0 -47
c-1 -53 -2 -55 -35 -60 l-24 -4 -4 -891 -3 -892 1061 0 1060 0 0 895 0 895
-24 -4 c-28 -5 -34 8 -31 67 1 20 -1 37 -4 38 -3 1 -106 2 -228 3 -122 0 -225
5 -230 9 -4 5 -9 21 -9 35 -1 15 -3 27 -4 27 -1 0 -4 11 -5 25 -15 111 -86
298 -147 389 -64 95 -144 159 -254 200 -45 17 -162 21 -219 7z m205 -68 c82
-27 138 -75 228 -193 15 -20 72 -152 72 -166 0 -8 5 -20 12 -27 7 -7 9 -12 5
-12 -4 0 -3 -9 3 -21 7 -11 13 -33 15 -47 3 -15 7 -38 10 -52 3 -14 8 -43 11
-65 l6 -40 -471 -1 -471 0 5 46 c3 25 7 54 8 65 1 11 5 22 9 25 3 3 8 19 11
35 2 17 6 37 10 45 3 8 15 42 27 74 47 132 129 245 218 300 81 51 200 65 292
34z"/>
</g>
</svg>
