<?xml version="1.0" encoding="utf-8"?>
<!-- Generator: Adobe Illustrator 17.0.0, SVG Export Plug-In . SVG Version: 6.00 Build 0)  -->
<!DOCTYPE svg PUBLIC "-//W3C//DTD SVG 1.1//EN" "http://www.w3.org/Graphics/SVG/1.1/DTD/svg11.dtd">
<svg version="1.1" id="Camada_1" xmlns="http://www.w3.org/2000/svg" xmlns:xlink="http://www.w3.org/1999/xlink" x="0px" y="0px"
	 width="540px" height="180px" viewBox="0 0 540 180" enable-background="new 0 0 540 180" xml:space="preserve">
<g>
	<g>
		<g>
			<g>
				<path fill="#D63F34" d="M185.215,108.214c0-2.641,1.776-6.772,11.002-6.772c7.926,0,11.59,2.87,13.131,2.87
					c2.837,0,6.505-6.889,6.505-9.988c0-3.79-8.754-8.038-21.292-8.038c-13.839,0-28.034,6.66-28.034,23.536
					c0,26.981,34.187,21.7,34.187,35.248c0,6.889-6.033,8.38-11.118,8.38c-9.466,0-15.263-5.281-17.387-5.281
					c-2.488,0-7.341,6.66-7.341,10.221c0,3.903,9.822,10.104,27.802,10.104c12.895,0,26.733-6.431,26.733-25.49
					C219.402,116.02,185.215,121.305,185.215,108.214"/>
				<path fill="#D63F34" d="M378.386,86.975h-6.153c-3.429,0-6.149,0.804-7.449,3.099l-21.056,35.936l-20.82-35.936
					c-1.3-2.295-4.021-3.099-7.449-3.099h-6.273c-4.965,0-7.093,1.262-7.093,3.674v73.483c0,2.412,2.128,3.67,7.093,3.67h3.437
					c4.965,0,7.093-1.258,7.093-3.67v-47.535l0.476-0.116l17.151,29.738c1.064,1.379,2.485,2.182,4.729,2.182h3.433
					c2.248,0,3.665-0.804,4.729-2.182l17.151-29.738l0.476,0.116v47.535c0,2.412,2.124,3.67,7.097,3.67h3.429
					c4.969,0,7.097-1.258,7.097-3.67V90.648C385.484,88.237,383.355,86.975,378.386,86.975"/>
				<path fill="#D63F34" d="M293.573,163.21l-26.025-73.825c-0.708-1.837-3.309-2.412-6.741-2.412h-6.153
					c-3.429,0-6.029,0.575-6.741,2.412L221.89,163.21c-0.24,0.804-0.476,1.495-0.476,2.066c0,1.608,2.244,2.528,7.217,2.528h4.733
					c2.837,0,4.849-0.691,5.441-2.412l4.733-14.007h22.885l-4.657-15.156h-13.143l6.977-20.438c0.712-1.953,1.772-7.347,1.772-7.347
					h0.476c0,0,1.184,5.856,1.772,7.347l16.559,49.601c0.596,1.837,3.197,2.412,6.629,2.412h5.201c4.141,0,5.913-0.92,5.913-2.528
					C293.925,164.705,293.809,164.014,293.573,163.21"/>
				<path fill="#D63F34" d="M533.232,163.21L507.21,89.386c-0.712-1.837-3.317-2.412-6.745-2.412h-6.149
					c-3.429,0-6.033,0.575-6.745,2.412l-26.021,73.825c-0.236,0.804-0.476,1.495-0.476,2.066c0,1.608,2.252,2.528,7.217,2.528h4.733
					c2.841,0,4.849-0.691,5.441-2.412l4.733-14.007h22.773l-4.657-15.156h-13.031l6.977-20.438c0.708-1.953,1.776-7.347,1.776-7.347
					h0.472c0,0,1.184,5.856,1.776,7.347l16.559,49.601c0.592,1.837,3.197,2.412,6.621,2.412h5.209c4.141,0,5.913-0.92,5.913-2.528
					C533.588,164.705,533.468,164.014,533.232,163.21"/>
				<path fill="#D63F34" d="M431.383,87.205h-24.841c-3.317,0-4.733,1.375-4.733,4.59v72.334c0,2.412,2.128,3.674,7.097,3.674h4.025
					c4.965,0,7.097-1.262,7.097-3.674v-61.884h10.526c4.497,0,10.294,1.837,10.294,10.104c0,8.264-5.797,9.988-10.294,9.988h-5.433
					v15.156h7.445c6.385,0,26.969-2.986,26.969-25.144C459.537,90.188,441.909,87.205,431.383,87.205"/>
			</g>
			<g>
				<path fill="#535A5C" d="M171.539,62.549v-0.067c0-6.698,5.374-12.186,12.723-12.186c4.368,0,7.003,1.145,9.534,3.231
					l-3.363,3.938c-1.872-1.515-3.536-2.39-6.344-2.39c-3.883,0-6.968,3.332-6.968,7.338v0.067c0,4.309,3.051,7.473,7.35,7.473
					c1.941,0,3.675-0.472,5.027-1.413v-3.367h-5.374v-4.477h10.539v10.232c-2.496,2.054-5.928,3.736-10.366,3.736
					C176.739,74.666,171.539,69.516,171.539,62.549z"/>
				<path fill="#535A5C" d="M199.417,64.164V50.7h5.339v13.329c0,3.838,1.976,5.824,5.235,5.824s5.235-1.919,5.235-5.655V50.7h5.339
					v13.296c0,7.137-4.125,10.637-10.643,10.637S199.417,71.098,199.417,64.164z"/>
				<path fill="#535A5C" d="M226.254,50.7h5.339v23.563h-5.339V50.7z"/>
				<path fill="#535A5C" d="M245.982,50.531h4.923l10.4,23.731h-5.581l-2.219-5.284h-10.262l-2.219,5.284h-5.443L245.982,50.531z
					 M251.598,64.4l-3.224-7.642L245.15,64.4H251.598z"/>
				<path fill="#535A5C" d="M275.455,50.7h9.464c7.627,0,12.896,5.083,12.896,11.714v0.067c0,6.632-5.27,11.781-12.896,11.781
					h-9.464V50.7z M284.919,69.584c4.369,0,7.315-2.861,7.315-7.035v-0.067c0-4.174-2.946-7.103-7.315-7.103h-4.125v14.205H284.919z
					"/>
				<path fill="#535A5C" d="M302.57,50.7h18.305v4.611h-13v4.78h11.439v4.611h-11.439v4.948h13.174v4.611H302.57V50.7z"/>
				<path fill="#535A5C" d="M335.128,62.549v-0.067c0-6.698,5.199-12.186,12.653-12.186c4.576,0,7.315,1.481,9.568,3.636
					l-3.397,3.804c-1.872-1.649-3.779-2.659-6.205-2.659c-4.092,0-7.038,3.299-7.038,7.338v0.067c0,4.039,2.878,7.405,7.038,7.405
					c2.773,0,4.472-1.077,6.379-2.76l3.396,3.332c-2.496,2.592-5.27,4.207-9.949,4.207
					C340.432,74.666,335.128,69.314,335.128,62.549z"/>
				<path fill="#535A5C" d="M360.023,62.549v-0.067c0-6.698,5.443-12.186,12.932-12.186s12.861,5.419,12.861,12.118v0.067
					c0,6.698-5.442,12.185-12.931,12.185S360.023,69.247,360.023,62.549z M380.235,62.549v-0.067c0-4.04-3.051-7.405-7.35-7.405
					s-7.28,3.299-7.28,7.338v0.067c0,4.039,3.051,7.405,7.35,7.405S380.235,66.588,380.235,62.549z"/>
				<path fill="#535A5C" d="M390.57,50.7h5.755l6.379,9.964l6.379-9.964h5.755v23.563h-5.304V58.88l-6.83,10.064h-0.139l-6.76-9.964
					v15.282h-5.235V50.7z"/>
				<path fill="#535A5C" d="M420.667,50.7h9.915c5.79,0,9.291,3.333,9.291,8.146v0.067c0,5.453-4.368,8.28-9.812,8.28h-4.056v7.069
					h-5.339V50.7z M430.236,62.582c2.67,0,4.229-1.548,4.229-3.568v-0.066c0-2.322-1.664-3.568-4.333-3.568h-4.126v7.203H430.236z"
					/>
				<path fill="#535A5C" d="M443.828,50.7h11.094c3.085,0,5.478,0.841,7.072,2.39c1.353,1.312,2.08,3.164,2.08,5.386v0.067
					c0,3.804-2.114,6.193-5.2,7.305l5.928,8.415h-6.24l-5.199-7.54h-4.195v7.54h-5.339V50.7z M454.575,62.144
					c2.6,0,4.091-1.346,4.091-3.332v-0.067c0-2.222-1.595-3.366-4.194-3.366h-5.305v6.766H454.575z"/>
				<path fill="#535A5C" d="M477.218,50.531h4.923l10.4,23.731h-5.581l-2.219-5.284H474.48l-2.219,5.284h-5.443L477.218,50.531z
					 M482.834,64.4l-3.224-7.642l-3.225,7.642H482.834z"/>
				<path fill="#535A5C" d="M494.279,70.829l3.154-3.669c2.185,1.75,4.473,2.861,7.246,2.861c2.184,0,3.502-0.842,3.502-2.222
					v-0.067c0-1.312-0.832-1.986-4.889-2.996c-4.889-1.211-8.043-2.524-8.043-7.203v-0.067c0-4.274,3.536-7.103,8.494-7.103
					c3.535,0,6.552,1.077,9.014,2.996l-2.773,3.904c-2.15-1.447-4.265-2.322-6.311-2.322c-2.045,0-3.119,0.908-3.119,2.053v0.068
					c0,1.548,1.039,2.053,5.234,3.096c4.923,1.246,7.696,2.963,7.696,7.069v0.067c0,4.679-3.675,7.305-8.909,7.305
					C500.9,74.599,497.191,73.353,494.279,70.829z"/>
			</g>
		</g>
	</g>
	<g>
		<path fill="#B0B5BC" d="M95.689,18.68c-4.097-4.293-9.529-6.533-16.145-6.678c-6.617,0.145-12.049,2.386-16.146,6.678
			c-9.798,10.267-8.48,25.916-8.418,26.688c0.069,0.875,0.853,1.533,1.756,1.463c0.902-0.066,1.577-0.83,1.509-1.705
			c-0.014-0.176-1.264-15.055,7.563-24.293c3.453-3.615,8.074-5.511,13.736-5.653c5.662,0.142,10.282,2.038,13.736,5.653
			c8.827,9.238,7.577,24.118,7.563,24.293c-0.068,0.875,0.607,1.639,1.509,1.705c0.904,0.07,1.688-0.588,1.757-1.463
			C104.168,44.596,105.487,28.947,95.689,18.68z"/>
		<polygon fill="#AD307D" points="79.543,40.705 9.648,40.705 23.491,54.103 79.543,54.832 135.595,54.103 149.438,40.705 		"/>
		<g>
			<polygon fill="#77265A" points="149.438,49.75 149.438,40.705 133.255,45.247 133.255,54.103 			"/>
		</g>
		<g>
			<polygon fill="#8A3061" points="133.255,45.247 133.255,52.968 152.673,49.108 			"/>
		</g>
		<g>
			<polygon fill="#79265A" points="9.648,49.75 9.648,40.705 25.831,45.247 25.831,54.103 			"/>
		</g>
		<g>
			<polygon fill="#8A3061" points="25.831,45.247 25.831,52.968 6.412,49.108 			"/>
		</g>
		<g>
			<rect x="6.125" y="48.819" fill="#FFFFFF" width="146.837" height="124.016"/>
			<path d="M152.673,49.108v123.439h-73.13H6.412V49.108h73.131H152.673 M153.25,48.532h-0.576h-73.13H6.412H5.836v0.576v123.439
				v0.576h0.576h73.131h73.13h0.576v-0.576V49.108V48.532L153.25,48.532z"/>
		</g>
		<path fill="#ECEDEF" d="M94.601,13.731c-4.153-4.092-9.218-6.2-15.058-6.277c-5.84,0.077-10.905,2.185-15.058,6.277
			C51.371,26.656,51.664,52.361,51.683,53.56c0.014,0.869,0.744,1.565,1.637,1.565c0.008,0,0.017,0,0.025,0
			c0.905-0.013,1.626-0.736,1.613-1.613c-0.004-0.281-0.289-25.581,11.864-37.554c3.513-3.461,7.792-5.248,12.721-5.325
			c4.928,0.077,9.208,1.865,12.721,5.325c12.153,11.972,11.868,37.273,11.864,37.554c-0.013,0.878,0.708,1.6,1.613,1.613
			c0.008,0,0.017,0,0.025,0c0.893,0,1.623-0.696,1.637-1.565C107.422,52.361,107.715,26.656,94.601,13.731z"/>
		<g>
			<ellipse fill="#E1E3E7" cx="105.933" cy="53.817" rx="2.445" ry="2.373"/>
		</g>
		<g>
			<ellipse fill="#E1E3E7" cx="53.393" cy="54.191" rx="2.445" ry="2.373"/>
		</g>
		<path opacity="0.08" fill="#ECEDEF" d="M94.601,13.731c-4.153-4.092-9.218-6.2-15.058-6.277
			c-5.84,0.077-10.905,2.185-15.058,6.277C51.371,26.656,51.664,52.361,51.683,53.56c0.014,0.869,0.744,1.565,1.637,1.565
			c0.008,0,0.017,0,0.025,0c0.905-0.013,1.626-0.736,1.613-1.613c-0.004-0.281-0.289-25.581,11.864-37.554
			c3.513-3.461,7.792-5.248,12.721-5.325c4.928,0.077,9.208,1.865,12.721,5.325c12.153,11.972,11.868,37.273,11.864,37.554
			c-0.013,0.878,0.708,1.6,1.613,1.613c0.008,0,0.017,0,0.025,0c0.893,0,1.623-0.696,1.637-1.565
			C107.422,52.361,107.715,26.656,94.601,13.731z"/>
		<g>
			<defs>
				<polygon id="SVGID_1_" points="152.673,49.219 79.841,49.33 6.412,49.108 6.412,172.547 152.673,172.547 				"/>
			</defs>
			<clipPath id="SVGID_2_">
				<use xlink:href="#SVGID_1_"  overflow="visible"/>
			</clipPath>
			<g clip-path="url(#SVGID_2_)">
				<text transform="matrix(1 0 0 1 10.2266 166.655)" fill="#FFFFFF" font-family="'Gotham-Light'" font-size="2.6013">4</text>
			</g>
			<path clip-path="url(#SVGID_2_)" fill="#61C089" d="M108.606,136.389l30.62,46.061c0.448,0.674,0.265,1.585-0.409,2.033
				l-39.13,26.012c-0.674,0.448-1.584,0.265-2.033-0.409l-30.62-46.06c-0.448-0.675-0.265-1.585,0.409-2.033l39.13-26.012
				C107.247,135.532,108.157,135.715,108.606,136.389"/>
			<path clip-path="url(#SVGID_2_)" fill="none" stroke="#FFFFFF" stroke-width="0.7683" stroke-miterlimit="10" d="
				M108.606,136.389l30.62,46.061c0.448,0.674,0.265,1.585-0.409,2.033l-39.13,26.012c-0.674,0.448-1.584,0.265-2.033-0.409
				l-30.62-46.06c-0.448-0.675-0.265-1.585,0.409-2.033l39.13-26.012C107.247,135.532,108.157,135.715,108.606,136.389z"/>
			<path clip-path="url(#SVGID_2_)" fill="#F5971E" d="M120.238,124.123l54.47,9.599c0.798,0.14,1.33,0.901,1.19,1.699
				l-8.155,46.273c-0.141,0.798-0.901,1.33-1.699,1.19l-54.47-9.599c-0.798-0.14-1.33-0.901-1.19-1.699l8.155-46.274
				C118.68,124.515,119.44,123.982,120.238,124.123"/>
			<path clip-path="url(#SVGID_2_)" fill="none" stroke="#FFFFFF" stroke-width="0.7683" stroke-miterlimit="10" d="
				M120.238,124.123l54.47,9.599c0.798,0.14,1.33,0.901,1.19,1.699l-8.155,46.273c-0.141,0.798-0.901,1.33-1.699,1.19l-54.47-9.599
				c-0.798-0.14-1.33-0.901-1.19-1.699l8.155-46.274C118.68,124.515,119.44,123.982,120.238,124.123z"/>
			<path clip-path="url(#SVGID_2_)" fill="#8A1F61" d="M46.481,159.083l-3.334,42.457c-0.049,0.622-0.592,1.086-1.214,1.037
				l-36.068-2.832c-0.622-0.049-1.086-0.592-1.037-1.214l3.334-42.457c0.049-0.622,0.592-1.086,1.214-1.037l36.068,2.832
				C46.065,157.918,46.53,158.462,46.481,159.083"/>
			<path clip-path="url(#SVGID_2_)" fill="none" stroke="#FFFFFF" stroke-width="0.7683" stroke-miterlimit="10" d="M46.481,159.083
				l-3.334,42.457c-0.049,0.622-0.592,1.086-1.214,1.037l-36.068-2.832c-0.622-0.049-1.086-0.592-1.037-1.214l3.334-42.457
				c0.049-0.622,0.592-1.086,1.214-1.037l36.068,2.832C46.065,157.918,46.53,158.462,46.481,159.083z"/>
			<path clip-path="url(#SVGID_2_)" fill="#61C089" d="M77.322,115.625l-16.318,42.994c-0.239,0.63-0.943,0.946-1.573,0.707
				l-36.524-13.862c-0.63-0.239-0.946-0.943-0.707-1.573l16.318-42.994c0.239-0.63,0.943-0.946,1.573-0.707l36.524,13.862
				C77.245,114.292,77.561,114.996,77.322,115.625"/>
			<path clip-path="url(#SVGID_2_)" fill="none" stroke="#FFFFFF" stroke-width="0.7683" stroke-miterlimit="10" d="M77.322,115.625
				l-16.318,42.994c-0.239,0.63-0.943,0.946-1.573,0.707l-36.524-13.862c-0.63-0.239-0.946-0.943-0.707-1.573l16.318-42.994
				c0.239-0.63,0.943-0.946,1.573-0.707l36.524,13.862C77.245,114.292,77.561,114.996,77.322,115.625z"/>
			<path clip-path="url(#SVGID_2_)" fill="#8A1F61" d="M108.321,98.771l-51.672,21.991c-0.756,0.322-1.631-0.03-1.953-0.787
				L36.013,76.079c-0.322-0.757,0.03-1.631,0.787-1.953l51.672-21.991c0.757-0.322,1.631,0.03,1.953,0.787l18.682,43.897
				C109.429,97.574,109.077,98.449,108.321,98.771"/>
			<path clip-path="url(#SVGID_2_)" fill="none" stroke="#FFFFFF" stroke-width="0.7683" stroke-miterlimit="10" d="M108.321,98.771
				l-51.672,21.991c-0.756,0.322-1.631-0.03-1.953-0.787L36.013,76.079c-0.322-0.757,0.03-1.631,0.787-1.953l51.672-21.991
				c0.757-0.322,1.631,0.03,1.953,0.787l18.682,43.897C109.429,97.574,109.077,98.449,108.321,98.771z"/>
			<path clip-path="url(#SVGID_2_)" fill="#7DC242" d="M43.044,163.786l-38.007,2.252c-0.556,0.033-1.034-0.391-1.067-0.948
				l-1.913-32.288c-0.033-0.557,0.391-1.035,0.948-1.067l38.007-2.252c0.557-0.033,1.035,0.392,1.068,0.948l1.913,32.288
				C44.025,163.275,43.601,163.753,43.044,163.786"/>
			<path clip-path="url(#SVGID_2_)" fill="none" stroke="#FFFFFF" stroke-width="0.7683" stroke-miterlimit="10" d="M43.044,163.786
				l-38.007,2.252c-0.556,0.033-1.034-0.391-1.067-0.948l-1.913-32.288c-0.033-0.557,0.391-1.035,0.948-1.067l38.007-2.252
				c0.557-0.033,1.035,0.392,1.068,0.948l1.913,32.288C44.025,163.275,43.601,163.753,43.044,163.786z"/>
			<path clip-path="url(#SVGID_2_)" fill="#F5971E" d="M29.745,133.747L3.361,120.701c-0.386-0.191-0.545-0.659-0.354-1.045
				l11.084-22.414c0.191-0.386,0.659-0.545,1.045-0.354l26.385,13.047c0.386,0.191,0.545,0.659,0.354,1.045l-11.084,22.414
				C30.6,133.78,30.132,133.939,29.745,133.747"/>
			<path clip-path="url(#SVGID_2_)" fill="none" stroke="#FFFFFF" stroke-width="0.7683" stroke-miterlimit="10" d="M29.745,133.747
				L3.361,120.701c-0.386-0.191-0.545-0.659-0.354-1.045l11.084-22.414c0.191-0.386,0.659-0.545,1.045-0.354l26.385,13.047
				c0.386,0.191,0.545,0.659,0.354,1.045l-11.084,22.414C30.6,133.78,30.132,133.939,29.745,133.747z"/>
			<path clip-path="url(#SVGID_2_)" fill="#7DC242" d="M55.942,112.128l63.072-33.78c0.923-0.495,2.073-0.147,2.568,0.777
				l28.697,53.581c0.495,0.923,0.147,2.073-0.777,2.568l-63.072,33.78c-0.923,0.495-2.073,0.147-2.568-0.777l-28.697-53.581
				C54.671,113.772,55.019,112.623,55.942,112.128"/>
			<path clip-path="url(#SVGID_2_)" fill="none" stroke="#FFFFFF" stroke-width="0.7683" stroke-miterlimit="10" d="M55.942,112.128
				l63.072-33.78c0.923-0.495,2.073-0.147,2.568,0.777l28.697,53.581c0.495,0.923,0.147,2.073-0.777,2.568l-63.072,33.78
				c-0.923,0.495-2.073,0.147-2.568-0.777l-28.697-53.581C54.671,113.772,55.019,112.623,55.942,112.128z"/>
			<path clip-path="url(#SVGID_2_)" fill="#61C089" d="M-17.201,116.903l45.498,8.983c0.666,0.131,1.1,0.778,0.968,1.444
				l-7.631,38.652c-0.132,0.666-0.778,1.1-1.445,0.968l-45.498-8.983c-0.666-0.132-1.1-0.778-0.968-1.445l7.631-38.652
				C-18.514,117.205-17.867,116.771-17.201,116.903"/>
			<path clip-path="url(#SVGID_2_)" fill="none" stroke="#FFFFFF" stroke-width="0.7683" stroke-miterlimit="10" d="
				M-17.201,116.903l45.498,8.983c0.666,0.131,1.1,0.778,0.968,1.444l-7.631,38.652c-0.132,0.666-0.778,1.1-1.445,0.968
				l-45.498-8.983c-0.666-0.132-1.1-0.778-0.968-1.445l7.631-38.652C-18.514,117.205-17.867,116.771-17.201,116.903z"/>
			<path clip-path="url(#SVGID_2_)" fill="#F5971E" d="M55.566,128.807l41.403,23.68c0.606,0.347,0.817,1.119,0.47,1.725
				l-20.117,35.173c-0.347,0.606-1.119,0.817-1.726,0.47l-41.403-23.68c-0.606-0.347-0.817-1.119-0.47-1.725l20.117-35.173
				C54.187,128.671,54.96,128.461,55.566,128.807"/>
			<path clip-path="url(#SVGID_2_)" fill="none" stroke="#FFFFFF" stroke-width="0.7683" stroke-miterlimit="10" d="M55.566,128.807
				l41.403,23.68c0.606,0.347,0.817,1.119,0.47,1.725l-20.117,35.173c-0.347,0.606-1.119,0.817-1.726,0.47l-41.403-23.68
				c-0.606-0.347-0.817-1.119-0.47-1.725l20.117-35.173C54.187,128.671,54.96,128.461,55.566,128.807z"/>
			<path clip-path="url(#SVGID_2_)" fill="none" stroke="#FFFFFF" stroke-width="1.5365" stroke-miterlimit="10" d="M55.566,128.807
				l41.403,23.68c0.606,0.347,0.817,1.119,0.47,1.725l-20.117,35.173c-0.347,0.606-1.119,0.817-1.726,0.47l-41.403-23.68
				c-0.606-0.347-0.817-1.119-0.47-1.725l20.117-35.173C54.187,128.671,54.96,128.461,55.566,128.807z M55.566,128.807l41.403,23.68
				c0.606,0.347,0.817,1.119,0.47,1.725l-20.117,35.173c-0.347,0.606-1.119,0.817-1.726,0.47l-41.403-23.68
				c-0.606-0.347-0.817-1.119-0.47-1.725l20.117-35.173C54.187,128.671,54.96,128.461,55.566,128.807 M-17.201,116.903l45.498,8.983
				c0.666,0.131,1.1,0.778,0.968,1.444l-7.631,38.652c-0.132,0.666-0.778,1.1-1.445,0.968l-45.498-8.983
				c-0.666-0.132-1.1-0.778-0.968-1.445l7.631-38.652C-18.514,117.205-17.867,116.771-17.201,116.903z M-17.201,116.903
				l45.498,8.983c0.666,0.131,1.1,0.778,0.968,1.444l-7.631,38.652c-0.132,0.666-0.778,1.1-1.445,0.968l-45.498-8.983
				c-0.666-0.132-1.1-0.778-0.968-1.445l7.631-38.652C-18.514,117.205-17.867,116.771-17.201,116.903 M55.942,112.128l63.072-33.78
				c0.923-0.495,2.073-0.147,2.568,0.777l28.697,53.581c0.495,0.923,0.147,2.073-0.777,2.568l-63.072,33.78
				c-0.923,0.495-2.073,0.147-2.568-0.777l-28.697-53.581C54.671,113.772,55.019,112.623,55.942,112.128z M55.942,112.128
				l63.072-33.78c0.923-0.495,2.073-0.147,2.568,0.777l28.697,53.581c0.495,0.923,0.147,2.073-0.777,2.568l-63.072,33.78
				c-0.923,0.495-2.073,0.147-2.568-0.777l-28.697-53.581C54.671,113.772,55.019,112.623,55.942,112.128 M57.715,207.812
				L31.33,194.765c-0.387-0.191-0.545-0.659-0.354-1.045l11.084-22.414c0.191-0.386,0.659-0.545,1.045-0.354l26.384,13.047
				c0.386,0.191,0.545,0.659,0.354,1.045L58.76,207.458C58.569,207.845,58.101,208.003,57.715,207.812z M57.715,207.812
				L31.33,194.765c-0.387-0.191-0.545-0.659-0.354-1.045l11.084-22.414c0.191-0.386,0.659-0.545,1.045-0.354l26.384,13.047
				c0.386,0.191,0.545,0.659,0.354,1.045L58.76,207.458C58.569,207.845,58.101,208.003,57.715,207.812 M29.745,133.747
				L3.361,120.701c-0.386-0.191-0.545-0.659-0.353-1.045l11.084-22.414c0.191-0.386,0.659-0.545,1.045-0.354l26.384,13.047
				c0.386,0.191,0.545,0.659,0.354,1.045l-11.084,22.414C30.6,133.78,30.132,133.939,29.745,133.747z M29.745,133.747L3.361,120.701
				c-0.386-0.191-0.545-0.659-0.353-1.045l11.084-22.414c0.191-0.386,0.659-0.545,1.045-0.354l26.384,13.047
				c0.386,0.191,0.545,0.659,0.354,1.045l-11.084,22.414C30.6,133.78,30.132,133.939,29.745,133.747 M43.044,163.786l-38.007,2.252
				c-0.556,0.033-1.034-0.391-1.067-0.948l-1.913-32.288c-0.033-0.557,0.391-1.035,0.948-1.067l38.007-2.252
				c0.557-0.033,1.035,0.391,1.068,0.948l1.913,32.288C44.025,163.275,43.601,163.753,43.044,163.786z M43.044,163.786
				l-38.007,2.252c-0.556,0.033-1.034-0.391-1.067-0.948l-1.913-32.288c-0.033-0.557,0.391-1.035,0.948-1.067l38.007-2.252
				c0.557-0.033,1.035,0.391,1.068,0.948l1.913,32.288C44.025,163.275,43.601,163.753,43.044,163.786 M108.32,98.771l-51.672,21.991
				c-0.757,0.322-1.631-0.03-1.953-0.787L36.013,76.079c-0.322-0.757,0.031-1.631,0.787-1.953l51.672-21.991
				c0.756-0.322,1.631,0.03,1.953,0.787l18.682,43.897C109.429,97.574,109.077,98.449,108.32,98.771z M108.32,98.771l-51.672,21.991
				c-0.757,0.322-1.631-0.03-1.953-0.787L36.013,76.079c-0.322-0.757,0.031-1.631,0.787-1.953l51.672-21.991
				c0.756-0.322,1.631,0.03,1.953,0.787l18.682,43.897C109.429,97.574,109.077,98.449,108.32,98.771 M77.322,115.625l-16.318,42.994
				c-0.239,0.63-0.943,0.946-1.573,0.707l-36.524-13.862c-0.63-0.239-0.946-0.943-0.707-1.573l16.318-42.994
				c0.239-0.63,0.943-0.946,1.573-0.707l36.524,13.862C77.245,114.292,77.562,114.996,77.322,115.625z M77.322,115.625
				l-16.318,42.994c-0.239,0.63-0.943,0.946-1.573,0.707l-36.524-13.862c-0.63-0.239-0.946-0.943-0.707-1.573l16.318-42.994
				c0.239-0.63,0.943-0.946,1.573-0.707l36.524,13.862C77.245,114.292,77.562,114.996,77.322,115.625 M90.534,185.485l-11.325,29.84
				c-0.166,0.437-0.654,0.657-1.092,0.491l-25.349-9.621c-0.437-0.166-0.657-0.654-0.491-1.092l11.325-29.84
				c0.166-0.437,0.654-0.657,1.092-0.491l25.349,9.621C90.48,184.56,90.7,185.048,90.534,185.485z M90.534,185.485l-11.325,29.84
				c-0.166,0.437-0.654,0.657-1.092,0.491l-25.349-9.621c-0.437-0.166-0.657-0.654-0.491-1.092l11.325-29.84
				c0.166-0.437,0.654-0.657,1.092-0.491l25.349,9.621C90.48,184.56,90.7,185.048,90.534,185.485 M46.481,159.083l-3.334,42.457
				c-0.049,0.622-0.592,1.086-1.214,1.037l-36.068-2.832c-0.622-0.049-1.086-0.592-1.037-1.214l3.334-42.457
				c0.049-0.622,0.592-1.086,1.214-1.037l36.068,2.832C46.065,157.918,46.53,158.462,46.481,159.083z M46.481,159.083l-3.334,42.457
				c-0.049,0.622-0.592,1.086-1.214,1.037l-36.068-2.832c-0.622-0.049-1.086-0.592-1.037-1.214l3.334-42.457
				c0.049-0.622,0.592-1.086,1.214-1.037l36.068,2.832C46.065,157.918,46.53,158.462,46.481,159.083 M120.238,124.123l54.47,9.599
				c0.798,0.14,1.33,0.901,1.19,1.699l-8.155,46.273c-0.141,0.798-0.901,1.33-1.699,1.19l-54.47-9.599
				c-0.798-0.14-1.33-0.901-1.19-1.699l8.155-46.274C118.68,124.515,119.44,123.982,120.238,124.123z M120.238,124.123l54.47,9.599
				c0.798,0.14,1.33,0.901,1.19,1.699l-8.155,46.273c-0.141,0.798-0.901,1.33-1.699,1.19l-54.47-9.599
				c-0.798-0.14-1.33-0.901-1.19-1.699l8.155-46.274C118.68,124.515,119.44,123.982,120.238,124.123 M108.606,136.389l30.62,46.061
				c0.448,0.674,0.265,1.585-0.409,2.033l-39.13,26.012c-0.674,0.448-1.584,0.265-2.033-0.409l-30.62-46.06
				c-0.448-0.675-0.265-1.585,0.409-2.033l39.13-26.012C107.247,135.532,108.157,135.715,108.606,136.389z M108.606,136.389
				l30.62,46.061c0.448,0.674,0.265,1.585-0.409,2.033l-39.13,26.012c-0.674,0.448-1.584,0.265-2.033-0.409l-30.62-46.06
				c-0.448-0.675-0.265-1.585,0.409-2.033l39.13-26.012C107.247,135.532,108.157,135.715,108.606,136.389"/>
		</g>
	</g>
</g>
</svg>
