<?xml version="1.0" encoding="utf-8"?>
<!-- Generator: Adobe Illustrator 17.0.0, SVG Export Plug-In . SVG Version: 6.00 Build 0)  -->
<!DOCTYPE svg PUBLIC "-//W3C//DTD SVG 1.1//EN" "http://www.w3.org/Graphics/SVG/1.1/DTD/svg11.dtd">
<svg version="1.1" id="Camada_1" xmlns="http://www.w3.org/2000/svg" xmlns:xlink="http://www.w3.org/1999/xlink" x="0px" y="0px"
	 width="100px" height="53px" viewBox="0 0 100 53" enable-background="new 0 0 100 53" xml:space="preserve">
<g>
	<path fill="#69B852" d="M96.284,53H3.716C1.672,53,0,51.327,0,49.282V3.718C0,1.673,1.672,0,3.716,0h92.568
		C98.328,0,100,1.673,100,3.718v45.563C100,51.327,98.328,53,96.284,53z"/>
	<g>
		<path fill="#939393" d="M48.038,14.508c-4.255-6.06-11.37-10.034-19.433-10.034c-5.889,0-23.592,0-23.592,0s0,16.153,0,23.163
			c0,12.793,10.562,23.164,23.592,23.164c6.514,0,23.592,0,23.592,0s0-16.767,0-23.164c0-4.552-1.343-8.793-3.653-12.374"/>
		<path fill="#FFFFFF" d="M51.381,26.285c0-12.843-10.413-23.255-23.255-23.255c-5.806,0-23.256,0-23.256,0s0,16.217,0,23.255
			c0,12.843,10.412,23.256,23.256,23.256c6.421,0,23.255,0,23.255,0S51.381,32.707,51.381,26.285z"/>
	</g>
	<g>
		<g>
			<path fill="#69B852" d="M47.995,25.598c0-11.456-8.919-20.743-19.92-20.743c-4.973,0-19.92,0-19.92,0s0,14.465,0,20.743
				c0,11.456,8.918,20.743,19.92,20.743c5.5,0,19.92,0,19.92,0S47.995,31.326,47.995,25.598z"/>
		</g>
		<g>
			<g>
				<defs>
					<rect id="SVGID_1_" x="11.606" y="7.462" width="9.252" height="9.902"/>
				</defs>
				<clipPath id="SVGID_2_">
					<use xlink:href="#SVGID_1_"  overflow="visible"/>
				</clipPath>
				<path clip-path="url(#SVGID_2_)" fill="#FFFFFF" d="M17.522,14.706c-1.581-0.209-2.844-1.552-3.017-3.202
					c-0.159-1.519,0.581-2.873,1.735-3.564c0.224-0.134,0.132-0.491-0.127-0.479c-0.288,0.014-0.583,0.058-0.883,0.134
					c-1.994,0.505-3.478,2.32-3.612,4.452c-0.182,2.871,2,5.257,4.717,5.257c2.072,0,3.833-1.388,4.471-3.319
					c0.085-0.258-0.218-0.453-0.407-0.264C19.671,14.45,18.641,14.853,17.522,14.706L17.522,14.706z M17.522,14.706"/>
			</g>
		</g>
		<g>
			<path fill="#FFFFFF" d="M41.804,26.876c0.933,0,1.735-0.815,2.116-1.762h-4.373C39.834,26.131,40.736,26.876,41.804,26.876z"/>
			<path fill="#FFFFFF" d="M41.818,17.313c-0.146-0.427-0.536-0.714-0.971-0.714H22.03c-0.435,0-0.825,0.287-0.971,0.714
				l-1.879,5.506h24.517L41.818,17.313z"/>
			<path fill="#FFFFFF" d="M34.894,26.876c1.068,0,1.969-0.745,2.256-1.762h-4.514C32.924,26.131,33.826,26.876,34.894,26.876z"/>
			<path fill="#FFFFFF" d="M27.984,26.876c1.068,0,1.969-0.745,2.256-1.762h-4.514C26.014,26.131,26.916,26.876,27.984,26.876z"/>
			<path fill="#FFFFFF" d="M21.073,26.876c1.068,0,1.97-0.745,2.257-1.762h-4.373C19.338,26.061,20.141,26.876,21.073,26.876z"/>
			<path fill="#FFFFFF" d="M20.124,40.307c0,0.696,0.544,1.263,1.213,1.263H41.54c0.669,0,1.213-0.567,1.213-1.263v-5.269H20.124
				V40.307z"/>
			<path fill="#FFFFFF" d="M42.752,29.052c-0.303,0.077-0.62,0.119-0.949,0.119c-1.38,0-2.619-0.644-3.455-1.656
				c-0.836,1.012-2.075,1.656-3.455,1.656c-1.38,0-2.619-0.644-3.455-1.656c-0.836,1.012-2.075,1.656-3.455,1.656
				c-1.38,0-2.619-0.644-3.455-1.656c-0.837,1.012-2.075,1.656-3.455,1.656c-0.329,0-0.646-0.042-0.949-0.119V33.8h22.628V29.052z"
				/>
		</g>
	</g>
	<g>
		<g>
			<path fill="#FFFFFF" d="M55.405,19.079h4.937v1.331h-3.511v1.416h3.094v1.331h-3.094v2.576h-1.426V19.079z"/>
			<path fill="#FFFFFF" d="M60.86,23.214v-0.019c0-1.454,1.01-2.652,2.455-2.652c1.657,0,2.417,1.321,2.417,2.767
				c0,0.114-0.009,0.247-0.019,0.38h-3.455c0.14,0.656,0.584,0.998,1.214,0.998c0.473,0,0.815-0.152,1.204-0.522l0.806,0.731
				c-0.463,0.59-1.13,0.951-2.028,0.951C61.963,25.848,60.86,24.773,60.86,23.214z M64.361,22.786
				c-0.083-0.646-0.453-1.083-1.046-1.083c-0.584,0-0.964,0.428-1.074,1.083H64.361z"/>
			<path fill="#FFFFFF" d="M66.574,18.794h1.482v1.283h-1.482V18.794z M66.611,20.638h1.408v5.096h-1.408V20.638z"/>
			<path fill="#FFFFFF" d="M69.112,20.638h1.408v1.027c0.287-0.704,0.75-1.16,1.583-1.122v1.512H72.03
				c-0.936,0-1.51,0.58-1.51,1.797v1.882h-1.408V20.638z"/>
			<path fill="#FFFFFF" d="M72.456,24.27v-0.02c0-1.111,0.825-1.625,2.001-1.625c0.5,0,0.861,0.085,1.214,0.209v-0.086
				c0-0.599-0.361-0.932-1.065-0.932c-0.537,0-0.917,0.105-1.371,0.276l-0.352-1.103c0.546-0.248,1.083-0.409,1.926-0.409
				c0.77,0,1.325,0.209,1.677,0.57c0.371,0.38,0.537,0.941,0.537,1.626v2.956h-1.361v-0.552c-0.343,0.391-0.815,0.646-1.5,0.646
				C73.225,25.828,72.456,25.277,72.456,24.27z M75.688,23.937V23.68c-0.24-0.113-0.556-0.189-0.897-0.189
				c-0.603,0-0.973,0.247-0.973,0.703v0.019c0,0.391,0.314,0.618,0.769,0.618C75.244,24.83,75.688,24.46,75.688,23.937z"/>
			<path fill="#FFFFFF" d="M80.329,23.195v-0.02c0-1.701,1.084-2.633,2.261-2.633c0.75,0,1.213,0.352,1.546,0.761v-2.51h1.408v6.939
				h-1.408v-0.732c-0.343,0.476-0.814,0.827-1.546,0.827C81.431,25.828,80.329,24.896,80.329,23.195z M84.154,23.195v-0.02
				c0-0.846-0.546-1.406-1.204-1.406c-0.657,0-1.213,0.551-1.213,1.406v0.02c0,0.846,0.556,1.407,1.213,1.407
				C83.608,24.603,84.154,24.041,84.154,23.195z"/>
			<path fill="#FFFFFF" d="M86.274,24.27v-0.02c0-1.111,0.825-1.625,2.001-1.625c0.5,0,0.861,0.085,1.214,0.209v-0.086
				c0-0.599-0.361-0.932-1.065-0.932c-0.537,0-0.917,0.105-1.371,0.276l-0.352-1.103c0.546-0.248,1.083-0.409,1.926-0.409
				c0.77,0,1.325,0.209,1.677,0.57c0.371,0.38,0.537,0.941,0.537,1.626v2.956h-1.361v-0.552c-0.343,0.391-0.815,0.646-1.5,0.646
				C87.044,25.828,86.274,25.277,86.274,24.27z M89.506,23.937V23.68c-0.24-0.113-0.556-0.189-0.897-0.189
				c-0.603,0-0.973,0.247-0.973,0.703v0.019c0,0.391,0.314,0.618,0.769,0.618C89.062,24.83,89.506,24.46,89.506,23.937z"/>
		</g>
		<g>
			<text transform="matrix(0.9742 0 0 1 54.7526 33.5127)" fill="#FFFFFF" font-family="'Gotham-Bold'" font-size="8.1189">Madrugada</text>
		</g>
	</g>
</g>
</svg>
