<?xml version="1.0" encoding="utf-8"?>
<!-- Generator: Adobe Illustrator 17.0.0, SVG Export Plug-In . SVG Version: 6.00 Build 0)  -->
<!DOCTYPE svg PUBLIC "-//W3C//DTD SVG 1.1//EN" "http://www.w3.org/Graphics/SVG/1.1/DTD/svg11.dtd">
<svg version="1.1" id="Camada_1" xmlns="http://www.w3.org/2000/svg" xmlns:xlink="http://www.w3.org/1999/xlink" x="0px" y="0px"
	 width="100px" height="53px" viewBox="0 0 100 53" enable-background="new 0 0 100 53" xml:space="preserve">
<g>
	<g>
		<path fill="#355EA5" d="M96.284,53H3.716C1.672,53,0,51.327,0,49.282V3.718C0,1.673,1.672,0,3.716,0h92.568
			C98.328,0,100,1.673,100,3.718v45.563C100,51.327,98.328,53,96.284,53z"/>
		<g>
			<path fill="#939393" d="M48.659,13.917c-4.255-6.06-11.37-10.034-19.433-10.034c-5.889,0-23.592,0-23.592,0s0,16.153,0,23.163
				c0,12.793,10.562,23.164,23.592,23.164c6.514,0,23.592,0,23.592,0s0-16.767,0-23.164c0-4.552-1.343-8.793-3.653-12.374"/>
			<path fill="#FFFFFF" d="M51.381,26.285c0-12.843-10.413-23.255-23.255-23.255c-5.806,0-23.256,0-23.256,0s0,16.217,0,23.255
				c0,12.843,10.412,23.256,23.256,23.256c6.421,0,23.255,0,23.255,0S51.381,32.707,51.381,26.285z"/>
		</g>
		<g>
			<path fill="#355EA5" d="M48.656,26.044c0-11.381-9.227-20.608-20.608-20.608c-5.145,0-20.608,0-20.608,0s0,14.37,0,20.608
				c0,11.381,9.226,20.608,20.608,20.608c5.69,0,20.608,0,20.608,0S48.656,31.735,48.656,26.044z"/>
		</g>
		<g>
			<g>
				<path fill="#FFFFFF" d="M57.032,25.844h3.943c0.97,0,1.734,0.267,2.22,0.752c0.388,0.388,0.582,0.861,0.582,1.443v0.024
					c0,0.958-0.51,1.492-1.116,1.832c0.982,0.376,1.589,0.945,1.589,2.086v0.024c0,1.553-1.261,2.329-3.178,2.329h-4.04V25.844z
					 M60.575,29.276c0.824,0,1.346-0.267,1.346-0.897v-0.024c0-0.558-0.437-0.873-1.225-0.873h-1.844v1.795H60.575z M61.072,32.697
					c0.825,0,1.322-0.291,1.322-0.922v-0.024c0-0.57-0.425-0.922-1.383-0.922h-2.159v1.868H61.072z"/>
				<path fill="#FFFFFF" d="M65.289,27.833h1.844v1.31c0.376-0.897,0.982-1.479,2.074-1.431v1.929H69.11
					c-1.226,0-1.978,0.739-1.978,2.292v2.402h-1.844V27.833z"/>
				<path fill="#FFFFFF" d="M69.666,32.467v-0.024c0-1.419,1.08-2.074,2.62-2.074c0.655,0,1.129,0.109,1.59,0.267v-0.108
					c0-0.765-0.474-1.189-1.396-1.189c-0.703,0-1.201,0.134-1.795,0.352l-0.461-1.407c0.715-0.314,1.419-0.521,2.522-0.521
					c1.007,0,1.735,0.268,2.196,0.729c0.485,0.485,0.703,1.2,0.703,2.074v3.772h-1.783v-0.703c-0.448,0.497-1.067,0.824-1.965,0.824
					C70.672,34.456,69.666,33.753,69.666,32.467z M73.899,32.042v-0.327c-0.315-0.146-0.728-0.243-1.177-0.243
					c-0.788,0-1.273,0.315-1.273,0.898v0.023c0,0.498,0.413,0.789,1.007,0.789C73.317,33.183,73.899,32.709,73.899,32.042z
					 M73.463,24.97l1.59,0.691l-1.577,1.456h-1.359L73.463,24.97z"/>
				<path fill="#FFFFFF" d="M76.419,33.474l0.788-1.213c0.704,0.51,1.444,0.776,2.051,0.776c0.533,0,0.776-0.194,0.776-0.485v-0.024
					c0-0.4-0.631-0.533-1.347-0.752c-0.91-0.267-1.941-0.691-1.941-1.953v-0.024c0-1.322,1.067-2.062,2.378-2.062
					c0.825,0,1.723,0.279,2.426,0.753l-0.703,1.273c-0.643-0.376-1.286-0.606-1.759-0.606c-0.449,0-0.68,0.194-0.68,0.448v0.024
					c0,0.364,0.619,0.534,1.322,0.776c0.91,0.304,1.965,0.74,1.965,1.929v0.024c0,1.443-1.079,2.099-2.486,2.099
					C78.298,34.456,77.28,34.153,76.419,33.474z"/>
			</g>
		</g>
	</g>
	<g>
		<path fill="#FFFFFF" d="M27.745,18.59"/>
		<path fill="#FFFFFF" d="M42.501,20.968c0,0-6.276-6.284-6.29-6.297c-0.189-0.171-0.423-0.277-0.683-0.277c0,0-2.351,0-2.351,0
			c-0.289,0-0.496,0.104-0.653,0.277c-0.126,0.139-0.219,0.325-0.295,0.523c-0.228,0.587-0.424,1.124-0.801,1.64
			c-0.802,1.097-2.241,1.756-3.586,1.756s-2.784-0.659-3.586-1.756c-0.378-0.517-0.573-1.054-0.801-1.64
			c-0.077-0.198-0.17-0.384-0.295-0.523c-0.156-0.173-0.363-0.277-0.653-0.277h-2.351c-0.261,0-0.494,0.106-0.683,0.277
			c-0.014,0.013-6.29,6.297-6.29,6.297c-0.391,0.391-0.391,1.024,0,1.414l2.713,2.707c0.391,0.391,1.024,0.391,1.414,0l1.535-1.506
			v16.647c0,0.378,0.308,0.686,0.687,0.686h16.621c0.379,0,0.687-0.308,0.687-0.686V23.583l1.535,1.506
			c0.391,0.391,1.024,0.391,1.414,0l2.713-2.707C42.891,21.991,42.891,21.358,42.501,20.968z"/>
		<line fill="#FFFFFF" x1="27.745" y1="40.915" x2="27.745" y2="18.59"/>
	</g>
</g>
</svg>
