<?xml version="1.0" encoding="utf-8"?>
<!-- Generator: Adobe Illustrator 17.0.0, SVG Export Plug-In . SVG Version: 6.00 Build 0)  -->
<!DOCTYPE svg PUBLIC "-//W3C//DTD SVG 1.1//EN" "http://www.w3.org/Graphics/SVG/1.1/DTD/svg11.dtd">
<svg version="1.1" id="Camada_1" xmlns="http://www.w3.org/2000/svg" xmlns:xlink="http://www.w3.org/1999/xlink" x="0px" y="0px"
	 width="100px" height="53px" viewBox="0 0 100 53" enable-background="new 0 0 100 53" xml:space="preserve">
<g>
	<path fill="#9A3D70" d="M96.284,53H3.716C1.672,53,0,51.327,0,49.282V3.718C0,1.673,1.672,0,3.716,0h92.568
		C98.328,0,100,1.673,100,3.718v45.563C100,51.327,98.328,53,96.284,53z"/>
	<g>
		<path fill="#939393" d="M48.659,13.917c-4.255-6.06-11.37-10.034-19.433-10.034c-5.889,0-23.592,0-23.592,0s0,16.153,0,23.163
			c0,12.793,10.562,23.164,23.592,23.164c6.514,0,23.592,0,23.592,0s0-16.767,0-23.164c0-4.552-1.343-8.793-3.653-12.374"/>
		<path fill="#FFFFFF" d="M51.381,26.285c0-12.843-10.413-23.255-23.255-23.255c-5.806,0-23.256,0-23.256,0s0,16.217,0,23.255
			c0,12.843,10.412,23.256,23.256,23.256c6.421,0,23.255,0,23.255,0S51.381,32.707,51.381,26.285z"/>
	</g>
	<g>
		<path fill="#9A3D70" d="M48.656,26.044c0-11.381-9.227-20.608-20.608-20.608c-5.145,0-20.608,0-20.608,0s0,14.37,0,20.608
			c0,11.381,9.226,20.608,20.608,20.608c5.69,0,20.608,0,20.608,0S48.656,31.735,48.656,26.044z"/>
	</g>
	<g>
		<g>
			<path fill="#FFFFFF" d="M54.883,25.609l0.993-1.188c0.688,0.567,1.407,0.927,2.28,0.927c0.688,0,1.102-0.272,1.102-0.72v-0.021
				c0-0.426-0.262-0.644-1.538-0.972c-1.538-0.393-2.531-0.818-2.531-2.334v-0.022c0-1.386,1.113-2.302,2.673-2.302
				c1.113,0,2.062,0.349,2.837,0.971l-0.873,1.266c-0.677-0.469-1.342-0.753-1.985-0.753s-0.982,0.295-0.982,0.666v0.021
				c0,0.502,0.327,0.666,1.647,1.004c1.55,0.403,2.422,0.96,2.422,2.291v0.021c0,1.517-1.156,2.368-2.804,2.368
				C56.967,26.832,55.8,26.428,54.883,25.609z"/>
			<path fill="#FFFFFF" d="M61.591,25.043v-0.022c0-1.276,0.971-1.865,2.356-1.865c0.59,0,1.015,0.098,1.43,0.24v-0.099
				c0-0.688-0.426-1.069-1.255-1.069c-0.633,0-1.08,0.12-1.614,0.316l-0.415-1.266c0.644-0.283,1.276-0.469,2.27-0.469
				c0.905,0,1.56,0.24,1.975,0.654c0.437,0.437,0.633,1.08,0.633,1.866v3.393h-1.604V26.09c-0.404,0.447-0.96,0.742-1.768,0.742
				C62.497,26.832,61.591,26.199,61.591,25.043z M65.399,24.661v-0.295c-0.283-0.131-0.654-0.219-1.058-0.219
				c-0.71,0-1.146,0.284-1.146,0.808v0.022c0,0.447,0.371,0.709,0.906,0.709C64.876,25.687,65.399,25.261,65.399,24.661z"/>
			<path fill="#FFFFFF" d="M68.127,20.875h1.658v0.829c0.382-0.491,0.873-0.938,1.713-0.938c1.255,0,1.985,0.829,1.985,2.171v3.786
				h-1.658v-3.262c0-0.786-0.371-1.189-1.004-1.189s-1.036,0.403-1.036,1.189v3.262h-1.658V20.875z"/>
			<path fill="#FFFFFF" d="M74.922,25.064v-2.771h-0.698v-1.418h0.698V19.38h1.658v1.495h1.375v1.418H76.58v2.499
				c0,0.382,0.164,0.567,0.535,0.567c0.305,0,0.578-0.077,0.817-0.208v1.331c-0.349,0.207-0.752,0.339-1.309,0.339
				C75.609,26.821,74.922,26.417,74.922,25.064z"/>
			<path fill="#FFFFFF" d="M78.553,25.043v-0.022c0-1.276,0.971-1.865,2.356-1.865c0.59,0,1.015,0.098,1.43,0.24v-0.099
				c0-0.688-0.426-1.069-1.255-1.069c-0.633,0-1.08,0.12-1.614,0.316l-0.415-1.266c0.644-0.283,1.276-0.469,2.27-0.469
				c0.905,0,1.56,0.24,1.975,0.654c0.437,0.437,0.633,1.08,0.633,1.866v3.393h-1.604V26.09c-0.404,0.447-0.96,0.742-1.768,0.742
				C79.459,26.832,78.553,26.199,78.553,25.043z M82.361,24.661v-0.295c-0.283-0.131-0.654-0.219-1.059-0.219
				c-0.709,0-1.146,0.284-1.146,0.808v0.022c0,0.447,0.371,0.709,0.906,0.709C81.838,25.687,82.361,25.261,82.361,24.661z"/>
			<path fill="#FFFFFF" d="M55.407,32.176h5.761v1.494h-4.091v1.55h3.6v1.494h-3.6v1.604h4.146v1.495h-5.815V32.176z"/>
			<path fill="#FFFFFF" d="M62.552,35.383h-0.688V34.02h0.688v-0.371c0-0.644,0.164-1.113,0.47-1.418
				c0.305-0.306,0.752-0.459,1.342-0.459c0.523,0,0.872,0.065,1.178,0.164v1.375c-0.24-0.088-0.469-0.143-0.753-0.143
				c-0.382,0-0.6,0.196-0.6,0.633v0.229h1.342v1.353h-1.32v4.43h-1.658V35.383z M66.469,31.849h1.745v1.473h-1.745V31.849z
				 M66.513,33.965h1.658v5.848h-1.658V33.965z"/>
			<path fill="#FFFFFF" d="M69.489,40.969l0.567-1.243c0.601,0.338,1.2,0.534,1.975,0.534c1.135,0,1.67-0.546,1.67-1.593v-0.284
				c-0.491,0.59-1.026,0.949-1.91,0.949c-1.363,0-2.596-0.992-2.596-2.728v-0.021c0-1.745,1.254-2.728,2.596-2.728
				c0.906,0,1.44,0.382,1.888,0.873v-0.764h1.658v4.527c0,1.048-0.251,1.812-0.741,2.302c-0.546,0.546-1.386,0.786-2.521,0.786
				C71.126,41.58,70.231,41.361,69.489,40.969z M73.701,36.604v-0.021c0-0.796-0.622-1.353-1.43-1.353s-1.418,0.557-1.418,1.353
				v0.021c0,0.808,0.61,1.354,1.418,1.354S73.701,37.401,73.701,36.604z"/>
			<path fill="#FFFFFF" d="M76.263,36.921v-0.021c0-1.669,1.189-3.044,2.892-3.044c1.953,0,2.848,1.517,2.848,3.175
				c0,0.131-0.012,0.284-0.022,0.437h-4.069c0.164,0.753,0.688,1.146,1.43,1.146c0.556,0,0.96-0.175,1.418-0.6l0.949,0.84
				c-0.546,0.677-1.331,1.091-2.39,1.091C77.562,39.943,76.263,38.711,76.263,36.921z M78.347,31.608h1.571l1.342,1.713h-1.276
				l-0.862-0.721l-0.861,0.721h-1.255L78.347,31.608z M80.387,36.431c-0.098-0.742-0.534-1.244-1.232-1.244
				c-0.688,0-1.135,0.491-1.266,1.244H80.387z"/>
			<path fill="#FFFFFF" d="M82.962,33.965h1.658v0.829c0.382-0.491,0.873-0.938,1.713-0.938c1.255,0,1.985,0.829,1.985,2.171v3.786
				H86.66v-3.262c0-0.786-0.371-1.189-1.004-1.189s-1.036,0.403-1.036,1.189v3.262h-1.658V33.965z"/>
			<path fill="#FFFFFF" d="M89.516,31.849h1.746v1.473h-1.746V31.849z M89.56,33.965h1.658v5.848H89.56V33.965z"/>
			<path fill="#FFFFFF" d="M92.156,38.133V38.11c0-1.276,0.971-1.865,2.356-1.865c0.59,0,1.015,0.098,1.43,0.24v-0.099
				c0-0.688-0.426-1.069-1.255-1.069c-0.633,0-1.08,0.12-1.614,0.316l-0.415-1.266c0.644-0.283,1.276-0.469,2.27-0.469
				c0.905,0,1.56,0.24,1.975,0.654c0.437,0.437,0.633,1.08,0.633,1.866v3.393h-1.604V39.18c-0.404,0.447-0.96,0.742-1.768,0.742
				C93.061,39.922,92.156,39.289,92.156,38.133z M95.964,37.751v-0.295c-0.283-0.131-0.654-0.219-1.058-0.219
				c-0.71,0-1.146,0.284-1.146,0.808v0.022c0,0.447,0.371,0.709,0.906,0.709C95.44,38.776,95.964,38.351,95.964,37.751z"/>
		</g>
	</g>
	<g>
		<path fill="#FFFFFF" d="M41.926,34.285H31.08c-0.117,0-0.212,0.095-0.212,0.212v0.009c0,0.436-0.354,0.789-0.789,0.789h-4.105
			c-0.436,0-0.789-0.354-0.789-0.789v-0.009c0-0.117-0.095-0.212-0.212-0.212H14.127c-0.436,0-0.789,0.354-0.789,0.789v1.231
			c0,0.436,0.354,0.789,0.789,0.789h27.799c0.436,0,0.789-0.354,0.789-0.789v-1.231C42.715,34.639,42.362,34.285,41.926,34.285z"/>
		<path fill="#FFFFFF" d="M40.152,13.474h-24.06c-1.522,0-2.763,1.241-2.763,2.763v14.149c0,1.522,1.241,2.763,2.763,2.763h24.06
			c1.522,0,2.763-1.241,2.763-2.763V16.237C42.914,14.715,41.673,13.474,40.152,13.474z M27.847,32.805
			c-0.426,0-0.771-0.345-0.771-0.771s0.345-0.771,0.771-0.771s0.771,0.345,0.771,0.771S28.272,32.805,27.847,32.805z M40.546,30.386
			c0,0.218-0.177,0.395-0.395,0.395h-24.06c-0.218,0-0.395-0.177-0.395-0.395V16.237c0-0.218,0.177-0.395,0.395-0.395h24.06
			c0.218,0,0.395,0.177,0.395,0.395V30.386z"/>
	</g>
</g>
</svg>
