<?xml version="1.0" encoding="utf-8"?>
<!-- Generator: Adobe Illustrator 17.0.0, SVG Export Plug-In . SVG Version: 6.00 Build 0)  -->
<!DOCTYPE svg PUBLIC "-//W3C//DTD SVG 1.1//EN" "http://www.w3.org/Graphics/SVG/1.1/DTD/svg11.dtd">
<svg version="1.1" id="Camada_1" xmlns="http://www.w3.org/2000/svg" xmlns:xlink="http://www.w3.org/1999/xlink" x="0px" y="0px"
	 width="100px" height="53px" viewBox="0 0 100 53" enable-background="new 0 0 100 53" xml:space="preserve">
<g>
	<path fill="#D23B37" d="M96.284,53H3.716C1.672,53,0,51.327,0,49.282V3.718C0,1.673,1.672,0,3.716,0h92.568
		C98.328,0,100,1.673,100,3.718v45.563C100,51.327,98.328,53,96.284,53z"/>
	<path fill="#939393" d="M48.563,14.658C44.308,8.598,37.192,4.624,29.13,4.624c-5.889,0-23.592,0-23.592,0s0,16.153,0,23.163
		c0,12.793,10.562,23.164,23.592,23.164c6.514,0,23.592,0,23.592,0s0-16.767,0-23.164c0-4.552-1.343-8.793-3.653-12.374"/>
	<g>
		<path fill="#FFFFFF" d="M55.951,16.271h3.943c0.97,0,1.734,0.267,2.22,0.752c0.388,0.388,0.582,0.861,0.582,1.443v0.024
			c0,0.958-0.51,1.492-1.116,1.832c0.982,0.376,1.589,0.945,1.589,2.086v0.024c0,1.553-1.261,2.329-3.178,2.329h-4.04V16.271z
			 M59.494,19.704c0.824,0,1.346-0.267,1.346-0.897v-0.024c0-0.558-0.437-0.873-1.225-0.873h-1.844v1.795H59.494z M59.991,23.125
			c0.825,0,1.322-0.291,1.322-0.922v-0.024c0-0.57-0.425-0.922-1.383-0.922h-2.159v1.868H59.991z"/>
		<path fill="#FFFFFF" d="M63.892,21.548v-0.024c0-1.868,1.504-3.384,3.529-3.384c2.015,0,3.506,1.492,3.506,3.36v0.023
			c0,1.868-1.504,3.385-3.529,3.385C65.384,24.908,63.892,23.416,63.892,21.548z M69.108,21.548v-0.024
			c0-0.958-0.691-1.795-1.71-1.795c-1.056,0-1.687,0.812-1.687,1.771v0.023c0,0.959,0.691,1.796,1.71,1.796
			C68.477,23.319,69.108,22.507,69.108,21.548z"/>
		<path fill="#FFFFFF" d="M71.956,18.261h1.844v0.922c0.425-0.546,0.982-1.043,1.916-1.043c0.85,0,1.492,0.376,1.832,1.031
			c0.57-0.668,1.25-1.031,2.135-1.031c1.371,0,2.196,0.824,2.196,2.39v4.233h-1.844v-3.627c0-0.874-0.389-1.322-1.08-1.322
			s-1.116,0.448-1.116,1.322v3.627h-1.844v-3.627c0-0.874-0.388-1.322-1.079-1.322s-1.116,0.448-1.116,1.322v3.627h-1.844V18.261z"
			/>
		<path fill="#FFFFFF" d="M55.951,30.82h3.882c1.08,0,1.917,0.303,2.476,0.861c0.473,0.473,0.728,1.14,0.728,1.94v0.024
			c0,1.371-0.74,2.232-1.819,2.633l2.074,3.032h-2.184l-1.82-2.717h-1.468v2.717h-1.868V30.82z M59.712,34.944
			c0.91,0,1.432-0.485,1.432-1.201V33.72c0-0.801-0.558-1.214-1.468-1.214h-1.856v2.438H59.712z"/>
		<path fill="#FFFFFF" d="M63.905,36.097v-0.024c0-1.855,1.322-3.384,3.215-3.384c2.171,0,3.166,1.686,3.166,3.529
			c0,0.146-0.013,0.315-0.024,0.485h-4.525c0.183,0.837,0.765,1.274,1.59,1.274c0.618,0,1.067-0.194,1.577-0.668l1.055,0.935
			c-0.606,0.752-1.479,1.213-2.656,1.213C65.348,39.457,63.905,38.086,63.905,36.097z M68.49,35.551
			c-0.109-0.824-0.594-1.383-1.37-1.383c-0.765,0-1.262,0.546-1.407,1.383H68.49z"/>
		<path fill="#FFFFFF" d="M71.652,37.468v-3.081h-0.776V32.81h0.776v-1.662h1.844v1.662h1.529v1.577h-1.529v2.777
			c0,0.425,0.183,0.631,0.595,0.631c0.34,0,0.643-0.085,0.91-0.23v1.48c-0.389,0.23-0.837,0.376-1.456,0.376
			C72.417,39.421,71.652,38.972,71.652,37.468z"/>
		<path fill="#FFFFFF" d="M76.114,30.456h1.94v1.638h-1.94V30.456z M76.163,32.81h1.844v6.502h-1.844V32.81z"/>
		<path fill="#FFFFFF" d="M79.436,32.81h1.844v1.31c0.376-0.897,0.982-1.479,2.074-1.431v1.929h-0.097
			c-1.226,0-1.978,0.739-1.978,2.292v2.402h-1.844V32.81z"/>
		<path fill="#FFFFFF" d="M83.885,36.097v-0.024c0-1.868,1.504-3.384,3.529-3.384c2.015,0,3.506,1.492,3.506,3.36v0.023
			c0,1.868-1.504,3.385-3.529,3.385C85.378,39.457,83.885,37.965,83.885,36.097z M89.101,36.097v-0.024
			c0-0.958-0.691-1.795-1.71-1.795c-1.056,0-1.687,0.812-1.687,1.771v0.023c0,0.959,0.691,1.796,1.71,1.796
			C88.47,37.868,89.101,37.056,89.101,36.097z"/>
	</g>
	<g>
		<path fill="#FFFFFF" d="M51.47,26.621c0-12.658-10.262-22.919-22.919-22.919c-5.722,0-22.919,0-22.919,0s0,15.982,0,22.919
			c0,12.658,10.261,22.919,22.919,22.919c6.329,0,22.919,0,22.919,0S51.47,32.95,51.47,26.621z"/>
		<path fill="#D23B37" d="M49.447,26.66c0-11.43-9.267-20.697-20.697-20.697c-5.167,0-20.697,0-20.697,0s0,14.432,0,20.697
			c0,11.43,9.266,20.697,20.697,20.697c5.715,0,20.697,0,20.697,0S49.447,32.376,49.447,26.66z"/>
		<path fill="#FFFFFF" d="M47.42,32.267c-0.461-1.752-1.868-1.732-6.169-3.762c-3.685-1.74-6.647-4.759-8.096-6.415
			c-0.552-0.629-1.642-1.171-2.481-1.171h-0.755c0.049-0.078,0.081-0.164,0.078-0.261l-0.036-1.746
			c1.419-0.784,1.842-2.129,1.617-3.172c-0.271-1.261-1.417-2.11-2.846-2.11c-0.852,0-1.539,0.254-2.039,0.758
			c-0.785,0.79-0.785,1.894-0.785,1.942c0.003,0.278,0.23,0.501,0.507,0.501c0.281,0,0.506-0.23,0.506-0.507
			c0-0.28,0.093-1.684,1.81-1.684c0.956,0,1.685,0.516,1.859,1.313c0.142,0.662-0.126,1.633-1.348,2.188
			c-0.184,0.083-0.304,0.268-0.297,0.471l0.042,2.065c0,0.09,0.032,0.168,0.078,0.242h-1.427c-0.838,0-1.93,0.539-2.481,1.171
			c-1.449,1.655-4.411,4.675-8.095,6.415c-4.299,2.026-5.705,2.006-6.169,3.762c-0.216,0.81,0.439,1.252,1.207,0.917
			c0.698-0.304,1.636-0.729,2.74-1.266h28.634c1.104,0.536,2.042,0.962,2.74,1.266C46.982,33.519,47.633,33.077,47.42,32.267z
			 M16.691,30.988c2.871-1.485,6.452-3.545,10.021-6.152c0,0,1.136-0.968,2.359-0.968h0.171c1.222,0,2.358,0.968,2.358,0.968
			c3.569,2.607,7.15,4.667,10.021,6.152H16.691z"/>
	</g>
</g>
</svg>
