<?xml version="1.0" encoding="utf-8"?>
<!-- Generator: Adobe Illustrator 17.0.0, SVG Export Plug-In . SVG Version: 6.00 Build 0)  -->
<!DOCTYPE svg PUBLIC "-//W3C//DTD SVG 1.1//EN" "http://www.w3.org/Graphics/SVG/1.1/DTD/svg11.dtd">
<svg version="1.1" id="Camada_1" xmlns="http://www.w3.org/2000/svg" xmlns:xlink="http://www.w3.org/1999/xlink" x="0px" y="0px"
	 width="100px" height="53px" viewBox="0 0 100 53" enable-background="new 0 0 100 53" xml:space="preserve">
<g>
	<path fill="#EDA53A" d="M96.284,53H3.716C1.672,53,0,51.327,0,49.282V3.718C0,1.673,1.672,0,3.716,0h92.568
		C98.328,0,100,1.673,100,3.718v45.563C100,51.327,98.328,53,96.284,53z"/>
	<g>
		<path fill="#939393" d="M47.8,14.148C43.545,8.088,36.43,4.114,28.367,4.114c-5.889,0-23.592,0-23.592,0s0,16.153,0,23.163
			c0,12.793,10.562,23.164,23.592,23.164c6.514,0,23.592,0,23.592,0s0-16.767,0-23.164c0-4.552-1.343-8.793-3.653-12.374"/>
		<path fill="#FFFFFF" d="M51.381,26.285c0-12.843-10.413-23.255-23.255-23.255c-5.806,0-23.256,0-23.256,0s0,16.217,0,23.255
			c0,12.843,10.412,23.256,23.256,23.256c6.421,0,23.255,0,23.255,0S51.381,32.707,51.381,26.285z"/>
	</g>
	<g>
		<g>
			<path fill="#FFFFFF" d="M55.527,27.166l2.826-2.317c1.056-0.873,1.468-1.334,1.468-2.038c0-0.716-0.473-1.104-1.141-1.104
				c-0.654,0-1.104,0.363-1.734,1.14l-1.311-1.055c0.838-1.141,1.65-1.76,3.167-1.76c1.759,0,2.923,1.031,2.923,2.621v0.023
				c0,1.42-0.728,2.123-2.231,3.288l-1.383,1.067h3.699v1.613h-6.283V27.166z"/>
			<path fill="#FFFFFF" d="M62.704,27.518l1.128-1.347c0.644,0.582,1.274,0.922,2.026,0.922c0.873,0,1.419-0.425,1.419-1.177v-0.024
				c0-0.728-0.618-1.152-1.504-1.152c-0.534,0-1.02,0.146-1.419,0.315l-1.08-0.716l0.242-4.185h5.217v1.638h-3.615l-0.097,1.468
				c0.34-0.085,0.643-0.146,1.116-0.146c1.649,0,2.972,0.8,2.972,2.717v0.024c0,1.795-1.273,2.936-3.227,2.936
				C64.523,28.791,63.529,28.306,62.704,27.518z"/>
			<path fill="#FFFFFF" d="M73.385,25.406v-0.023c0-2.172,1.419-3.36,2.96-3.36c0.982,0,1.589,0.448,2.025,0.97V19.79h1.844v8.855
				H78.37v-0.934c-0.449,0.606-1.067,1.055-2.025,1.055C74.829,28.767,73.385,27.578,73.385,25.406z M78.395,25.406v-0.023
				c0-1.08-0.716-1.796-1.577-1.796s-1.589,0.704-1.589,1.796v0.023c0,1.08,0.728,1.796,1.589,1.796S78.395,26.486,78.395,25.406z"
				/>
			<path fill="#FFFFFF" d="M81.242,25.431v-0.024c0-1.855,1.322-3.384,3.215-3.384c2.171,0,3.166,1.686,3.166,3.529
				c0,0.146-0.013,0.315-0.024,0.485h-4.525c0.183,0.837,0.765,1.274,1.59,1.274c0.618,0,1.067-0.194,1.577-0.668l1.055,0.935
				c-0.606,0.752-1.479,1.213-2.656,1.213C82.685,28.791,81.242,27.42,81.242,25.431z M85.827,24.885
				c-0.109-0.824-0.594-1.383-1.37-1.383c-0.765,0-1.262,0.546-1.407,1.383H85.827z"/>
			<path fill="#FFFFFF" d="M55.951,34.703h2.014l2.232,3.591l2.232-3.591h2.014v8.491h-1.856V37.65l-2.39,3.627h-0.049l-2.365-3.591
				v5.508h-1.832C55.951,43.194,55.951,34.703,55.951,34.703z"/>
			<path fill="#FFFFFF" d="M65.589,41.326v-0.024c0-1.419,1.08-2.074,2.62-2.074c0.655,0,1.129,0.109,1.59,0.267v-0.108
				c0-0.765-0.474-1.189-1.396-1.189c-0.703,0-1.201,0.134-1.795,0.352l-0.461-1.407c0.715-0.314,1.419-0.521,2.522-0.521
				c1.007,0,1.735,0.268,2.196,0.729c0.485,0.485,0.703,1.2,0.703,2.074v3.772h-1.783v-0.703c-0.448,0.497-1.067,0.824-1.965,0.824
				C66.596,43.315,65.589,42.612,65.589,41.326z M69.823,40.901v-0.327c-0.315-0.146-0.728-0.243-1.177-0.243
				c-0.788,0-1.273,0.315-1.273,0.898v0.023c0,0.498,0.413,0.789,1.007,0.789C69.241,42.042,69.823,41.568,69.823,40.901z"/>
			<path fill="#FFFFFF" d="M72.853,36.692h1.844v1.31c0.376-0.897,0.982-1.479,2.074-1.431V38.5h-0.097
				c-1.226,0-1.978,0.739-1.978,2.292v2.402h-1.844L72.853,36.692L72.853,36.692z"/>
			<path fill="#FFFFFF" d="M78.661,44.65l0.995-1.456c-1.407-0.412-2.354-1.698-2.354-3.215v-0.024c0-1.855,1.419-3.384,3.408-3.384
				c1.226,0,1.989,0.412,2.597,1.092l-1.129,1.213c-0.412-0.437-0.824-0.716-1.479-0.716c-0.922,0-1.577,0.812-1.577,1.771v0.023
				c0,0.995,0.643,1.796,1.649,1.796c0.619,0,1.044-0.267,1.492-0.691l1.08,1.092c-0.582,0.643-1.237,1.104-2.354,1.177
				l-0.788,1.965L78.661,44.65z"/>
			<path fill="#FFFFFF" d="M83.922,39.979v-0.024c0-1.868,1.504-3.384,3.529-3.384c2.015,0,3.506,1.492,3.506,3.36v0.023
				c0,1.868-1.504,3.385-3.529,3.385C85.415,43.34,83.922,41.848,83.922,39.979z M89.138,39.979v-0.024
				c0-0.958-0.691-1.795-1.71-1.795c-1.056,0-1.687,0.812-1.687,1.771v0.023c0,0.959,0.691,1.796,1.71,1.796
				C88.507,41.751,89.138,40.938,89.138,39.979z"/>
		</g>
	</g>
	<g>
		<path fill="#EDA53A" d="M48.619,25.958c0-11.395-9.239-20.634-20.634-20.634c-5.151,0-20.634,0-20.634,0s0,14.388,0,20.634
			c0,11.396,9.238,20.634,20.634,20.634c5.697,0,20.634,0,20.634,0S48.619,31.656,48.619,25.958z"/>
	</g>
	<g>
		<g enable-background="new    ">
			<path fill="#FFFFFF" d="M10.681,32.271l6.979-6.359c2.606-2.397,3.625-3.662,3.625-5.593c0-1.964-1.168-3.03-2.816-3.03
				c-1.617,0-2.726,0.999-4.283,3.129l-3.235-2.896c2.067-3.13,4.074-4.828,7.818-4.828c4.343,0,7.218,2.83,7.218,7.191v0.067
				c0,3.896-1.797,5.827-5.511,9.023l-3.415,2.93h9.136v4.428H10.681V32.271z"/>
			<path fill="#FFFFFF" d="M29.162,33.238l2.786-3.696c1.587,1.599,3.145,2.53,5.002,2.53c2.157,0,3.504-1.166,3.504-3.229v-0.067
				c0-1.997-1.527-3.162-3.714-3.162c-1.318,0-2.516,0.399-3.504,0.865l-2.666-1.964l0.599-11.486h12.88v4.495h-8.926l-0.24,4.029
				c0.839-0.233,1.588-0.4,2.756-0.4c4.074,0,7.338,2.198,7.338,7.458v0.066c0,4.928-3.145,8.058-7.967,8.058
				C33.655,36.733,31.199,35.402,29.162,33.238z"/>
		</g>
	</g>
</g>
</svg>
