<svg id="Layer_1" xmlns="http://www.w3.org/2000/svg" width="281.1" height="71.8" viewBox="0 0 281.1 71.8"><style>.st0{fill:#231F20;} .st1{fill:#EB1C24;} .st2{fill-rule:evenodd;clip-rule:evenodd;fill:#231F20;} .st3{fill-rule:evenodd;clip-rule:evenodd;fill:#00A451;} .st4{fill-rule:evenodd;clip-rule:evenodd;fill:#EB1C24;} .st5{fill-rule:evenodd;clip-rule:evenodd;fill:#CFD1D2;} .st6{fill-rule:evenodd;clip-rule:evenodd;fill:#FFFFFF;} .st7{fill-rule:evenodd;clip-rule:evenodd;fill:#FFD200;} .st8{fill:#5E5E5E;}</style><path class="st0" d="M10.1 22c-.2-.4-.7-.5-1.5-.5H7.2c-.7 0-1.3.1-1.5.5L.1 38.6c0 .2-.1.3-.1.5 0 .4.5.6 1.6.6h1c.6 0 1.1-.2 1.2-.5l1-3.1h5l-1-3.4H5.9l1.5-4.6c.2-.4.4-1.6.4-1.6h.1s.3 1.3.4 1.6l3.6 11.1c.1.4.7.5 1.4.5h1.1c.9 0 1.3-.2 1.3-.6 0-.1 0-.3-.1-.5L10.1 22zM46 36.2h-6.5V32h5.8c.5 0 .8-.4.8-1.3v-.8c0-.9-.2-1.3-.8-1.3h-5.8v-3.7H46c.5 0 .8-.4.8-1.3v-.8c0-.9-.2-1.3-.8-1.3h-9.4c-.7 0-1 .3-1 1v16c0 .7.3 1 1 1H46c.5 0 .8-.4.8-1.3v-.8c0-.8-.3-1.2-.8-1.2"/><path class="st1" d="M54.2 26.2c0-.6.4-1.5 2.4-1.5 1.7 0 2.5.6 2.9.6.6 0 1.4-1.5 1.4-2.2 0-.9-1.9-1.8-4.6-1.8-3 0-6.1 1.5-6.1 5.3 0 6.1 7.5 4.9 7.5 7.9 0 1.5-1.3 1.9-2.4 1.9-2.1 0-3.3-1.2-3.8-1.2s-1.6 1.5-1.6 2.3c0 .9 2.1 2.3 6.1 2.3 2.8 0 5.8-1.4 5.8-5.7-.2-6.1-7.6-4.9-7.6-7.9M96.3 21.5H95c-.7 0-1.3.2-1.6.7l-4.6 8.1-4.5-8.1c-.3-.5-.9-.7-1.6-.7h-1.4c-1.1 0-1.5.3-1.5.8v16.5c0 .5.5.8 1.5.8h.7c1.1 0 1.5-.3 1.5-.8V28.1h.1l3.7 6.7c.2.3.5.5 1 .5h.7c.5 0 .8-.2 1-.5l3.7-6.7h.1v10.7c0 .5.5.8 1.5.8h.7c1.1 0 1.5-.3 1.5-.8V22.3c.3-.6-.1-.8-1.2-.8M77.8 38.6L72.1 22c-.2-.4-.7-.5-1.5-.5h-1.3c-.7 0-1.3.1-1.5.5l-5.7 16.6c-.1.2-.1.3-.1.5 0 .4.5.6 1.6.6h1c.6 0 1.1-.2 1.2-.5l1-3.1h5l-1-3.4H68l1.5-4.6c.2-.4.4-1.6.4-1.6h.1s.3 1.3.4 1.6l3.6 11c.1.4.7.5 1.4.5h1.1c.9 0 1.3-.2 1.3-.6.1-.1.1-.2 0-.4M130.1 38.6L124.4 22c-.2-.4-.7-.5-1.5-.5h-1.3c-.7 0-1.3.1-1.5.5l-5.7 16.6c-.1.2-.1.3-.1.5 0 .4.5.6 1.6.6h1c.6 0 1.1-.2 1.2-.5l1-3.1h5l-1-3.4h-2.8l1.5-4.6c.2-.4.4-1.6.4-1.6h.1s.3 1.3.4 1.6l3.6 11.1c.1.4.7.5 1.4.5h1.1c.9 0 1.3-.2 1.3-.6v-.5"/><path class="st0" d="M24.4 21.5h-5.8c-.7 0-1 .3-1 1v16c0 .7.3 1 1 1h3V24.8h2.8c2.8 0 4.2 2 4.2 5.6 0 3.7-1.4 5.6-4.2 5.6h-1.7v3.4h1.7c5.3 0 8.3-3.2 8.3-9s-3-8.9-8.3-8.9"/><path class="st1" d="M107.8 21.5h-5.4c-.7 0-1 .3-1 1v16.2c0 .5.5.8 1.5.8h.9c1.1 0 1.5-.3 1.5-.8V24.9h2.3c1 0 2.2.4 2.2 2.3s-1.3 2.2-2.2 2.2h-1.2v3.4h1.6c1.4 0 5.9-.7 5.9-5.6.1-5-3.8-5.7-6.1-5.7M141.1 0h.4v71.8h-.4z"/><path class="st0" d="M157.2 3h-2v1.9h2.2v.6h-2.9V.3h2.8v.6h-2.1v1.6h2V3zM158.3 2.7v-1h.6v.6c.2-.4.6-.7 1.2-.7.5 0 .9.3 1 .7.1-.2.3-.4.4-.5.2-.2.5-.3.8-.3.5 0 1.2.3 1.2 1.6v2.2h-.7V3.4c0-.7-.3-1.1-.8-1.1-.4 0-.7.3-.8.6 0 .1-.1.2-.1.3v2.3h-.7V3.2c0-.6-.3-1-.8-1-.4 0-.7.3-.8.7 0 .1-.1.2-.1.3v2.2h-.7V2.7zM168.9 5.3c-.2.1-.6.2-1.1.2-1.1 0-1.8-.8-1.8-1.9 0-1.1.8-2 2-2 .4 0 .7.1.9.2l-.2.5c-.2-.1-.4-.2-.8-.2-.8 0-1.3.6-1.3 1.4 0 .9.6 1.4 1.3 1.4.4 0 .6-.1.8-.2l.2.6zM173 3.6c0 1.4-.9 2-1.8 2-1 0-1.8-.7-1.8-1.9s.8-2 1.8-2c1.1 0 1.8.7 1.8 1.9zm-2.9 0c0 .8.5 1.4 1.1 1.4.6 0 1.1-.6 1.1-1.4 0-.6-.3-1.4-1.1-1.4s-1.1.7-1.1 1.4zM177.2 3.6c0 1.4-.9 2-1.8 2-1 0-1.8-.7-1.8-1.9s.8-2 1.8-2c1.1 0 1.8.7 1.8 1.9zm-2.9 0c0 .8.5 1.4 1.1 1.4.6 0 1.1-.6 1.1-1.4 0-.6-.3-1.4-1.1-1.4s-1.1.7-1.1 1.4zM178.1 3V1.8h.6v.6c.3-.5.7-.7 1.3-.7.9 0 1.6.8 1.6 1.9 0 1.3-.8 2-1.7 2-.5 0-.9-.2-1.1-.6v2h-.7V3zm.6.9v.3c.1.5.5.8 1 .8.7 0 1.1-.6 1.1-1.4 0-.7-.4-1.4-1.1-1.4-.5 0-.9.3-1 .8V3.9zM182.8 3.7c0 .9.6 1.3 1.3 1.3.5 0 .8-.1 1-.2l.1.5c-.2.1-.6.2-1.2.2-1.1 0-1.8-.7-1.8-1.9 0-1.1.7-2 1.7-2 1.2 0 1.5 1.1 1.5 1.7v.3h-2.6zm2-.5c0-.4-.2-1.1-.9-1.1s-1 .6-1 1.1h1.9zM186.3 2.9V1.7h.6v.7c.2-.5.6-.8 1-.8h.2v.6h-.2c-.5 0-.8.4-.9.9v2.3h-.7V2.9zM190.8 5.4l-.1-.4c-.2.3-.6.6-1.1.6-.7 0-1.1-.5-1.1-1.1 0-.9.8-1.4 2.2-1.4V3c0-.3-.1-.9-.8-.9-.3 0-.7.1-1 .3l-.2-.4c.3-.2.8-.3 1.2-.3 1.1 0 1.4.8 1.4 1.5v1.4c0 .3 0 .6.1.9h-.6zm-.1-1.8c-.7 0-1.6.1-1.6.8 0 .4.3.6.6.6.5 0 .8-.3.9-.6v-.8zM195 5.3c-.2.1-.5.2-1 .2l-.2.3c.3 0 .5.2.5.5 0 .5-.4.6-.8.6-.2 0-.4-.1-.5-.1l.1-.3c.1.1.3.1.4.1.2 0 .3-.1.3-.2 0-.2-.2-.3-.6-.3l.3-.6c-.9-.1-1.6-.8-1.6-1.9 0-1.1.8-2 2-2 .4 0 .7.1.9.2l-.2.5c-.2-.1-.4-.2-.8-.2-.8 0-1.3.6-1.3 1.4 0 .9.6 1.4 1.3 1.4.4 0 .6-.1.8-.2l.4.6zM197.9 5.4l-.1-.4c-.2.3-.6.6-1.1.6-.8 0-1.1-.5-1.1-1.1 0-.9.8-1.4 2.2-1.4V3c0-.3-.1-.9-.8-.9-.3 0-.7.1-1 .3l-.2-.4c.3-.2.7-.3 1.2-.3 1.1 0 1.4.8 1.4 1.5v1.4c0 .3 0 .6.1.9h-.6zm-1.8-4.3c0-.5.2-.8.5-.8.2 0 .3.1.5.2.1.1.2.1.3.1.1 0 .2-.1.2-.3h.4c0 .5-.2.8-.5.8-.2 0-.3-.1-.5-.2s-.2-.1-.3-.1c-.1 0-.2.1-.2.3h-.4zm1.7 2.5c-.7 0-1.6.1-1.6.8 0 .4.3.6.6.6.5 0 .8-.3.9-.6v-.8zM202.9 3.6c0 1.4-.9 2-1.8 2-1 0-1.8-.7-1.8-1.9s.8-2 1.8-2 1.8.7 1.8 1.9zm-3 0c0 .8.5 1.4 1.1 1.4.6 0 1.1-.6 1.1-1.4 0-.6-.3-1.4-1.1-1.4s-1.1.7-1.1 1.4z"/><path class="st2" d="M172.9 50.9h-.2c-.1-.1-.2-.1-.3-.2-.1 0-.1-.1-.2-.2l-.1-.1-.2-.2c-.1 0-.2-.1-.2-.1-.1 0-.1-.1-.2-.1h-.2l-.1-.1v-.2l-.1-.1-.1-.1-.1-.1-.3.3v.2s0 .1-.1.1h-.3c-.1.1-.2.1-.4.2s-.4.3-.6.4c-.1.1-.2.2-.4.2h-.2c-.2-.1-.2-.3-.2-.5 0-.1 0-.1.1-.2V50l.3-.3c.1 0 .2-.1.3-.1.2-.1.3-.2.5-.3.1-.1.2-.1.2-.2.1 0 .1.1.1.2l.1-.1c.1 0 .2-.1.3-.1-.1-.1-.2-.1-.3-.2-.1-.1-.2-.1-.3-.2h-.2c-.1.1-.1.1-.1.2-.1 0-.2 0-.3.1h-.1c-.2.1-.4.3-.6.4-.1 0-.2 0-.4.1-.1.1-.2.1-.3.2-.1 0-.2.1-.3.1-.2 0-.3.1-.4.1H166.4c-.2 0-.4-.1-.6-.1-.1-.1-.3-.1-.4-.2h-.2c-.1-.1-.2-.1-.4-.2-.1 0-.2-.1-.2-.1h-.5l-.1-.1c.1-.1.2-.1.3-.2l.3-.3c-.1 0-.2-.1-.3-.1-.5-.1-1-.3-1.5-.4H161.5c-.3 0-.5.1-.8.1v-.1c.1-.2.2-.4.4-.6.2-.2.4-.5.5-.7l-.3-.3-.3-.3-.3-.3c-.1 0-.1-.1-.2-.1.1 0 .1-.1.2-.1s.2 0 .2-.1c.4-.1.8-.1 1.1-.1V45c0-.1.1-.2.2-.3 0 0 .1 0 .1-.1.2-.1.3-.1.5-.2.1 0 .1 0 .2-.1v-.1-.1-.1c0-.2 0-.3.2-.4-.3 0-.6-.1-.9-.1h-.1s-.1 0-.1-.1c-.2-.2-.5-.3-.8-.5-.1-.1-.2-.1-.3-.2 0-.1-.1-.2-.2-.3-.1 0-.1-.1-.2-.1l-.3-.3c0-.1-.1-.1-.1-.2l-.1-.2c-.1-.2-.2-.4-.2-.6v-.3c0-.2-.1-.3-.1-.5v-.9c0-.3 0-.5.1-.8 0-.2-.2-.5-.1-.7h.2l.1.1c.1.1.1.2.2.3 0 0 0 .1.1.1.1.1.2.1.3.2v-.2c0-.2.2-.3.3-.4h.2c.1 0 .1 0 .2.1 0 0 0-.1.1-.1-.1-.1-.3-.2-.4-.4-.1 0-.1-.1-.1-.1-.1-.1-.1-.2-.2-.3-.2-.1-.3-.3-.4-.4 0-.1 0-.2-.1-.2 0-.1-.1-.1-.1-.2-.1-.1-.2-.2-.2-.3 0-.1-.1-.3-.1-.4v-.1c-.1-.2-.1-.4-.1-.6v-.5c0-.1 0-.2.1-.4.1-.1.1-.3.2-.5v-.3c0-.3 0-.5.1-.8.1-.1.1-.3.2-.4 0 0 0-.1.1-.1 0-.1.1-.1.1-.2 0-.2 0-.3.1-.5l.1-.1v.2c0 .1 0 .3.1.4 0 .1.1.1.2.2l.1.1.1.1.2.2c.1.1.1.2.2.3.1.3.2.5.2.8 0 0 0-.1.1-.1l.1-.1-.1-.1s0-.1-.1-.1v-.2c0-.1.1-.2.1-.3h-.1c-.1-.1-.2-.2-.2-.3v-.1c0-.1.1-.2.2-.3h.4s0-.1-.1-.1c-.1-.1-.1-.2-.2-.3-.1-.2-.2-.5-.2-.7 0-.3.1-.6.1-.9 0-.1.1-.2.1-.3v-.2l.3-.6c.1-.1.2-.3.2-.4l.2-.2.3-.3c.1.1.1.2.2.4 0 .2.1.3.2.5 0 .1 0 .2.1.2l.3-.3c.1-.1.2-.1.4-.2.1 0 .3-.1.4-.1l.1-.1v.3c0 .2 0 .4-.1.6h.3c-.1-.2 0-.3.1-.4v-.1c-.1-.2-.2-.5-.3-.7h-.1c-.1 0-.2-.1-.2-.2v.3c0-.1.1-.1.1-.2v-.1c-.1-.3-.3-.7-.4-1v-.1c-.1-.2-.2-.5-.3-.7 0-.1-.1-.1-.1-.2-.1-.1-.1-.3-.2-.4 0-.1-.1-.2-.1-.3-.1-.2-.1-.3-.2-.5 0 0 0-.1-.1-.1 0-.1-.1-.2-.1-.3-.1-.1-.2-.2-.3-.2l-.1-.1c0-.1-.1-.1-.1-.2-.1-.1-.1-.3-.1-.4.1-.1.2-.2.3-.2.1 0 .2-.1.3 0 0 .1.1.3.2.4.1 0 .2-.1.2-.1s.1 0 .1-.1-.1-.2-.1-.3c0-.2.1-.2.2-.2.2 0 .4-.1.5-.1.2.1.2.4.2.6v.5c.1.3.2.5.3.8.1 0 .1 0 .2-.1.1 0 .1 0 .2.1 0 .1.1.3.1.4.1 0 .1 0 .2-.1 0-.1-.1-.3-.1-.4 0-.2.2-.1.4-.2v-.6-.1c-.1-.2-.3-.3-.4-.4l-.2-.2c-.1-.1-.1-.2-.2-.3 0-.1 0-.2.1-.3.2-.1.4-.2.6-.2 0 .1.1.3.1.4.1 0 .4 0 .4-.1s-.1-.3 0-.4c0 0 .1 0 .1-.1.2 0 .4-.1.6-.1.2.1.2.3.2.4.1.1.4 0 .4 0s.1 0 .1-.1v-.4c.1-.2.4-.2.6-.2.1 0 .2 0 .2.1v.5c-.1.2-.2.4-.2.6 0 .2.1.5.2.7.1 0 .3-.1.4 0 .1 0 .1.1.1.1 0 .1 0 .2.1.4h.3v-.4c0-.1.1-.1.2-.1h.3c0-.2.1-.5.1-.7v-.1c-.1-.1-.1-.2-.2-.4 0 0 0-.1-.1-.1 0-.1-.1-.3-.1-.4 0-.3.5-.3.7-.2.1 0 .1 0 .1.1v.4h.4c.1-.2-.1-.4.1-.5.2-.1.4 0 .6 0h.1c.2.1.1.3.1.5h.5v-.1-.4c0-.1.1-.1.2-.1.2 0 .4 0 .6.1v.1s0 .1.1.1c0 .1-.1.3-.1.4l-.3.3c0 .1-.1.1-.1.2 0 0 0 .1-.1.1v.1c0 .2.1.5.1.7h.4c.1 0 .1.1.1.2v.3h.3c0-.1 0-.3.1-.4 0-.1 0-.1.1-.1h.4c.1-.2.1-.4.2-.7v-.3c-.1-.1-.1-.3-.2-.4v-.5c0-.1.1-.1.2-.1.2 0 .5 0 .6.2 0 .1-.1.3 0 .4.1 0 .3.1.4.1 0-.1 0-.2.1-.3.1-.1.1-.1.2-.1.2 0 .3.1.5.1.1 0 .2.1.2.3 0 .1-.1.2 0 .3.1.1.3.1.4.1.1 0 .1-.1.1-.1 0-.1 0-.3.1-.3.1-.1.3 0 .4 0 .1 0 .2.1.3.1 0 0 0 .1.1.1v.2c0 .1-.1.1-.1.2s-.1.1-.2.2c-.2.1-.4.3-.5.5 0 .2 0 .5-.1.7.1 0 .2 0 .3.1v.1c0 .1 0 .3-.1.4.1 0 .1 0 .2.1 0-.1.1-.2.1-.4 0-.1.1-.1.2-.1s.1 0 .2.1c.1-.3.2-.5.3-.8v-.1-.5c0-.2 0-.4.2-.6.2-.1.4 0 .5.1.1 0 .2.1.2.2s-.1.4-.1.4c.1 0 .1 0 .2.1.1 0 .2.1.2.1.1-.1.1-.3.2-.4.2-.1.5.1.6.3v.1c0 .1-.1.2-.1.3 0 .1-.1.1-.1.2-.1 0-.1.1-.2.1-.1.1-.2.2-.3.2-.5 1.3-1 2.5-1.5 3.8.1.1.1.2.1.4 0 .1-.1.1-.2.2h-.1c-.1.2-.2.5-.3.7.1.1.1.2 0 .4h.4c0-.2 0-.3-.1-.5v-.5c.1.1.2.1.3.2.1 0 .1 0 .2.1.2.1.4.2.5.3l.1.1c0-.1 0-.2.1-.2.1-.1.1-.2.2-.3v-.1c0-.1.1-.2.1-.3 0-.1.1-.2.1-.3.1 0 .1.1.2.1l.4.4c.1.1.2.3.2.4.1.2.2.4.3.5v.3c0 .1.1.1.1.2 0 .3.1.6.1.9-.1.2-.1.4-.2.7-.1.1-.2.3-.3.4h.2c.1 0 .2.1.2.1.1.1.1.2.2.3 0 .1 0 .2-.1.3l-.1.1c-.1 0-.1.1-.2.1l.1.1c0 .1.1.2 0 .4 0 .1-.1.1-.1.2.1.1.1.1.1.2.1-.3.1-.5.2-.8 0-.1.1-.2.1-.2 0-.1.1-.1.1-.2.1-.2.3-.3.5-.5v-.1c0-.2 0-.4.1-.6l.1.1v.1c0 .1 0 .3.1.4 0 0 0 .1.1.1v.1c.1.2.2.4.2.6 0 .2.1.5.1.7v.2c0 .2.1.3.2.5 0 .2.1.3.1.5v.8c0 .1-.1.2-.1.2 0 .2-.1.4-.2.6-.1.1-.2.2-.2.3v.1c0 .1 0 .2-.1.3l-.4.4-.1.1-.1.1c-.1 0-.1.1-.2.1s-.1.1-.2.1l-.3.3s0 .1.1.1c0 0 .1 0 .1-.1h.1c.2.1.3.2.4.4v.2c.1 0 .2-.1.2-.1l.2-.2c.1-.1.1-.2.2-.3l.2-.2h.1c.1.1 0 .2 0 .2 0 .2-.1.4-.1.5V40.4c-.1.2-.1.4-.1.6-.1.2-.1.4-.2.5-.1.1-.1.2-.2.4-.1.1-.1.1-.1.2l-.2.2v.1c-.1 0-.1.1-.2.1l-.1.1c0 .1 0 .1-.1.2l-.1.1-.1.1c-.2.1-.4.2-.7.4-.1.1-.2.1-.3.2-.1.1-.3.1-.4.1-.2 0-.5.1-.7.1l.1.1c0 .1.1.1.1.2v.4c.2.1.5.1.7.3l.1.1s0 .1.1.1v.1c.1.2.1.3 0 .5v.1h.9c.2 0 .5.1.7.2-.3.2-.5.4-.8.7 0 0-.3.2-.3.3.3.3.5.7.7 1 0 0 0 .1.1.1 0 .1.1.1.1.2v.1c-.2 0-.5-.1-.7-.1h-1.3c-.5.1-1 .2-1.5.4-.2 0-.4.1-.6.2.1.2.3.3.5.5.1.1.2.1.4.2 0 0-.1.1-.1.2h-.5l-.6.3h-.3c-.1 0-.3.1-.4.2h-.2c-.2 0-.4.1-.6.1-.2 0-.4.1-.6 0-.1 0-.2-.1-.2-.1-.2 0-.4-.1-.5-.1-.1-.1-.2-.2-.3-.2-.1 0-.3-.1-.4-.1-.1 0-.2-.1-.2-.1-.1-.1-.2-.1-.3-.2 0-.1-.1-.1-.2-.1 0 0-.1 0-.1-.1h-.1c-.1-.1-.3-.2-.4-.3h-.1s-.1.1-.2.1l-.1.1c-.1.1-.2.1-.3.2.1.1.2.1.3.2l.1.1c0-.1 0-.1.1-.2.1 0 .2.1.2.2l.1.1c.2.1.3.2.5.3.1 0 .1 0 .2.1.1 0 .2.1.2.1l.2.2c0 .1.1.2.1.2V51l-.1.1c.7-.2.6-.2.5-.2m-7.5-21.4c.2-.1.4-.1.6-.2.3-.1.6-.2 1-.3.3-.1.5-.1.8-.2.4-.1.9-.2 1.3-.2.5 0 .9-.1 1.4-.1h.7c.9 0 1.8.1 2.6.3.4.1 2.5.6 2.5.7h-10.9m10.3 15.6s0-.1.1-.1c0-.2 0-.5.1-.7.3-.3.5-.5.7-.8.1-.2.2-.4.4-.6 0-.1.1-.2.1-.3 0-.1.1-.2.1-.3.1.1.1.2.2.3 0 .1.1.3.1.4l.3.3s.1.1.1.2l-.1-.1-.2-.2h-.1-.1c-.1 0-.2.1-.3.2l-.2.2V43.9l-.1.1c-.2-.1-.3 0-.4 0-.1.1-.2.1-.2.3-.1.2 0 .4.2.5-.2 0-.5.1-.7.3m-5.2 1.3c-.4 0-.9-.1-1.3-.1 0-.2.1-.3 0-.5.1 0 .2.1.3.1.2 0 .4.1.6.1.5.1.9.1 1.4.1.3 0 .7-.1 1-.1v.3c-.5.1-.9.1-1.4.1h-.6m-4.6-1.3c-.1-.1-.2-.1-.3-.2-.1-.1-.2-.1-.3-.2h.2c.1-.1.1-.2.1-.3v-.2c0-.2-.2-.3-.3-.4H165l-.1-.1v-.2c-.1-.2-.2-.4-.5-.5h-.2c-.1 0-.2.1-.3.2 0 0 0 .1-.1.1 0-.1.1-.1.1-.2.1-.1.2-.1.2-.2s.1-.3.1-.4c.1-.2.2-.3.3-.5l.6.9c.2.2.3.4.5.6v.3c0 .2.1.4.1.6 0 .3 0 .4.2.7-.1-.1 0-.1 0 0m4.9 3.8c-.1 0-.1-.1-.2-.1h.3s0 .1-.1.1m-8.7-9.3l.1-.1c.1-.1.1-.2.1-.3 0-.1 0-.2-.1-.3h.2c.2 0 .4-.2.4-.4 0-.1 0-.2-.1-.3l-.1-.1s-.1 0-.1-.1c-.2-.1-.3 0-.5.1l-.1-.1c0-.1.1-.1.2-.2l.1-.1c.1 0 .2-.1.3-.1.2-.1.5-.3.7-.4.1-.1.1-.2.2-.3.1-.1.2-.2.4-.3v1l-.3.3c-.1.2-.1.3-.2.5l-.3.3v.5c0 .1-.1.1-.1.2 0 0 0-.1-.1-.1-.1-.1-.2-.1-.3-.1l-.2.2c-.1.2-.1.2-.2.2m-.8-.5c-.1-.1-.1-.1-.2-.1 0 0 .1 0 .1-.1 0 0 .1 0 .1-.1 0 0 .1 0 .1.1 0 0 0 .1-.1.1v.1m1.3-5.3s-.1 0 0 0l-.1-.1s-.1 0-.1-.1h-.3v-.1h.1l.1-.1c0-.1.1-.1.1-.1.1.1.2.2.3.2h.2c-.2.1-.2.2-.3.3m.7-.7c0-.2-.1-.3-.2-.4l-.1-.1c0-.1-.1-.3-.2-.3.3 0 .6 0 .8-.1.1 0 .1-.1.2-.2v.7c-.2.1-.4.3-.5.4m16.4 6.8s0-.1-.1-.1h.2l-.1.1m.7-.7c0-.1 0-.2-.1-.2h.1l.1.1.1.1c-.1-.1-.1-.1-.2 0m-.8.5h-.1c0-.1-.1-.2-.2-.2h-.1c-.1 0-.2.1-.2.2 0-.1-.1-.2-.1-.2v-.4c0-.1-.1-.1-.2-.2s-.2-.2-.2-.3c0 0 0-.1-.1-.1 0-.1-.1-.2-.1-.3l-.2-.2v-1c.1 0 .1.1.2.1.1.1.1.2.2.3.1.1.2.1.3.2.2.1.3.2.5.3.1 0 .2.1.3.1l.3.3s0 .1-.1.1c-.1-.1-.1-.1-.2-.1s-.3 0-.4.1c-.1.1-.1.2-.2.3v.1c0 .2.2.3.4.4h.2s0 .1-.1.1v.1c-.1 0-.1.1.1.3-.1 0-.1 0 0 0m-.5-5.9c-.1-.1-.2-.2-.2-.3h.2l.1-.1.1-.1c0 .1.1.2.3.3v.1h-.3c-.1 0-.1 0-.2.1m-.7-.6c0-.1 0-.1 0 0-.2-.1-.3-.2-.4-.3v-.7c.1 0 .1.1.2.1s.2 0 .3.1h.4l-.2.2v.1l-.3.3v.2"/><path class="st3" d="M172.9 50.8c-.2-.1-.3-.3-.4-.4v-.2c0-.1 0-.1.1-.2.1 0 .1 0 .2.1s.2.2.4.3c.1.1.1.4 0 .5-.2-.1-.3-.1-.3-.1M168.7 50.8c0-.1-.1-.1 0 0-.2-.2-.1-.3-.1-.5l.1-.1.2-.2.1-.1h.2l.1.1c0 .1 0 .3-.1.4-.1.1-.1.2-.2.3 0 0-.1 0-.1.1h-.2"/><path class="st2" d="M172.9 50.7l-.1-.1-.2-.2v-.2h.2l.1.1.1.1c0 .1.2.2.1.3h-.2M168.8 50.7h-.1v-.1-.1c.1-.2.2-.3.3-.4h.1c.1.1.1.1.1.2s-.1.2-.2.3c-.1 0-.2 0-.2.1"/><path class="st3" d="M172.9 50.6c-.1-.1-.3-.3-.3-.4.2 0 .3.2.3.4.1 0 .1 0 0 0M168.7 50.6c-.1 0 .1-.3.2-.4h.1v.1s-.1.2-.3.3M172.4 50.4c-.2-.2-.4-.3-.6-.4-.1 0-.2-.1-.3-.1h-.2v-.2l-.2-.2c-.1-.1-.1-.1-.2-.1 0 0 .1-.1.2-.1s.1.1.2.1.1 0 .2.1c.1 0 .1.1.2.1 0 0 .1-.1.1-.2l.1.1c.1.1.2.2.4.2l.1.1c0 .1 0 .1-.1.2 0 .2 0 .3.1.4M169.3 50.4c0-.1.1-.3 0-.5 0 0 0-.1-.1-.1.1-.1.3-.2.4-.3l.2-.2v.1c.1 0 .1-.1.2-.1s.1-.1.2-.1.1-.1.2-.1c.2-.1.3-.3.5-.4.1 0 .1-.1.2-.1h.5c-.1 0-.1.1-.2.1-.2.1-.4.2-.5.3-.2.1-.4.3-.6.5v.2h-.2c-.3.3-.6.5-.8.7M174.8 50c-.1 0-.1-.1-.2-.1-.2-.1-.3-.3-.4-.4-.1-.1-.2-.3-.3-.4 0 0-.1-.1-.1-.2.1 0 .3.1.4.1l.4.4c.1.2.2.3.4.5l.1.1h-.3M174.5 50c-.1 0-.3-.1-.4-.1-.1 0-.2-.1-.3-.2-.1-.2-.2-.4-.3-.5-.1-.1-.2-.3-.3-.4.2.1.3.1.5.2.2.3.3.5.5.8l.2.2c-.1-.2 0-.1.1 0 0-.1 0-.1 0 0M175.3 49.9c-.1-.1-.2-.1-.2-.2l-.1-.1c-.1-.1-.2-.2-.2-.3l-.3-.3c.2 0 .4.1.6.2l.1.1c.2.2.4.4.6.5-.2.1-.3.1-.5.1"/><path class="st3" d="M175.9 49.8c-.1 0-.1-.1-.2-.1 0 0-.1 0-.1-.1l-.4-.4h.2c.1 0 .2.1.3.1 0 .1.2.2.3.2.1 0 .1.1.2.1-.1.1-.2.2-.3.2M166.9 49.8c-.1 0-.2 0-.2-.1l.1-.1c.1-.1.2-.3.4-.5.1-.1.2-.2.4-.3.1 0 .3 0 .4-.1l-.3.3-.1.1s-.1.1-.1.2l-.2.2-.1.1c-.1.1-.2.2-.3.2.1 0 0 0 0 0M166.5 49.7c-.1 0-.3 0-.4-.1l.6-.6c.1 0 .3-.1.4-.1h.2l-.3.3c-.1.1-.2.2-.2.3-.2.1-.2.2-.3.2"/><path class="st3" d="M176.5 49.7c-.1 0-.2-.1-.3-.1-.1 0-.1-.1-.2-.1l-.1-.1h.5c.1.1.1.1.2.1s.1 0 .2.1l-.3.1M167.4 49.7c.1-.1.2-.3.3-.4.1-.2.3-.4.4-.6.1 0 .1-.1.2-.1h.2c-.1.1-.2.3-.3.4-.1 0-.1.2-.1.2-.1.1-.2.3-.3.3-.2.1-.3.2-.4.2M173.6 49.6c-.1 0-.3-.1-.4-.1v-.1c0-.1 0-.2-.1-.3 0 0-.1-.1-.1-.2l-.1-.1-.1-.1-.1-.1h.3c.1.1.1.2.2.2.1.2.3.4.4.5v.3M165.9 49.6c-.1 0-.2-.1-.3-.1.1-.1.3-.2.4-.3v-.1c.1 0 .2-.1.3-.1h.2c-.1.1-.1.2-.2.2-.1.2-.3.4-.4.4M176.9 49.5c-.1-.1-.2-.1-.3-.1h.5s.2 0 .2.1h-.2c-.1-.1-.1-.1-.2 0M165.2 49.5c-.1 0-.1-.1-.2-.1 0 0 .1 0 .1-.1l.1-.1h.5l-.2.2c-.1 0-.2.1-.2.1 0-.1-.1-.1-.1 0M173.1 49.4c-.1 0-.1 0 0 0-.4-.3-.7-.5-1-.7h.4c.1.2.3.4.4.5l.2.2M168.1 49.4l.1-.1c.1-.2.3-.4.4-.6h.3c-.1 0-.1.1-.2.2l-.1.1v.2l-.1.1c-.1 0-.3 0-.4.1M164.9 49.2c-.1 0-.2-.1-.3-.1h.5c-.1.1-.2.1-.2.1M177.3 49.2c-.1-.1-.3 0-.5 0h-.1s.1 0 .1-.1c0 0 .2-.2.2-.1.1.1.3.2.3.2M176.3 49.2h-.2c.1 0 .1-.1.2-.1.2-.1.3-.3.5-.4h.1c0 .1.1.1.1.2h-.1c-.1.1-.2.2-.3.2h-.1c-.1.1-.2.1-.2.1M175.8 49.2c-.1 0-.2-.1-.3-.1 0-.1 0-.2.1-.2h.4c.1 0 .6-.2.7-.2-.2.1-.3.2-.5.4-.2 0-.3.1-.4.1M168.7 49.2v-.1c.1-.1.2-.2.3-.4h.4l-.1.1c-.1 0-.2 0-.3.1l-.3.3M170.5 49.2c-.2-.1-.4-.2-.5-.4h.5c.1.1.2.1.2.2l-.2.2M175.1 49.1c-.1 0-.3-.1-.4-.1.2-.1.3-.1.5-.2.1.1.2.1.2.1 0 .1-.1.2-.1.2h-.2M164.3 49.1c.1 0 .1 0 .1-.1.1-.1.1-.2.2-.2s.2.2.3.2h-.4s-.1 0-.2.1M165.8 49c-.1 0-.2-.1-.2-.2v-.1c.1 0 .2 0 .3.1h.2c0 .2-.2.2-.3.2M165.2 49c-.1 0-.2-.1-.2-.1-.1-.1-.2-.1-.3-.2 0 0 0-.1.1-.1.2 0 .4.1.6.1l.1.1.1.1c-.1.1-.3.1-.4.1M174.4 48.9c-.1 0-.2 0-.3-.1l.9-.3v.1c-.1 0-.2.1-.3.1-.1 0-.2.1-.2.1 0 .1 0 .1-.1.1M166.3 48.9c0-.1.1-.1.1-.2 0 0 0-.1.1-.1h.1c.1 0 .2.1.3.1-.1 0-.2.1-.3.1-.1.1-.2.1-.3.1M173.9 48.8c-.2 0-.4-.1-.6-.2l1.2-.3c.2-.1.3-.1.5-.2 0 .1.1.2.1.2-.4.3-.8.4-1.2.5z"/><path class="st4" d="M165.9 48.8l-1.5-.3c-.5-.2-1.1-.3-1.7-.4h-.9c-.3 0-.6.1-.9.1.1-.2.2-.3.3-.5.2-.2.3-.4.5-.6 0-.1.1-.1.1-.2s-.2-.1-.2-.2l-.5-.5c-.1-.1-.2-.1-.3-.2.1 0 .1 0 .2-.1.4-.1.8-.1 1.1-.1 0 .2.1.3.1.5 0 .4 0 .8.2 1.2 0 .1 0 .2.1.3h.4c1.1-.1 2.6-.3 3.4.7 0 .1.1.1 0 .2 0 .1-.2.1-.4.1"/><path class="st3" d="M167.2 48.8c-.2-.1-.4-.1-.6-.2 0-.1 0-.2.1-.3h.1c.1 0 .1.1.2.1.2.1.4.3.7.4h-.5"/><path class="st4" d="M175.5 48.8c-.1 0-.3-.1-.3-.3.1-.2.2-.3.4-.4 0 0 .1 0 .1-.1.2-.2.5-.3.8-.3H177.4c.4 0 .9.1 1.3.1h.2c.1 0 .2-.1.3-.2v-.1c0-.2.1-.4.1-.5v-.3-.5c0-.2 0-.3.1-.5.4 0 .8 0 1.1.1.1 0 .1 0 .2.1-.2.1-.3.3-.4.4l-.5.5c0 .1.1.1.1.2.2.2.3.4.5.7 0 .1.1.1.1.2.1.1.1.2.2.3-.2 0-.4-.1-.5-.1h-1.1c-.6.1-1.2.3-1.8.4-.5.1-1.1.3-1.7.4 0-.1 0-.1-.1-.1"/><path class="st3" d="M167.8 48.7c-.1 0-.3-.1-.4-.2-.1 0-.2-.1-.3-.1-.1-.1-.1-.1-.2-.1.2.1.4.1.6.2.2 0 .4.1.7.1-.1 0-.1.1-.2.1h-.2"/><path class="st4" d="M170.6 48.7h-.8c-.7 0-1.4-.1-2.1-.3l-1.2-.3c-.1 0-.2-.1-.2-.1-.7-.3-1.3-.6-1.9-1-.2-.1-.4-.2-.6-.2h-.5c-.3.1-.5.2-.7.4l-.1.1v-.2c0-.1 0-.2-.1-.4v-.6c0-.3-.1-.5-.1-.8v-.2c0-.1.1-.2.1-.4l.1-.1s.1 0 .1-.1c.1 0 .2-.1.2-.1.2 0 .3-.1.5-.1h.8c.4.1.8.2 1.2.4.5.3 1 .6 1.5.8.1.1.3.1.4.2.2.1.3.1.5.2.4.1.7.2 1.1.3.2 0 .4.1.6.1.5 0 1 .1 1.5.1.4 0 .7 0 1.1-.1.5-.1 1-.1 1.4-.3.6-.2 1.1-.3 1.6-.6s1-.5 1.5-.8c.1-.1.3-.1.4-.2.1 0 .2-.1.3-.1.1 0 .2 0 .4-.1h.5c.3 0 .7.1 1 .3.1 0 .1.1.2.1 0 0 0 .1.1.1 0 .1.1.2.1.3v.4c0 .2-.1.4-.1.6 0 .4 0 .7-.1 1.1-.2-.2-.4-.3-.6-.4h-.5c-.1 0-.3 0-.4.1-.1 0-.2.1-.3.1-.4.2-.8.4-1.2.7-.1.1-.3.1-.4.2-.1.1-.3.1-.4.2-.3.1-.6.2-1 .3-.3.1-.5.1-.8.2-.2 0-.4.1-.5.1-.4.1-.8.1-1.3.1h-1.3"/><path class="st4" d="M166.5 48.4c0-.1-.1-.1 0 0l-.2-.2c-.1-.1-.2-.1-.2-.2.2.1.3.1.5.2-.1 0-.1 0-.1.2 0-.1 0-.1 0 0M175.2 48.4c0-.1 0-.1-.1-.2.2-.1.3-.1.5-.2-.1.1-.2.1-.3.2 0 0-.1.1-.1.2"/><path class="st2" d="M170.2 48.3h-.2c-.1 0-.2-.1-.3-.2l-.1-.1v-.1c0-.3 0-.6.2-.8.1-.1.2-.1.3-.1h.1c.2 0 .3 0 .4.1l.2.2s.1.1 0 .2c-.1 0-.3 0-.4.1 0-.1 0-.1-.1-.2-.3-.1-.3.3-.3.5.1.1.2.1.2.1l.1-.1v-.1c.1 0 .3.1.4.1 0 0-.1.2-.1.3l-.1.1s-.1 0-.1.1h-.1c0-.1-.1-.1-.1-.1M171.4 48.3c-.1 0-.2-.1-.3-.1 0 0-.1 0-.1-.1s-.1-.1-.1-.1c-.1-.2-.1-.4 0-.5.1-.3.3-.4.6-.4h.2c.2 0 .3.1.4.2.1.1.1.3.2.4v.2c0 .1-.1.3-.2.4 0 0-.1 0-.1.1-.3-.1-.4-.1-.6-.1M169 48.2c-.1 0-.3-.1-.4-.1-.1-.5-.2-.9-.2-1.4.2 0 .3.1.5.1 0 .2.1.5.1.7.1-.2.2-.4.3-.7.1 0 .3 0 .4.1-.2.5-.4.9-.7 1.3z"/><path class="st5" d="M170.1 48.2c-.2 0-.3-.1-.3-.1s0-.1-.1-.1c0-.1-.1-.1-.1-.2v-.2c0-.1 0-.2.1-.3l.1-.1s.1-.1.2-.1h.4c.2.1.2.1.3.3h-.2c0-.1-.1-.1-.2-.2-.1 0-.2 0-.3.1v.1c0 .2-.1.4 0 .5l.1.1h.2c.1 0 .1 0 .2-.1v-.1c.1 0 .1 0 .2.1 0 .1-.1.2-.2.2-.1.1-.2.1-.4.1M171.4 48.2h-.1c-.1 0-.2-.1-.2-.2 0 0 0-.1-.1-.1-.1-.2-.1-.5.1-.7l.1-.1H171.5c.3 0 .4.2.4.4V47.8c0 .1-.1.2-.2.3 0 0-.1 0-.1.1h-.1-.1"/><path class="st2" d="M172.4 48.2l-.3-1.2c.3-.1.5-.1.8-.2h.2c.1 0 .1.1.2.1 0 0 0 .1.1.1v.2c0 .1-.1.2-.1.2l.1.1c.1.1.2.2.3.4-.2 0-.3.1-.5.1 0 0-.1 0-.1-.1 0 0-.1-.1-.1-.2l-.2-.2c0 .2.1.3.1.5-.2.1-.4.1-.5.2"/><path class="st5" d="M169 48.1c-.1 0-.2 0-.3-.1-.1-.4-.1-.8-.2-1.1h.2c0 .3.1.6.1.9h.1c.1-.3.2-.5.3-.8h.2c0 .4-.2.8-.4 1.1zM172.5 48c-.1-.4-.1-.7-.2-1.1.2 0 .4-.1.6-.1h.2c.1 0 .2.1.2.2v.1c0 .1-.1.2-.2.2v.1c.1 0 .1 0 .2.1s.1.2.2.2c-.1 0-.2.1-.3.1 0-.1-.1-.1-.1-.2l-.1-.1c0-.1-.2-.1-.3 0 0 .1.1.3.1.4-.2.1-.2.1-.3.1"/><path class="st2" d="M171.5 48c-.1 0-.1 0 0 0-.1 0-.1-.1-.1-.1-.1-.1-.1-.3-.1-.5 0-.1.1-.2.2-.2s.2 0 .3.1v.1c.1.2.1.5-.1.6h-.2"/><path class="st4" d="M171.5 47.9c-.1 0-.1-.1-.2-.2v-.3h.2c.1.1.1.3.1.4v.1h-.1"/><path class="st2" d="M167.8 47.9c-.3 0-.5-.1-.8-.2l.3-1.2h.1c.2.1.4.1.6.2.2.1.2.1.3.3V47.6c0 .1 0 .1-.1.2 0 .1-.1.1-.2.2 0 0-.1 0-.1.1 0-.2 0-.2-.1-.2"/><path class="st5" d="M167.8 47.8c-.2-.1-.4-.1-.6-.2.1-.4.2-.7.3-1.1.2.1.4.1.6.2.1.1.2.1.3.3 0 .2 0 .4-.1.6l-.1.1s-.1 0-.1.1h-.3"/><path class="st2" d="M174.2 47.8l-.3-.6c0-.1-.1-.2-.1-.2 0-.1 0-.1-.1-.2 0 0-.1-.1-.1-.2.2-.1.5-.2.7-.3H174.6c.2.1.3.3.3.5v.4l-.3.3c-.1.1-.2.1-.4.2.1 0 0 .1 0 .1"/><path class="st4" d="M165.5 47.7c-.1 0-.1 0-.2-.1-.2 0-.3-.1-.5-.1h-1.1c-.3 0-.6 0-.9.1-.1 0-.4-.1-.3-.3v-.1c.1-.1.2-.2.3-.2l.1-.1c.1 0 .1-.1.2-.1H164c.2.1.4.1.5.2.1 0 .2.1.3.1.1.1.2.1.3.2.1.2.2.3.4.4zM176.1 47.7c.3-.1.5-.3.8-.4.1-.1.2-.1.3-.2.2-.1.3-.1.5-.2h.7c.3.1.5.2.7.4V47.6s-.1.1-.2.1h-.1c-.9-.1-1.8-.3-2.7 0"/><path class="st5" d="M174.2 47.6c-.1-.3-.3-.7-.4-1 .1-.1.2-.1.3-.2.1 0 .1-.1.2-.1h.3l.1.1.1.1c.1.1.1.3.1.5v.2s0 .1-.1.1c-.1.1-.2.2-.3.2-.1 0-.2.1-.3.1"/><path class="st2" d="M167.7 47.6c-.1 0-.1 0-.2-.1.1-.2.1-.5.2-.7.1 0 .3.1.3.2V47.3c0 .1 0 .1-.1.2 0 0 0 .1-.2.1.1 0 0 0 0 0"/><path class="st4" d="M167.7 47.5h-.1c0-.2.1-.4.1-.5h.2v.4s-.1.1-.2.1"/><path class="st2" d="M166.5 47.5c-.1-.1-.3-.1-.4-.2 0-.2-.1-.4-.1-.6-.1.2-.1.3-.2.5-.1-.1-.3-.1-.4-.2.2-.4.3-.8.5-1.2.1 0 .2.1.4.2 0 .2.1.4.1.6.1-.2.1-.3.2-.5.1.1.2.1.4.2-.2.4-.3.8-.5 1.2M172.6 47.4c0-.1-.1-.2-.1-.3.1 0 .4-.1.4.1v.1c.1 0-.2.1-.3.1M174.4 47.4c0-.1-.1-.2-.1-.3-.1-.1-.1-.2-.2-.4.1 0 .1-.1.2-.1h.1c.1 0 .1.1.2.1 0 .1.1.1.1.2v.3c-.1.1-.2.1-.3.2"/><path class="st5" d="M166.5 47.3c-.1 0-.2-.1-.2-.1-.1-.3-.1-.5-.2-.8h-.1c-.1.2-.1.4-.2.5-.1 0-.2-.1-.2-.1.1-.3.3-.7.4-1 .1 0 .2.1.2.1 0 .3.1.5.2.8h.1c.1-.2.2-.4.2-.6.1 0 .1.1.2.1-.2.5-.3.8-.4 1.1"/><path class="st4" d="M172.7 47.3v-.1h.2v.1c-.1-.1-.2 0-.2 0M174.4 47.2c-.1-.2-.1-.3-.2-.5.1 0 .1-.1.2 0l.1.1c0 .1.1.1.1.2s.1.2 0 .2h-.2"/><path class="st2" d="M175.6 47.2l-.2-.2s0-.1-.1-.1l-.2-.2-.5-.5c.1-.1.3-.1.4-.2.1.2.3.4.5.5 0-.2-.1-.5-.1-.7.1-.1.3-.1.4-.2 0 .5.1.9.1 1.4 0 0-.1.1-.3.2"/><path class="st5" d="M175.7 47l-.3-.3-.1-.1-.3-.3-.1-.1c.1 0 .2-.1.2-.1.2.2.4.4.5.7h.1c0-.3-.1-.5-.1-.8.1 0 .2-.1.2-.1 0 .4.1.8.1 1.2-.1-.2-.1-.1-.2-.1"/><path class="st2" d="M165 46.7c-.1 0-.2-.1-.3-.1l-.3-.3v-.1-.2c0-.2.1-.4.2-.5l.1-.1c.1 0 .2-.1.2-.1h.2c.2 0 .4.1.5.3.1.1.1.2.1.3v.1c0 .1-.1.3-.1.4l-.1.1c-.1.1-.1.1-.2.1h-.1l-.2.1M176.6 46.6c-.1 0-.2-.1-.2-.1l-.1-.1c0-.1-.1-.1-.1-.2-.1-.2-.1-.4-.1-.6 0-.1.1-.2.2-.3.1 0 .1-.1.2-.1s.1 0 .2-.1h.2c.1 0 .2.1.3.2-.1.1-.2.2-.3.2 0 0-.1 0-.1-.1-.1-.1-.2 0-.2.1v.2c0 .1 0 .1.1.2l.1.1h.1s.1 0 .1-.1v-.2h.4v.2c0 .1 0 .2-.1.2l-.1.1c-.1 0-.1.1-.2.1s-.2.1-.3.1c0 .2-.1.2-.1.2"/><path class="st5" d="M165 46.6c-.1 0-.2-.1-.3-.1l-.1-.1-.1-.1v-.4-.1c.1-.2.2-.3.4-.3h.2c.1 0 .2.1.3.1.1.1.2.2.2.3v.1c0 .2-.1.3-.2.5h-.1-.1c-.1.1-.2.1-.2.1M176.6 46.5h-.1l-.3-.3c-.1-.2-.1-.3 0-.5v-.1l.2-.2c.2-.1.4-.1.6.1-.1 0-.1.1-.2.1-.1-.1-.2-.1-.3 0l-.2.2v.1c0 .1.1.3.2.4H176.8s.1 0 .1-.1c.1-.1.1-.2.1-.2h.2v.1c0 .1 0 .1-.1.2 0 .1-.2.1-.2.2-.1 0-.1 0-.2.1 0-.1-.1-.1-.1-.1"/><path class="st2" d="M164.9 46.4h-.1l-.1-.1s0-.1-.1-.1c0-.2 0-.4.2-.5.1 0 .1-.1.2-.1s.2.1.3.2v.2c0 .1-.1.2-.1.3 0 0-.1 0-.1.1h-.2M178 46.4h-.1c-.2 0-.3-.2-.4-.4-.1-.2-.1-.4.1-.6 0-.1.1-.1.1-.2l.1-.1c.2-.1.5-.1.7.1.1.1.1.2.2.3v.1c0 .2 0 .3-.1.5v.2l-.1.1c-.1.1-.2.1-.3.1-.1-.1-.2-.1-.2-.1M164.1 46.3c-.1 0-.2 0-.4-.1l-.3-.6c0 .2-.1.3-.1.5-.1 0-.3 0-.4-.1.1-.4.1-.9.2-1.3.1 0 .3 0 .4.1l.3.6c0-.2 0-.3.1-.5.1 0 .3 0 .4.1-.1.5-.1.9-.2 1.3z"/><path class="st4" d="M164.9 46.3c-.1 0-.1-.1-.2-.1v-.1c0-.1.1-.2.1-.4h.1c.1 0 .1.1.2.1v.2c0 .1-.1.2-.1.3h-.1"/><path class="st5" d="M178 46.3h-.2c-.1 0-.2-.1-.2-.2s-.1-.2-.1-.2c0-.2 0-.4.2-.5 0 0 .1 0 .1-.1.2-.1.5-.1.7.1.2.2.2.6 0 .8-.1.1-.2.1-.3.2-.1-.1-.2-.1-.2-.1M164 46.2h-.2c-.1-.2-.2-.5-.3-.7h-.1c0 .2-.1.4-.1.6h-.2c0-.4.1-.7.1-1.1h.3c.1.2.2.5.3.7h.1c0-.2.1-.4.1-.6h.2c-.1.4-.1.8-.2 1.1z"/><path class="st3" d="M169 46.2h-.2l.1-.1c.1-.1.1-.2.2-.4v.2c0 .1-.1.2-.1.3zM172.7 46.2V46h.1c-.1 0-.1.1-.1.2.1-.1.1 0 .1 0h-.1M172.9 46.2l-.1-.1V46c.1 0 .2 0 .3-.1 0 .1.1.1.1.2l.1.1c-.2-.1-.3-.1-.4 0"/><path class="st3" d="M168.7 46.2c-.1 0-.2-.1-.3-.1.2-.2.3-.3.4-.5.1 0 .2.1.2.1-.1.1-.1.2-.1.3 0 0 0 .1-.1.1s-.1 0-.1.1"/><path class="st2" d="M178 46.1c-.1 0-.2-.1-.2-.2v-.1c0-.2 0-.4.2-.5H178.3s0 .1.1.1c.1.2.1.4-.1.6h-.1c-.1.1-.1.1-.2.1"/><path class="st3" d="M173.4 46.1c-.1-.1-.2-.1-.2-.2.1 0 .2-.1.3-.1 0 .1.1.2.1.3 0-.1-.1-.1-.2 0M168.2 46c-.1 0-.2-.1-.2-.1 0-.1.1-.1.1-.2.1-.1.1-.3.2-.4.1 0 .2.1.3.1v.1c-.1.1-.1.2-.2.3 0 .1-.2.2-.2.2"/><path class="st4" d="M178 46c-.1 0-.1-.1-.1-.2s0-.3.1-.4h.1c.2 0 .2.3.1.5 0 .1-.1.1-.2.1"/><path class="st3" d="M173.8 45.9l-.1-.1v-.1c.1-.1.2-.1.4-.1V45.9h-.3M167.6 45.9c-.1 0-.2-.1-.3-.1-.3-.1-.5-.2-.8-.4-.1-.1-.3-.1-.4-.2 0-.1-.1-.1-.1-.2l-.1-.1c-.1-.1-.1-.3-.1-.4l.1.1.2.2c.1.1.3.2.4.2.2 0 .3.1.5.2 0 0 .1 0 .1.1l.1.1c.2.1.3.3.4.5M167.8 45.9s0-.1 0 0c-.1-.1-.1-.1-.1-.2v-.2c0-.1.1-.2.2-.3.1 0 .2.1.4.1-.1.1-.2.3-.3.4l-.2.2M174.2 45.8c.1-.1.1-.3.2-.4l.1-.1c.2-.1.3-.1.5-.2s.4-.3.6-.4l.1-.1v.4l-.2.2-.1.1v.1c-.1.1-.2.1-.3.2-.3 0-.6.1-.9.2"/><path class="st4" d="M170.7 45.7c-.3 0-.7 0-1-.1-.3 0-.7-.1-1-.2-.8-.3-1.6-.7-2.3-1.2l-.3-.3-.1-.1-.3-.3c-.1-.1-.2-.3-.4-.4-.1-.1-.2-.2-.2-.3-.3-.4-.5-.9-.7-1.3-.1-.3-.2-.7-.3-1 0-.2-.1-.4-.1-.7 0-.2 0-.3-.1-.5v-3.1-.1-6.5h13.5v5.5c-.3.2-.6.3-.8.5-.2.1-.3.3-.5.4-.1.1-.2.2-.2.3 0 0 0 .1-.1.1l-.1.1c-.1.2-.3.5-.4.7v.1c-.1 0-.1 0-.2.1v.1s0 .1.1.1c-.1.1-.3.2-.4.3-.1 0-.1.1-.2.2s-.2.1-.3.2v.1c-.1.1-.3.2-.4.3-.1 0-.1.1-.2.1l.1.1-.1.1-.6.6c0-.1 0-.2-.1-.2h-.1c-.1 0-.2.1-.2.1l-.3.3v.1l-.1.1s-.1-.1-.2-.1-.1-.1-.2-.1c-.2-.1-.4-.2-.5-.2v.6h-.1c0-.1.1-.1.1-.2v-.2l-.1-.1H171c-.7-.2-1.3-.4-2-.6-.2-.1-.3-.1-.5-.2s-.4-.2-.5-.3c-.2-.4-.3-.8-.5-1.3-.1-.1-.3-.1-.4-.2 0-.1.1-.1.1-.2.1 0 .3 0 .4.1H168.8c.7-.1 1.5-.3 2.2-.5h1.2c.5 0 1 .2 1.6.2.3 0 .7.1 1 0 .2 0 .4-.1.6-.2v-.1c-.3-.1-.5-.2-.8-.3-.1-.1-.2-.1-.3-.2-.1-.1-.2-.1-.2-.2h.5c.3 0 .6-.1 1-.2.1 0 .3-.1.4-.1v-.1l-.9-.3c-.2-.1-.4-.2-.5-.3h.4c.6 0 1.2-.2 1.8-.5v-.1c-.3-.1-.7-.1-1-.3l-.6-.3c.5-.1.9-.2 1.3-.4.1 0 .1-.1.2-.1.2-.1.3-.2.5-.2v-.1h-.2c-1-.2-2-.5-3-.5h-.5c-.9.1-1.9.3-2.8.5h-1.6v-.1c.1 0 .1-.1.2-.1.2 0 .5.1.7.1 0 0 .1 0 .1-.1 0 0-.1-.1-.2-.1-.1-.1-.3-.2-.4-.3v-.2c.2-.2.4-.5.5-.8 0-.1.1-.2.1-.3v-.3c0-.3-.1-.6-.1-.9-.2.1-.4.3-.6.4-.1.1-.2.2-.2.3 0 .1-.1.2-.1.3v.2c0 .3-.1.5-.1.8l-.1.1c-.2-.1-.4-.3-.5-.5v-.1c0-.4.2-.7.5-.9-.3 0-.7.1-1 .2-.1.1-.2.1-.3.2-.1.1-.2.1-.2.2l-.2.2-.3.6c0 .2-.1.5 0 .7.1.3.2.5.3.8.1.1.1.2.2.2.1.1.1.2.2.2 0-.4 0-.9.3-1.2l.1-.1c.1 0 .1 0 .2-.1h.1c.1 0 .3 0 .3.2-.6 1.5-1.1 3-1.7 4.5-.1 0-.3-.1-.4-.1v.5c-.1 0-.1-.1-.2-.1s-.3 0-.4.1V37.5s-.1 0-.1.1c-.1 0-.1.1-.1.2v.3c-.1.1-.2.1-.2.2v.3c0 .1-.1.1-.1.2v.4c0 .1.1.1.1.2.1.2.1.3.2.5l.2.2c-.2.6-.4 1.1-.6 1.7v.1c0 .2.1.3.3.3.2 0 .2-.1.3-.2.2-.5.4-1.1.6-1.6.2 0 .3.1.5.1h.6l.3.3c.2.2.4.5.6.7l.1.1v.2h.4c.3.2.7.4 1 .7.3.2.6.3.8.5l.6.3c0 .1 0 .1.1.2h.1l.6.3c.3.1.5.3.8.5h.1c.1 0 .3-.1.4-.1.3-.3.5-.7.8-1 0 0 .1 0 .2.1.1 0 .2 0 .2-.1s0-.2-.1-.2v-.1l.1-.1.1-.1c.3-.3.7-.5 1-.7 0 0 .1 0 .1-.1.1-.1.2-.1.3-.2 0 0 .1-.1.2-.1.1.1.2-.2.3-.2.2-.2.5-.4.7-.6 0 .2.1.3.1.5-.1.2-.1.3-.2.5-.2.6-.6 1.2-1 1.7-.1.1-.2.3-.3.4l-.4.4c-.3.3-.6.5-.9.7-.2.1-.5.3-.7.4-.1.1-.3.1-.4.2-.3.1-.7.2-1.1.3-.3.1-.6.1-1 .1-.4-.3-.6-.3-.8-.3"/><path class="st3" d="M174.1 45.7v-.1-.1c.1 0 .2-.1.2-.1 0 .1-.1.2-.2.3M167.6 45.5s0-.1-.1-.1c0-.1 0-.3-.1-.4v-.1-.1c.1.1.3.1.4.2-.1.3-.2.4-.2.5zM167.4 45.3c-.1-.2-.3-.2-.5-.3-.1 0-.3-.1-.4-.1-.1 0-.2-.1-.2-.1-.1-.1-.2-.1-.3-.2l-.1-.1-.1-.1c.1.1.2.1.4.2s.4.2.5.2c.1.1.2.1.3.2 0 0 .2.1.2.2l.1.1c0-.1.1-.1.1 0M174.8 45.1c.1-.1.2-.1.2-.2.1 0 .1-.1.2-.1.1-.1.2-.2.4-.3l-.2.2c-.1 0-.1.1-.2.1-.1.1-.2.1-.3.2.1.1 0 .1-.1.1"/><path class="st4" d="M176.5 44.6c-.1-.1-.2-.1-.2-.3 0-.2.2-.3.3-.4h.2v.1c0 .1 0 .3.1.4-.2.1-.3.2-.4.2M165.1 44.6h-.1c-.1 0-.1-.1-.2-.1.1-.1.1-.2.2-.3V44v-.1h.1c.1 0 .2 0 .3.1l.1.1v.1c-.1.1-.1.3-.4.4.1 0 0 0 0 0"/><path class="st3" d="M166.6 44.5c-.1-.1-.3-.1-.4-.2-.2-.1-.4-.2-.5-.3v-.2l.3.3.2.2c.2.1.3.1.4.2"/><path class="st4" d="M177 44.4c-.1 0-.1-.2-.1-.2 0-.2.2-.3.3-.4h.1c.2 0 .3.2.3.3v.2c-.2 0-.4.1-.6.1M164.5 44.4c-.1 0-.2-.1-.4-.1-.1-.1-.2-.1-.1-.3.1-.2.2-.3.4-.4.2 0 .5.2.4.5 0 0 0 .1-.1.2l-.1.1h-.1M178.4 44.3c-.1 0-.2 0-.3-.1h-.4c0-.2.1-.3.2-.4 0 0 .1 0 .1-.1h.1c.2 0 .3 0 .4.2.1.2.1.4-.1.4"/><path class="st2" d="M164.4 44.3c-.1 0-.1 0 0 0-.1 0-.1 0 0 0-.1-.2-.1-.2 0-.2s.2 0 .2.1c-.1 0-.1.1-.2.1"/><path class="st4" d="M163.3 44.3c-.1-.1-.1-.1-.1-.2v-.2c0-.2.1-.2.3-.2H163.8c0 .1.1.2.2.3v.2h-.1c-.3.1-.5.1-.6.1"/><path class="st2" d="M178.3 44.3c-.1 0-.1-.1-.1-.2s.1-.1.2-.1.1.1.1.2c-.1 0-.1.1-.2.1.1 0 0 0 0 0M177.2 44.3c0-.1 0-.1 0 0-.1-.1-.1-.1 0 0-.1-.2-.1-.2 0-.2h.1c.1.1.1.1.1.2-.1-.1-.1-.1-.2 0M163.3 44.2l-.1-.1c0-.1.1-.1.2-.1h.1v.1c-.1.1-.1.1-.2.1"/><path class="st4" d="M177.7 44c-.1-.1-.1-.2-.3-.3h-.1c-.1 0-.2 0-.3.1 0-.1 0-.2.1-.2.1-.1.3-.2.5-.2l.1.1c.1.1.2.2.2.3l-.1.1s-.1 0-.1.1z"/><path class="st5" d="M172.8 43.9c-.1 0-.1 0-.2-.1-.2-.1-.4-.3-.6-.4l-.6-.3c.1-.1.2-.1.3-.2.1-.1.2-.1.2-.2.1-.1.1-.2.2-.2 0 0 .1-.1.1-.2.1-.1.1-.2.1-.3 0-.1 0-.2.1-.3 0-.2 0-.5.1-.7.1.5.2.9.5 1.3.2.2.5.4.8.5-.1.1-.3.3-.4.5l-.1.1c-.1.1-.2.3-.3.5h-.2"/><path class="st4" d="M164 43.9l-.1-.1v-.1c0-.2.1-.3.2-.4.1 0 .1-.1.2-.1s.2 0 .3.1l.1.1s0 .1.1.1v.1c-.1-.1-.2-.1-.3-.1-.3.1-.5.2-.5.4"/><path class="st6" d="M178 43.7z"/><path class="st3" d="M178.3 43.6c.1-.1.2-.1.3-.2.1 0 .2 0 .2-.1h.7c-.1 0-.2.1-.3.1-.3.2-.6.2-.9.2"/><path class="st6" d="M163.7 43.6"/><path class="st3" d="M178.2 43.6c.1-.2.1-.3.2-.5V43v-.3c0-.1.1-.2.1-.3V43.6c-.1-.2-.2-.1-.3 0M163.4 43.5c-.4-.1-.8-.1-1.2-.2h.9c.1.1.2.2.3.2M178.1 43.5c0-.1-.1-.2-.2-.3-.1-.1-.2-.1-.3-.3l-.1-.3c.3.3.6.6.6.9zM163.5 43.4c-.1 0-.1 0 0 0-.1-.1-.2-.1-.2-.2v-.1V42l.1.3v.1c0 .2-.1.4 0 .6 0 .2 0 .3.1.4zM163.6 43.4c.1-.4.3-.7.6-.9 0 .1-.1.2-.1.4-.1.1-.3.2-.4.4-.1 0-.1.1-.1.1M178.2 43.3c0-.1 0-.1-.1-.2 0-.1-.1-.1-.1-.2l-.2-.2-.1-.1-.3-.3-.1-.1-.1-.1V42l.6.6.1.1c0 .1.1.2.1.3v.1l.2.2M178.7 43.3l.3-.3.1-.1h.7c.2 0 .4-.1.6-.1-.2.1-.5.3-.7.4H178.8c0 .1 0 .1-.1.1M178.6 43.2V42v-.1c.1-.1.2-.3.2-.4 0 .5 0 1-.1 1.5.1.1 0 .2-.1.2"/><path class="st3" d="M163.5 43.2v-.1c0-.3.2-.5.4-.7l.2-.2.2-.2.1-.1v.1c0 .1-.1.2-.2.3-.2.2-.4.4-.5.6 0 .1-.1.1-.1.2v.1h-.1M162.1 43.2h-.2c-.3-.1-.5-.3-.8-.4.2 0 .4.1.6.1h.9c.1.1.2.2.4.3h-.9"/><path class="st5" d="M171.2 43.2c-.1 0 0-.1 0-.1.2-.2.5-.4.7-.6 0 0 .1-.1.1-.2s.1-.1.1-.2c.2-.5.2-1 .2-1.4h.1v1c0 .2-.1.4-.2.5 0 .1-.1.1-.1.2l-.1.1c-.1.1-.3.3-.5.4 0 .2-.1.2-.3.3.1 0 0 0 0 0"/><path class="st3" d="M163.1 43.1l-.2-.2v-.1c0-.5 0-.9-.1-1.4.1.1.2.3.2.4v.1c.1.5.1.9.1 1.2"/><path class="st5" d="M171.1 43.1c-.5-.3-1-.5-1.5-.8-.3-.2-.5-.3-.8-.5h.6c.3 0 .6-.1.9-.2.1 0 .1-.1.2-.1.1-.1.1-.1.2-.1l.2-.2c.2-.2.4-.5.6-.7h.2c.1.2.2.2.4.3-.1.1-.2.2-.2.3l-.2.2-.1.1c-.1.1-.1.2-.2.3 0 .1-.1.2-.1.3v.8c-.2-.1-.2.2-.2.3"/><path class="st5" d="M171.2 43V42.4c0-.4.2-.9.5-1.2 0-.1.1-.2.2-.2 0 0 0-.1.1-.1l.2-.2h.1c-.2.2-.5.5-.6.8 0 .1-.1.2-.1.3 0 .1-.1.2-.1.3v.6c-.2 0-.2.1-.3.3.1-.1 0-.1 0 0"/><path class="st3" d="M178.9 42.9c0-.7 0-1.4.1-2.1 0-.1 0-.1.1-.2l.2-.2v.3c0 .3 0 .5.1.8v1c-.2.2-.3.3-.5.4M178.3 42.9c0-.1-.1-.1-.1-.1l-.1-.2-.1-.1-.1-.1-.2-.2-.1-.1-.2-.2c0-.1.1-.2.1-.2l.5.5c.1.1.2.3.3.4v.3M179.6 42.9h-.3l.3-.3h.1c.3 0 .5-.1.8-.1 0 0 .1 0 .1-.1.1 0 .2 0 .3-.1.1-.1.2-.1.4-.2l-.1.1v.1c-.2.1-.3.2-.4.4-.3.1-.6.1-.9.2h-.3M162.7 42.9c0-.1 0-.1 0 0-.2-.1-.3-.2-.4-.3-.1 0 0-.2 0-.2v-.3c0-.3 0-.6.1-.9v-.6-.1l.1.1.1.1c.1.2.1.5.1.7v1.5"/><path class="st5" d="M174.2 42.8c-.1-.1-.3-.1-.4-.2-.1-.1-.2-.1-.3-.2-.1 0-.1-.1-.2-.1-.1-.1-.1-.1-.2-.1l-.1-.1c-.3-.4-.4-.9-.5-1.4 0 0 .1 0 .1-.1.1.4.2.9.4 1.3.3.4.7.6 1 .8.2 0 .3.1.2.1"/><path class="st3" d="M163.4 42.8v-.2c.1-.2.1-.3.2-.4l.4-.4c.1-.1.1-.2.2-.3 0 .1 0 .1.1.2v.1c0 .1-.1.2-.2.3l-.6.6c0-.1-.1.1-.1.1"/><path class="st5" d="M171.4 42.8c0-.4.1-.8.2-1.1 0-.1.1-.1.1-.2.1-.1.1-.2.2-.3 0 0 0-.1.1-.1.1-.1.1-.2.2-.2 0 .4 0 .9-.2 1.2 0 .1-.1.1-.1.2-.1.2-.2.3-.5.5.1 0 0 0 0 0"/><path class="st3" d="M162 42.8c-.3 0-.6-.1-1-.2 0-.1-.1-.2-.1-.3-.1 0-.2-.1-.2-.1 0-.1-.1-.1-.2-.2.1 0 .2.1.4.2.1.1.2 0 .4.1.1 0 .1 0 .2.1.1 0 .2 0 .4.1.2 0 .3 0 .5.1l.3.3c-.4-.1-.6-.1-.7-.1"/><path class="st5" d="M174.1 42.6c-.1-.4-.2-.8-.4-1.1l-.1-.2-.1-.1-.2-.2-.3-.3-.1-.1.1-.1.6.6.2.2s0 .1.1.1c.1.3.3.7.2 1.2.1-.1 0 0 0 0"/><path class="st5" d="M174 42.5c-.1-.1-.2-.1-.3-.2l-.1-.1-.1-.1c-.1-.1-.2-.2-.2-.3 0-.1-.1-.2-.1-.3 0-.1-.1-.2-.1-.3 0-.2-.1-.4-.1-.5.1 0 .1.1.2.1l.1.1c.1.1.2.2.3.2.1.1.1.2.2.2 0 .4.1.8.2 1.2z"/><path class="st3" d="M179.5 42.5v-.9-.4c0-.3 0-.6.1-.8.1-.1.1-.2.2-.2v.7c0 .1 0 .3.1.4v1c-.2-.1-.3 0-.4.2"/><path class="st3" d="M179.6 42.4c.1-.1.2-.3.3-.4 0 0 .1 0 .1-.1.2-.1.4-.1.6-.2.3-.1.6-.2.9-.4 0 .1-.1.2-.1.3 0 .1-.1.1-.1.2l-.6.3h-.3c-.1 0-.2.1-.4.1-.1.2-.2.2-.4.2"/><path class="st5" d="M174.3 42.4c0-.3-.1-.6-.2-.9 0-.1-.1-.1-.1-.2-.2-.3-.4-.5-.7-.7-.1-.1-.1-.1-.2-.1l.2-.2V40v-.1l.7-.7.3.3c.3.2.5.5.7.8l.1.1c.2.2.4.4.5.6.1.1.2.3.3.4-.5.2-1.1.6-1.6 1"/><path class="st3" d="M162.2 42.4s0-.1 0 0c-.1-.2-.2-.2-.3-.3l-.1-.1v-.2-.8c0-.1 0-.3.1-.4V40c.1.1.1.2.2.2.1.1.1.3.1.5 0 .3-.1.6-.1.9.1.3.1.5.1.8"/><path class="st3" d="M162 42.4c-.2 0-.4 0-.6-.1-.1 0-.2-.1-.3-.1h-.2l-.6-.3c0-.1-.1-.1-.1-.2s-.1-.2-.1-.3c.1 0 .1.1.2.1.2.1.3.1.5.2l.9.3h.1c0 .1.1.2.2.4 0-.1 0-.1 0 0M178.2 42.4l-.3-.3-.3-.3-.1-.1c0-.1 0-.2.1-.3 0 0 .2.1.2.2l.1.1.1.1c.1.1.1.1.1.2v.2c.1 0 .1.1.1.2M178.3 42.3v-.1c0-.1.1-.1.1-.2.2-.3.3-.6.5-.9v.2c-.1.3-.3.6-.5.8 0 .1-.1.2-.1.2M163.5 42.3v-.4-.1c.1-.2.3-.3.4-.4l.2-.2s0 .1.1.2v.2l-.1.1-.3.3c-.1 0-.2.1-.3.3M163.4 42.2c-.2-.4-.4-.6-.5-.9 0 0-.1-.1-.1-.2V41c.1.1.1.2.2.3.1.3.3.5.4.8v.1M178.3 42v-.2-.1c0-.2.1-.4.2-.6 0-.1.1-.1.1-.2.1-.1.2-.3.3-.4 0-.1.1-.1.1-.2v-.2c0 .1 0 .3.1.4 0 .1 0 .2-.1.3l-.1.1c-.1.1-.1.2-.2.3-.1.2-.2.4-.3.5 0 .2-.1.2-.1.3"/><path class="st5" d="M165.3 42c-.1 0-.1-.1-.1-.1v-.1c0-.1.1-.2.1-.2.3-.7.5-1.3.8-2 .1 0 .3.1.3.1-.2.6-.5 1.2-.7 1.8 0 .1-.1.2-.1.3-.2.1-.2.1-.3.2 0-.1 0 0 0 0"/><path class="st3" d="M179.9 41.9v-.8c0-.2-.1-.3-.1-.5v-.8l.3-.3c0 .5.1 1 .2 1.5v.4c0 .1-.1.1-.2.2l-.1.1c0 .1 0 .2-.1.2M163.4 41.9c-.2-.2-.3-.5-.4-.8 0-.1-.1-.1-.1-.2l-.1-.1c0-.1 0-.2-.1-.3 0-.1.1-.2.1-.4.1.3.2.5.4.8.1.2.2.5.2.7V41.9M161.8 41.9l-.1-.1c0-.1-.1-.1-.2-.2l-.1-.1v-.1-.5c.1-.4.1-.9.2-1.3.1.1.1.2.2.2s.1.1.1.2v.5c0 .2-.1.3-.1.5V41.9zM180.1 41.9c.1-.1.2-.2.3-.4.1-.2.3-.2.4-.2.1 0 .3-.1.4-.2.1-.1.2-.1.4-.2.1 0 .1-.1.2-.1v.2c0 .1 0 .1-.1.2s-.3.2-.4.3c-.1 0-.1.1-.2.1s-.2.1-.4.1-.4.1-.6.2M161.5 41.8c-.2-.1-.4-.1-.7-.2-.3-.1-.6-.2-.8-.4l-.1-.1c-.1-.1-.1-.3-.1-.4.2.1.3.1.5.2l.2.2c.1 0 .1.1.2.1H161l.1.1c.2.2.3.3.4.5M178.2 41.7l-.3-.3c0-.1-.1-.1-.2-.2 0-.1.1-.2.1-.4l.2.2c0 .1.1.1.1.2v.1c0 .1 0 .2.1.4"/><path class="st5" d="M168.4 41.6h-.1s.1 0 .1-.1c.4 0 .9 0 1.3-.1.2 0 .3-.1.5-.2.1 0 .1-.1.2-.1s.1-.1.2-.1c0 0 .1-.1.2-.1 0-.1.1-.1.1-.2.1 0 .1-.2.2-.2.1-.2.2-.3.3-.5 0 0 .1-.1.2-.1v.1c-.1.1-.1.2-.2.3l-.2.2c-.1.1-.2.2-.3.4-.1.1-.2.2-.3.2-.1.1-.2.1-.3.2-.1 0-.1.1-.2.1s-.3.1-.4.1h-.6c-.2.1-.5.1-.7.1"/><path class="st3" d="M163.5 41.6c0-.1 0-.3.1-.5 0-.1.1-.1.1-.2.1-.1.2-.2.3-.4v.4c0 .2-.2.3-.3.4 0 .1-.1.2-.2.3M178.2 41.4c0-.2 0-.5-.1-.7 0-.1 0-.2.1-.3.1 0 .2-.2.2-.2 0-.1.1-.3.1-.4 0-.1.1-.3.1-.4 0 .1.1.2.2.3V40c0 .2-.1.4-.2.6-.1.1-.2.2-.2.4-.1.1-.1.3-.2.4"/><path class="st5" d="M168.3 41.4c-.1-.1-.2-.2-.2-.3 0-.1-.1-.1-.2-.2 0 0-.1-.1-.1-.2l-.1-.1-.1-.1c-.1-.1-.2-.2-.2-.3v-.1c.2-.3.4-.6.4-.9V39c-.1-.3-.1-.5-.2-.8 0-.1-.1-.2-.1-.3.1-.1.1-.2.2-.2.1.4.3.8.4 1.2.1.1.2.1.2.2.1 0 .2.1.2.1s.1 0 .1.1c.2.1.5.2.7.2.6.2 1.1.4 1.7.5 0 .1-.1.2-.1.2-.1.1-.1.2-.2.3 0 .1-.1.1-.1.2l-.2.2s-.1 0-.1.1c-.1 0-.1.1-.2.2 0 0-.1 0-.1.1-.1 0-.2.1-.3.1-.1 0-.3.1-.4.1-.3-.1-.6-.1-1-.1.1 0 .1 0 0 0"/><path class="st3" d="M163.5 41.4c0-.2-.1-.3-.2-.5-.1-.1-.1-.2-.2-.3-.2-.3-.3-.6-.2-.9.1-.1.1-.2.1-.3 0 .2.1.4.1.7v.1s0 .1.1.1c.1.1.2.1.2.2v.4c.1.1.1.3.1.5zM180.5 41.2c.1-.1.1-.2.2-.3h.1c.2-.1.3-.2.5-.2.2-.1.4-.3.6-.4v.1c0 .1-.1.3-.1.4-.2.1-.4.2-.5.2-.1.1-.2.2-.4.2h-.4M180.4 41.2c0-.5-.1-.9-.2-1.4v-.4c0-.1.1-.2.2-.2v.1c0 .5.2.9.2 1.4v.1c0 .2-.1.3-.2.4"/><path class="st5" d="M176.1 41.2l-.3-.3-.2-.2s-.1-.1-.1-.2l-.4-.4c-.1-.1-.2-.2-.2-.3l-.3-.3-.1-.1c-.1-.1-.1-.2-.2-.2l-.1-.1-.1-.1v-.1s.1 0 .1-.1c.2.2.4.5.6.7l.3.3c.3.3.5.6.8.9.1.2.2.3.2.5.1-.1 0-.1 0 0"/><path class="st3" d="M161.1 41.1c-.1 0-.2 0-.2-.1-.1 0-.1-.1-.2-.1s-.1-.1-.1-.1l-.6-.3c0-.1-.1-.3-.1-.4V40c.2.1.4.3.6.4.1 0 .1.1.2.1s.2.1.4.2c-.1.2 0 .3 0 .4"/><path class="st3" d="M161.2 41.1c-.1-.1-.1-.2-.2-.3v-.1c0-.4.1-.8.1-1.2v-.3c.1 0 .2.2.2.3v.7c0 .2 0 .6-.1.9z"/><path class="st5" d="M176.3 41l-.3-.3c0-.1-.1-.1-.2-.2l-.1-.1c-.1-.1-.2-.2-.2-.3l-.8-.8c-.2-.2-.3-.4-.5-.6l.3-.3.3.3c.4.4.8.9 1.2 1.3.2.2.4.4.5.6 0 .2-.1.3-.2.4"/><path class="st3" d="M178.1 41c0-.1-.1-.1-.2-.2l-.1-.1.1-.4v.1c.1.2.1.4.2.6M163.6 40.9c.1-.3.2-.6.3-1v.5c0 .2-.1.3-.3.5M180.8 40.7v-.1c.1-.1.2-.3.3-.4.2-.2.5-.3.7-.5v.4c-.2.1-.4.3-.6.4-.1.1-.2.2-.4.2"/><path class="st5" d="M177.2 40.7c-.1-.5-.2-1.1-.5-1.6-.1-.1-.1-.2-.2-.4-.1-.1-.2-.3-.2-.4l-.3-.3-.2-.2-.2-.2c-.1-.1-.2-.1-.3-.2 0 0 0-.1-.1-.1h.1c.1.1.2.1.3.2.1.1.3.2.4.3l.2.2c.1.1.2.3.3.4.1.1.1.2.2.3.1.1.1.2.2.3.1.3.3.6.4 1 0 .1.1.3.1.4-.1.1-.1.2-.2.3z"/><path class="st2" d="M176.1 40.7c-.1 0-.2-.1-.1-.2 0-.1.1-.1.1-.1h.1c.1 0 .1.1.1.2 0 0-.1.1-.2.1"/><path class="st3" d="M160.9 40.6c-.1-.1-.2-.1-.3-.2-.2-.2-.5-.3-.7-.5v-.3c.2.1.5.3.7.5.1.1.2.3.3.4-.1.1 0 .1 0 .1"/><path class="st5" d="M172.4 40.6c-.2-.1-.4-.1-.6-.2-.1-.1-.1-.1-.1-.2V40v-.3c.3.1.5.2.7.4v.5zM172.6 40.6v-.5c.1-.1.2-.3.3-.3.1-.1.1-.1.2-.1l.1-.1c0 .2.1.4.1.6 0 .1-.1.1-.2.2-.2.1-.4.1-.5.2M176.7 40.6l-1.1-1.1-.7-.7c0-.1-.1-.1-.1-.2l-.3-.3c.1-.1.3-.2.4-.3l1.6 1.6.1.1.1.1.1.1.1.1c0 .1.1.2.1.4-.1.1-.2.1-.3.2M176.1 40.6v-.1c.1-.1.1 0 0 .1.1 0 .1 0 0 0"/><path class="st3" d="M180.8 40.6c0-.3-.1-.7-.1-1v-.2-.2c.1-.1.2-.1.3-.2v.3c0 .3-.1.6 0 .9-.1.1-.1.2-.2.4 0-.1 0 0 0 0M178.1 40.5v-.3c0-.4.2-.8.3-1.1v-.2l.2.2v.1c0 .3-.1.5-.2.8 0 .1 0 .2-.1.3l-.2.2M160.9 40.5c-.1-.1-.1-.2-.2-.3l-.1-.1v-.2-.9-.1c.1.1.2.1.3.1h.1v.3c.1.4 0 .8-.1 1.2z"/><path class="st4" d="M179.1 40.5c0-.1 0-.1 0 0-.1-.1-.1-.1-.1-.2v-.2c.1-.2.1-.3.3-.4h.1c.1 0 .2.1.2.2s-.1.1-.1.2c-.1.2-.2.3-.4.4.1 0 0 0 0 0"/><path class="st3" d="M163.6 40.4l-.2-.2-.1-.1c-.1-.2-.1-.5-.2-.7 0-.1 0-.2-.1-.3v-.2c0-.1.1-.2.2-.2v.3c.3.5.4 1 .4 1.4"/><path class="st4" d="M162.6 40.4c-.1 0-.2-.1-.2-.2l-.3-.3c0-.1.1-.1.1-.1.1-.1.2-.1.3 0 .1.1.1.2.2.3v.2c-.1 0-.1.1-.1.1"/><path class="st2" d="M176.6 40.3c-.1 0-.1-.1-.1-.1v-.1c.1-.1.2-.2.3-.1.1.1.1.2 0 .2-.1.1-.2.1-.2.1"/><path class="st5" d="M166.7 40.2c-.2 0-.3-.1-.5-.1 0-.1.1-.3.1-.4h.2c.2 0 .2-.2.2-.4.1 0 .2 0 .2-.1.1.1.1.3.2.4h.1c-.1-.1-.1-.3-.2-.4-.1-.2-.1-.4-.1-.6 0-.1 0-.2.1-.3 0-.1.1-.3.1-.4h-.2l-.1-.1c-.1.1-.1.2-.2.2 0 0-.1 0-.1.1h-.2l.1-.1c.1-.1.2-.3.3-.5l.6.3c0 .1.1.2.1.3 0 .1.1.2.1.3.1.2.1.4.2.6v.2c0 .2-.1.4-.2.5-.1.1-.2.3-.3.4-.1.1-.3.1-.5.1"/><path class="st3" d="M178 40.2V40v-.4-.5-.5c0-.1 0-.1.1-.2v-.2c.1.2.1.3.2.5v.3c-.1.2-.1.4-.2.6 0 .2-.1.4-.1.6z"/><path class="st5" d="M176.6 40.2c-.1 0-.1-.2 0-.1.1 0 .1 0 0 .1"/><path class="st3" d="M163.7 40.1c-.1-.5-.2-.8-.3-1.2v-.4c.1-.1.1-.3.2-.4v.2c0 .2.1.4.2.5v.7c0 .3 0 .5-.1.6"/><path class="st5" d="M177.4 40.1c-.1-.2-.1-.4-.2-.6 0-.1-.1-.2-.1-.4V39c0-.1-.1-.2-.1-.3 0-.1-.1-.2-.1-.2-.1-.1-.2-.2-.2-.4 0-.1-.1-.1-.2-.2s-.1-.1-.1-.2l-.1-.1s-.2-.2-.3-.2c-.1-.1-.1-.1-.2-.1h-.1c.2-.3.3-.6.5-.9.1-.1.2-.3.3-.4l.2-.2.1-.1s.1 0 .1-.1c0 0 .1 0 .1-.1.1-.1.2-.1.3-.2.1-.1.2-.1.3-.2v3.4c0 .3 0 .6-.1.9-.1.3-.1.5-.1.7z"/><path class="st3" d="M181.1 40.1c-.1-.2 0-.5 0-.7V39v-.1c.1 0 .2-.1.3-.1v.2c0 .1 0 .3.1.3-.1.2-.1.4-.2.6-.1.1-.2.1-.2.2M160.6 40l-.1-.1c-.1-.2-.1-.4-.2-.6v-.1-.2-.3c.1 0 .2.1.3.1V40M181.3 40c.1-.2.1-.3.2-.5l.1-.1.2-.2.1-.1v.4c-.2.2-.4.3-.6.5"/><path class="st4" d="M179 39.9c-.1-.1-.1-.3.1-.3h.1c.1 0 .1 0 .1.1-.1 0-.2.1-.3.2"/><path class="st3" d="M160.4 39.9s-.1-.1-.2-.1-.1-.1-.2-.1c0 0-.1-.1-.2-.1v-.4s.1 0 .1.1l.2.2h.1c.1.1.1.2.2.4z"/><path class="st5" d="M165.7 39.9l-.1-.1c-.1-.1-.1-.2-.1-.3 0-.1 0-.1-.1-.2.1 0 .2.1.3.1.1 0 .1.1.2.1-.1.1-.1.3-.2.4"/><path class="st4" d="M162.7 39.8c-.1-.1-.2-.2-.3-.2l.1-.1c.2 0 .3.1.2.3"/><path class="st6" d="M161.9 39.8l-.1-.1h.2l-.1.1c.1 0 .1 0 0 0"/><path class="st5" d="M176.9 39.8l-1.8-1.8-.1-.1c.1-.1.2-.2.4-.3h.1c.1.1.2.1.3.2.2.2.4.4.5.6.1.1.2.3.3.4.1.1.1.2.2.4.1.1.1.3.2.4-.1.1-.1.1-.1.2"/><path class="st4" d="M179.7 39.7s-.1 0-.2-.1c-.1 0-.1-.2-.1-.2 0-.2 0-.3.1-.4.1-.1.2-.2.4-.1l.2.1c.1.1.1.2.1.2 0 .1-.1.3-.3.3 0 .1-.1.1-.2.2"/><path class="st5" d="M166.4 39.6c.1 0 .1 0 0 0 .1-.1.1-.1.1-.2v-.2h.1v.1c.1.1.1.2 0 .3h-.2"/><path class="st4" d="M161.9 39.6c-.2-.1-.4-.2-.5-.4 0-.1.1-.2.1-.3.1-.1.1-.1.2-.1h.1c.1.1.3.2.3.3v.1c.1.2 0 .3-.2.4"/><path class="st5" d="M166.3 39.6c-.1-.1-.2-.1-.4-.2.1 0 .1-.1.1-.2v-.1c.1 0 .2.1.4.2.1.1.1.2-.1.3 0-.1 0-.1 0 0"/><path class="st2" d="M179.9 39.4c-.1 0-.1 0 0 0-.1-.1-.1-.2-.1-.2.1 0 .1 0 .2.1 0 0 0 .1-.1.1"/><path class="st5" d="M165.8 39.3c-.2-.1-.3-.2-.5-.2v-.3l.1-.1c.2.1.3.2.5.2h.1c0 .1.1.2 0 .2-.1.2-.2.2-.2.2"/><path class="st2" d="M161.8 39.3c-.1 0-.1-.1-.1-.1 0-.1 0-.1.1-.1s.1 0 .2.1v.1h-.2"/><path class="st3" d="M181.5 39.3c0-.1.1-.2.1-.2 0-.2.1-.3.1-.5 0-.1.1-.2.1-.2v.7c-.1 0-.2.1-.3.2M160.2 39.3c-.1-.1-.1-.1 0 0l-.3-.3v-.4c0-.1 0-.2-.1-.3 0 .1.1.2.1.4 0 .1.1.2.1.3.1.1.1.1.2.3-.1-.1-.1-.1 0 0"/><path class="st5" d="M166.7 39.2c.1-.1.1-.2.1-.3l.1.1c0 .2-.1.2-.2.2"/><path class="st3" d="M181.4 39.2v-.5c.1 0 .1-.1.2-.2s.1-.2.2-.3c0 .1-.1.2-.1.4 0 .1-.1.3-.1.4l-.2.2"/><path class="st2" d="M174.7 39.2c-.1 0-.1-.1-.1-.2s.1-.1.2-.1.2.1.2.2c-.1 0-.2.1-.3.1"/><path class="st5" d="M166.5 39.1c-.1-.1-.3-.1-.4-.2h.1c.1-.1.1-.1.1-.3.1.1.2.1.4.2v.1c0 .2-.1.2-.2.2"/><path class="st3" d="M160.2 39.1c0-.1-.1-.1-.1-.2-.1-.3-.1-.5-.2-.8l.1.1.1.1s0 .1.1.1l.1.1c-.1.3 0 .5-.1.6"/><path class="st5" d="M174.7 39.1s0-.1 0 0V39c.1 0 .1 0 0 .1"/><path class="st4" d="M180.7 38.9c-.1 0-.1-.1-.2-.1 0-.1.1-.1.1-.2v-.2-.1c0-.1.2-.1.2 0 .2.1.3.3.2.4l-.1.1c0 .1-.1.1-.2.1M179.3 38.9c-.2-.1-.3-.2-.3-.4 0-.1.1-.2.2-.3 0 0 .1 0 .1-.1h.2c.1 0 .1.1.2.1v.4c-.1.2-.3.3-.4.3"/><path class="st5" d="M165.9 38.9l-.6-.3v-.3l.1-.1c.2.1.4.2.6.4v.2s-.1 0-.1.1c.1 0 0 0 0 0"/><path class="st4" d="M161 38.9c-.1 0-.2-.1-.3-.2v-.1-.1c0-.2.1-.3.3-.3.1 0 .1 0 .2.1-.1.2 0 .3.1.5-.1 0-.2.1-.3.1M180.2 38.9c-.1-.1-.2-.1-.3-.1h-.2s0-.1-.1-.1v-.1c0-.2.1-.4.3-.5h.1c.2 0 .3.2.4.3v.2s0 .1-.1.1c.1.1 0 .1-.1.2 0-.1 0 0 0 0M162.3 38.9c-.1 0-.2-.1-.3-.1 0-.1 0-.1.1-.2v-.1-.1l.1-.1h.2c.2.1.2.2.3.3 0 .1 0 .2-.1.3 0 0-.1 0-.1.1 0-.2 0-.2-.2-.1.1 0 .1 0 0 0"/><path class="st4" d="M161.5 38.8s-.1 0 0 0c-.2-.1-.3-.2-.3-.4s.3-.5.5-.4l.1.1s0 .1.1.1c0 .1.1.1.1.2s0 .2-.1.3h-.3l-.1.1"/><path class="st5" d="M166.8 38.8h-.1c-.1-.1-.2-.1-.3-.2.1-.1.2-.2.2-.3.1 0 .1.1.2.1l.1.1v.1c-.1 0-.1.1-.1.2z"/><path class="st2" d="M175.1 38.8c-.1 0-.1-.1-.1-.2s.1-.1.1-.1h.2s.1.1.1.2v.1c-.1-.1-.1-.1-.3 0 .1 0 .1 0 0 0"/><path class="st6" d="M160.5 38.7"/><path class="st5" d="M175.1 38.7c0-.1 0-.1 0 0-.1-.2.2-.2 0 0 .1-.1.1 0 0 0"/><path class="st3" d="M163.8 38.6c0-.1-.1-.2-.1-.3 0-.1-.1-.3 0-.4l.1-.1v.8"/><path class="st2" d="M180.1 38.5c-.1 0-.2-.1-.1-.2s.2-.1.3.1v.1h-.2"/><path class="st5" d="M166.2 38.5c-.2-.1-.4-.3-.6-.4 0-.1-.1-.2 0-.3 0 0 .1-.1.2-.1.1.1.2.1.3.2h.1c0 .1-.1.1-.1.2.1 0 .3 0 .4.1v.1s0 .1-.1.1c-.1.1-.2.1-.2.1"/><path class="st4" d="M161.6 38.5c-.1 0-.1-.1 0 0l-.1-.1c0-.1.1-.1.2-.1s.1.1.1.2c-.1-.1-.2 0-.2 0"/><path class="st2" d="M175.6 38.3c-.1-.1-.1-.1-.1-.2V38s.1 0 .1-.1h.1c.1 0 .1.1.1.1v.1c0 .2-.1.2-.2.2"/><path class="st5" d="M166.9 38.3c-.1-.1-.2-.1-.3-.1h.1c.1 0 .1-.1.2-.2h.1c-.1.1-.1.2-.1.3M175.6 38.2s-.1-.1 0-.1h.1l-.1.1c.1 0 0 0 0 0M166.2 38c.1-.2.2-.5.3-.7.1 0 .2.1.2.1-.1.1-.1.3-.2.4l-.1.1s-.1 0-.1.1h-.1"/><path class="st3" d="M180.3 38v-.1c0-.1 0-.2-.1-.3-.1-.1-.1-.1-.1-.2s.1-.1.1-.2v-.1c.1.1.1.2.2.3 0 .1.1.3 0 .4 0 0-.1.1-.1.2zM179.9 38v-.3-.3c0 .1.1.2.2.3V38h-.2M179.8 38l-.2-.2c-.1-.1-.2-.1-.4-.2s-.5-.3-.7-.4l-.1-.1-.1-.1c-.1-.1-.2-.2-.3-.2v-.1c.3.2.6.3.9.4.3.1.6.3.7.5.1.1.1.3.2.4M161.4 38c0-.1-.1-.2-.1-.2v-.4c0-.1.1-.2.2-.3 0 .1.1.1.1.2v.1l-.1.1s0 .1-.1.1v.4M180.4 38c0-.2.1-.3.2-.4l.1-.1c.1 0 .1-.1.2-.1.2-.1.4-.2.5-.4l.1-.1c0 .1-.1.1-.1.2l-.3.3-.1.1v.1l-.1.1-.2.2c-.1-.1-.2 0-.3.1"/><path class="st3" d="M161.7 37.9h-.2v-.2c0-.2.2-.2.2-.4v.1c.1.3 0 .4 0 .5zM161.9 37.9c0-.1 0-.2.1-.3.2-.3.6-.5.9-.7.2-.1.5-.2.7-.4.1 0 .1-.1.2-.1-.1.1-.3.2-.4.3-.1.1-.2.2-.2.3-.3.2-.6.4-.9.5l-.4.4M161.2 37.9c-.2-.2-.4-.3-.6-.5 0-.1-.1-.1-.1-.2l-.3-.3s-.1-.1-.1-.2l.1.1.1.1c.2.1.3.2.5.3.1.1.2.1.2.2.1.1.1.2.2.3v.2"/><path class="st5" d="M166.1 37.8c-.1-.1-.2-.1-.4-.2v-.1c0-.1 0-.1.1-.2h.2c.1 0 .1.1.2.1 0 .2 0 .3-.1.4M167.4 37.8c-.3-.2-.6-.3-.8-.5-.1-.1-.1-.2-.1-.3.1 0 .2.1.3.1h.1c.1.1.3.1.4.2.1.1.3.1.4.2-.1 0-.3.2-.3.3"/><path class="st3" d="M179.8 37.8c0-.1-.1-.2-.1-.3v-.4c0-.2.1-.4.2-.6 0-.1 0-.1.1-.2 0 .1.1.2.1.3v.7c-.3.1-.3.2-.3.5M161.9 37.7v-.2c0-.1-.1-.2-.2-.3-.1-.1-.1-.2-.1-.2v-.4c0-.1.1-.2.1-.2 0 .1.1.3.2.4 0 .1 0 .1.1.2v.5c-.1 0-.1.1-.1.2M180.5 37.5c0-.2-.1-.3-.2-.5v-.1c0-.2 0-.3-.1-.5 0-.1-.1-.2-.1-.3v-.3c.2.4.4.8.6 1.3v.3c-.1 0-.2.1-.2.1z"/><path class="st3" d="M161.2 37.5s-.1-.1-.1-.2V37c.1-.2.1-.3.2-.5s.3-.5.4-.7v.3c0 .1-.1.2-.1.3v.5c-.3.3-.4.4-.4.6zM179.5 37.3c-.5-.3-1-.5-1.5-.8v-.1l.9.3c.1 0 .1.1.2.1s.2.1.2.2c.1.1.2.3.2.3M162.2 37.3c0-.1.1-.2.1-.2l.1-.1c.1-.1.2-.1.3-.2l.9-.3c.1 0 .1-.1.2-.1 0 .1-.2.2-.3.3-.4.1-.9.3-1.3.6M180.7 37.3v-.1c0-.1.1-.2.1-.3.2-.2.4-.4.7-.6l.3-.3c.1-.1.2-.2.2-.3 0 .1-.1.3-.1.4 0 .1-.1.1-.2.2l-.1.1c-.1.2-.3.3-.4.4-.2.3-.3.4-.5.5M179.6 37.3c0-.1-.1-.2-.1-.2v-.5-.2c.1-.2.2-.4.2-.5v-.1V35.5v-.1c.1.1.1.3.2.4V36.4c-.1.2-.2.4-.2.6v.2c-.1-.1-.1 0-.1.1M161 37.2l-.1-.1h-.1c-.1-.1-.2-.1-.4-.2l-.1-.1-.3-.3c0-.1-.1-.2-.2-.2l-.1-.1s0-.1-.1-.1c0-.1-.1-.2-.1-.3.1.2.3.3.4.5l.1.1.1.1c.2.1.4.3.5.4 0 .1.1.2.2.3h.2M162.1 37.2c0-.2-.1-.4-.1-.5-.1-.2-.2-.4-.2-.6v-.2-.2c.1-.1.1-.3.2-.4.1.1 0 .3 0 .4v.2c0 .1.1.3.2.4v.2c0 .2.1.4.1.6-.1-.1-.2 0-.2.1"/><path class="st5" d="M167.2 37.2c-.2-.1-.3-.1-.3-.2.6-1.5 1.1-3 1.7-4.5v-.1c0-.1-.1-.1-.1-.2-.1 0-.2 0-.3-.1h-.3c-.1 0-.1 0-.2.1-.3.2-.3.6-.4.9v.2c-.1-.1-.2-.3-.3-.4-.1-.1-.1-.2-.2-.3 0-.1 0-.1-.1-.2v-.2-.2-.3-.2c0-.2.1-.3.2-.5.1-.1.1-.2.2-.2l.2-.2s.1 0 .1-.1c.1-.1.2-.1.3-.2.1 0 .2-.1.2-.1.1 0 .3-.1.4-.1v.1c0 .1-.1.2-.1.2 0 .1-.1.2-.1.3 0 .2-.1.3 0 .5.1.1.2.3.3.4.1.1.1.1.2.1s.1-.1.2-.1c0-.4.1-.8.2-1.2.1-.1.1-.2.2-.2l.2-.2c.1 0 .1-.1.2-.1 0 0 .1 0 .1-.1l.1-.1c0 .3.1.6.1.8 0 .2-.1.3-.1.5-.1.1-.2.3-.3.4-.1.1-.1.2-.2.2 0 .1 0 .2.1.2.2.1.3.2.5.4-.2 0-.4-.1-.6-.1-.1 0-.2.1-.2.1-.7 1.9-1.3 3.5-1.9 5"/><path class="st5" d="M168.5 37h-.5l-.5-.1c.3-.8.6-1.7 1-2.5l.6-1.5c.1 0 .2 0 .3.1h1c1.1-.1 2.1-.5 3.2-.6h.5c.5 0 1 .1 1.5.2s.9.2 1.4.3c-.1.1-.2.1-.4.2l-.9.3c-.2.1-.5.1-.7.1v.1c.1.1.2.1.3.2.2.1.5.2.8.3.1 0 .3.1.4.1-.1.1-.3.1-.4.2-.1 0-.3.1-.4.1-.2 0-.5.1-.7.1h-.6v.1c.1 0 .1.1.2.1.1.1.2.1.3.2l.6.3c.1 0 .2.1.3.1-.3.1-.7.2-1 .2h-.7v.1c.1 0 .1.1.2.1.3.2.6.4 1 .5l.2.1c-.1 0-.2.1-.4.1h-.7c-.6 0-1.2-.2-1.8-.2h-1.4c-.5.1-1 .2-1.5.4-.3 0-.5.1-.8.1-.2.2-.3.2-.4.2"/><path class="st3" d="M180.7 37c0-.1-.1-.2-.1-.2-.2-.4-.4-.7-.6-1.1-.1-.2-.2-.5-.2-.7 0-.1.1-.1.1-.2s.1-.1.1-.2l.1.1c0 .2 0 .3.1.5 0 .1.1.1.1.2l.6 1.2v.2c-.1.1-.2.1-.2.2M161 37c0-.1-.1-.1-.1-.2v-.2c.1-.2.1-.3.2-.5s.2-.4.4-.7c.1-.1.1-.2.1-.4v-.3s0-.2.1-.2c.1.1.1.2.2.3 0 .1-.1.3-.1.4-.3.7-.6 1.2-.8 1.8 0-.1 0-.1 0 0M179.3 36.8c-.1 0-.1-.1-.2-.1-.3-.1-.7-.2-1.1-.4V36c.1 0 .1.1.2.1h.1c.2.1.4.1.6.2h.1c.1 0 .1.1.2.2 0 .1 0 .2.1.3-.1 0-.1 0 0 0M179.4 36.8c-.1-.1-.1-.3-.1-.4 0-.1.1-.3.1-.4v-.6c0-.1.1-.2.1-.2v-.1-.3l.1.1s.1 0 .1.1v.1c-.1.1-.1.2-.1.4v.4c-.1.2-.2.4-.2.6v.3zM162.4 36.8c0-.1.1-.2.2-.3l.1-.1h.1c.3-.1.5-.2.8-.3.1 0 .2-.1.2-.2v.3c-.1.1-.2.2-.3.2-.3.1-.7.2-1.1.4.1 0 0 0 0 0M162.3 36.8c0-.2 0-.3-.1-.5s-.1-.3-.2-.5v-.1-.3c0-.1 0-.2-.1-.3V35s.1 0 .1-.1l.1-.1v.2c0 .2.1.4.2.5 0 .3 0 .6.1.8 0 .2 0 .3-.1.5M180.9 36.7c0-.2 0-.3.1-.5 0-.1.1-.2.1-.2.1-.2.3-.3.4-.5.1-.2.3-.3.4-.5l.2-.2v.5c0 .1-.1.1-.1.2-.1.1-.1.2-.2.2-.1.1-.1.2-.2.3 0 .1-.1.1-.1.2-.2.2-.4.3-.6.5M160.7 36.6c-.2-.1-.2-.2-.3-.3l-.1-.1-.1-.1s-.1-.1-.1-.2l-.1-.1c0-.1-.1-.1-.1-.2-.1-.1-.2-.2-.2-.3-.1-.1-.1-.4 0-.5.1.1.2.1.2.2.2.2.3.4.5.6l.4.4c0 .1.1.1.1.2-.2.1-.2.2-.2.4"/><path class="st3" d="M180.9 36.4c-.1-.2-.2-.5-.4-.7-.1-.2-.2-.4-.3-.5 0-.1-.1-.3-.1-.4l-.1-.2c0-.1.1-.2.1-.3.2.4.4.7.6 1.1 0 .1.1.1.1.2s.1.2.1.3v.5zM160.8 36.4v-.2c0-.1-.1-.2-.1-.2 0-.1.1-.2.1-.3.2-.4.5-.8.7-1.3 0-.1 0-.1.1-.1 0 .1.1.2.1.2-.1 0-.2.5-.2.6v.1c-.3.4-.5.8-.7 1.2M179.2 36.3l-.1-.1v-.1-.1-.5c0-.2.1-.4.2-.6 0-.2.1-.4.1-.5v-.2c.2.2.3.6.2.9 0 .2-.1.3-.1.5v.6c-.3 0-.3.1-.3.1M162.5 36.3c0-.1-.1-.3-.1-.4v-.5c0-.1-.1-.3-.1-.4v-.4c0-.2.1-.4.2-.5v.7c.1.3.2.6.2.9 0 .2 0 .4-.1.5 0 0 0 .1-.1.1M178.9 36.2c-.3-.1-.6-.2-.8-.4v-.3c.2.1.3.1.5.2l.1.1c0 .2.1.3.2.4M162.8 36.2c0-.1.1-.1.1-.2s.1-.1.1-.1c.1-.1.4-.2.6-.3.1 0 .1-.1.2-.1l.1-.1v.2c0 .1-.1.1-.1.2-.4.2-.7.3-1 .4"/><path class="st2" d="M169.6 36.2c0-.1 0-.1 0 0l.3-.3c.1 0 .1-.1.2-.1.1-.1.2-.2.3-.2.1-.2.2-.3.2-.5h-.6c-.3.2-.5.4-.8.6h-.1c.1-.4.2-.8.4-1.2.1-.2.2-.3.3-.5.1.1.2.3.3.4h.7c.1-.2.1-.3.2-.5l-.3-.3-.1-.1c.3-.1.5-.1.8-.2H172.7s-.1 0-.1.1c-.2.1-.3.2-.5.3-.1 0-.1.1-.2.1l-.1.1c0 .2-.1.3-.1.5h.6c.3-.1.5-.3.8-.4 0 .1-.1.3-.1.4-.1.2-.1.3-.2.5-.1.1-.1.3-.2.4-.1.1-.1.2-.2.4-.1-.1-.2-.2-.3-.4 0 0 0-.1-.1-.1h-.7c-.1.2-.1.4-.2.6.1.1.2.2.2.3l.1.1h-.4c-.5 0-1 .1-1.4.2.1-.3.1-.3 0-.2"/><path class="st4" d="M170 36c.1-.1.2-.1.3-.2.1-.1.2-.1.2-.2.1-.1.1-.2.2-.4 0-.1.1-.2.1-.3h-.7c-.2.1-.4.3-.6.5 0-.2.1-.4.2-.6 0-.1.1-.2.1-.4.1-.1.1-.2.2-.4.1.1.2.2.3.4h.8c.1-.2.1-.4.2-.6l-.3-.3c.1 0 .1 0 .2-.1.2 0 .3-.1.5-.1.3 0 .6 0 .9-.1-.1.1-.3.2-.4.3l-.2.2c-.1.2-.1.5-.2.7h.8c.2-.1.4-.2.7-.3-.1.2-.1.3-.2.5-.1.3-.2.5-.3.7 0 0-.1-.1-.1-.2s-.1-.1-.1-.2h-.8c-.1.2-.2.4-.2.7.1.1.1.2.2.2-.9.1-1.3.1-1.8.2"/><path class="st3" d="M178.8 36c-.1-.1-.1-.2-.2-.3v-.1-.1c0-.2.1-.5.1-.7v-.4c0-.1 0-.3.1-.4v-.3l.2.2c0 .1 0 .1.1.2v.9c0 .2-.1.3-.1.5 0 .1 0 .3-.1.4v.1zM162.8 35.9v-.3c0-.3-.1-.6-.2-.9v-.5c0-.3.1-.5.3-.7v.2c0 .1 0 .3.1.5v.4c0 .2.1.4.1.6V35.5c-.1.2-.2.3-.3.4M181.1 35.9v-.1c0-.2.1-.3.1-.5l.1-.1c.2-.2.4-.4.5-.6.1-.1.2-.3.2-.4 0 .2.1.4.1.5-.1 0-.2.2-.3.2l-.1.1c-.1.1-.2.2-.2.3-.1.2-.2.4-.4.6M160.6 35.8l-.3-.3s-.1-.1-.1-.2l-.1-.1c-.1 0-.1-.2-.2-.2l-.1-.1-.1-.1c-.1 0-.1-.1-.2-.1 0-.2 0-.3.1-.5 0 0 .2.3.2.4.1.1.2.2.2.3l.1.1.1.1.1.1.1.1c0 .2.1.3.1.5h.1zM178.5 35.7s0-.1 0 0c-.2-.1-.4-.1-.5-.2v-.4s.1 0 .1.1c.1 0 .1.1.2.1.1.1.1.2.2.4M163.2 35.6c.1-.2.2-.4.3-.5.1-.1.2-.1.3-.2v.2c0 .1 0 .1-.1.2l-.1.1h-.1c0 .1-.2.2-.3.2M181 35.6c0-.1-.1-.2-.1-.2-.1-.2-.3-.5-.4-.7-.1-.1-.1-.2-.2-.3 0-.1-.1-.1-.1-.2v-.1-.1l.1-.4v.1c.2.4.5.8.7 1.2 0 .1.1.2.1.2 0 .2-.1.4-.1.5zM160.7 35.6c0-.1-.1-.3-.1-.4 0-.2.1-.4.2-.5.2-.3.4-.6.6-1 0 .1.1.2.1.4 0 .1-.1.3-.1.4-.1.2-.3.4-.4.6-.2.1-.3.3-.3.5z"/><path class="st2" d="M170.7 35.6c0-.1 0-.1 0 0 .1-.3.2-.5.2-.7h-.9c0-.1.1-.2.1-.3h.9c.1-.3.2-.5.3-.7h.4c-.1.3-.2.5-.2.8h1v.1c0 .1-.1.2-.1.3h-1c-.1.2-.2.5-.3.7-.2-.2-.3-.2-.4-.2"/><path class="st5" d="M170.8 35.5c.1-.2.2-.5.2-.7h-.9v-.1h.9c.1-.2.2-.5.3-.7h.1c-.1.2-.2.5-.2.7h1v.1h-1c-.1.2-.2.5-.2.7h-.2z"/><path class="st3" d="M178.5 35.4c0-.1-.1-.2-.2-.3V35c-.1-.3 0-.6.1-.9v-.3-.5-.1l.1.1c.1 0 .1.1.2.2.1.3 0 .6 0 .9v.4c0 .1-.1.3-.1.4-.1.1-.1.1-.1.2M163.2 35.3c0-.2-.1-.5-.1-.7v-.3c0-.2 0-.3-.1-.5 0-.1 0-.2.1-.4.1 0 .1-.1.2-.2l.1-.1v.9c0 .2.1.4.1.6v.3c-.2.2-.2.3-.3.4M181.2 35.1c0-.2 0-.4.1-.6 0 0 0-.1.1-.1l.2-.2c0-.1.1-.1.1-.2.1-.1.1-.2.2-.3 0 .1.1.2.1.4l-.1.1c-.1.1-.1.2-.2.3l-.3.3c0 .1-.1.2-.2.3M160.4 35l-.3-.3-.1-.1c-.1-.1-.2-.3-.3-.4 0 0-.1-.1-.1-.2.1-.1.1-.2.1-.4.1.1.1.2.2.3l.3.3.1.1c0 .1 0 .3.1.4v.3M178.2 35l-.1-.1v-.2c0 .1 0 .2.1.3M163.5 35c0-.1.1-.2.1-.3 0-.1.1-.1.2-.2v.2c0 .1-.1.2-.3.3M181.1 34.9c-.1-.1-.1-.2-.1-.2-.2-.3-.4-.6-.5-.9v-.1c0-.1 0-.1-.1-.2 0-.2 0-.3.1-.5.2.5.5.9.7 1.4 0 .2 0 .3-.1.5.1 0 0 0 0 0M160.5 34.9v-.4c.1-.5.5-.9.7-1.4 0 .1.1.2.1.4s-.1.3-.1.4c-.2.3-.3.6-.5.8l-.2.2"/><path class="st4" d="M179.7 34.8s-.1-.1-.1-.2v-.1V34.2v-.1h.1l.1.1H180.1c0 .1 0 .2-.1.2-.1.2-.1.3-.3.4M162 34.8c-.1 0-.1 0 0 0-.2-.2-.3-.4-.3-.6h.2c.1 0 .1-.1.2-.1s.1.1.1.2 0 .2-.1.3c0 .1-.1.2-.1.2"/><path class="st3" d="M178.2 34.8c0-.1-.1-.1-.1-.2v-.1-.7-.4-.3l.1.1c0 .1 0 .2.1.2v.6c0 .2-.1.5-.1.8 0-.1 0 0 0 0M163.5 34.8c0-.2-.1-.4-.1-.7v-.4-.3c0-.1 0-.2.1-.3l.1-.1v.7c0 .3.1.5 0 .8v.1s0 .1-.1.2M163.8 34.4c0-.3-.1-.6 0-1v-.5s.1 0 .1-.1c-.1.5-.1 1-.1 1.6 0-.1 0 0 0 0M181.3 34.3c0-.2 0-.4.1-.6 0-.1.1-.1.1-.2s.1-.2.2-.3c.1-.1.1-.2.2-.2v.5c-.1.1-.2.3-.3.5l-.2.2-.1.1M160.4 34.3l-.2-.2-.1-.1c-.1-.1-.2-.2-.2-.4l-.1-.1s0-.1-.1-.1c0-.2.1-.3.1-.5l.3.3c0 .1.1.1.1.2s0 .2.1.2c0 .3 0 .5.1.7M181.2 34.2c0-.1-.1-.2-.1-.2-.1-.2-.2-.4-.4-.6-.1-.2-.1-.3-.2-.5.1-.1.1-.2.2-.3 0 .1.1.1.1.2.1.2.1.4.2.6 0 .1.1.2.2.3.1.2 0 .3 0 .5zM160.5 34.2c0-.2 0-.3-.1-.5.1-.1.1-.2.2-.4s.2-.5.3-.8c0 .1.1.1.1.2l.1.1c0 .2-.1.3-.2.4-.1.2-.3.5-.4.7v.3z"/><path class="st4" d="M179.4 34.2c-.1 0-.2-.1-.2-.3 0-.1 0-.1.1-.2.1 0 .2-.1.2 0v.3s-.1.1-.1.2zM162.3 34.2c0-.1-.1-.1-.1-.1V33.8c.2-.1.4.1.3.3-.1 0-.1 0-.2.1 0-.1 0-.1 0 0M179.9 34.1c-.1 0-.2-.1-.2-.2v-.1c0-.1 0-.2.2-.3h.1c.1 0 .1 0 .2.1l.1.1h-.2c0 .1 0 .1.1.2h.2c-.4.2-.4.2-.5.2M161.8 34.1c-.1 0-.2-.1-.2-.1h.1v-.1c0-.1 0-.1-.1-.1h-.2c0-.1.1-.2.2-.2s.2.1.2.2v.2c0 .1 0 .1-.1.2.2-.1.2-.1.1-.1.1 0 0 0 0 0M179.7 33.5c-.1-.1-.2-.1-.3-.3 0-.1 0-.2.1-.2l.1-.1c.1-.1.1-.1.2-.1h.1c.1.1.2.2.2.3 0 .1-.1.2-.2.2h-.1c0 .2-.1.2-.1.2"/><path class="st3" d="M181.4 33.5V33l.1-.1c.1-.1.1-.2.2-.3.1.1.1.2.1.3l-.1.1c-.1.1-.1.2-.2.3-.1.1-.1.1-.1.2M160.3 33.5c0-.1-.1-.1-.1-.2-.1 0-.1-.1-.1-.2s-.1-.1-.2-.2v-.2c0-.1 0-.1.1-.2.1.1.2.4.3.5v.5"/><path class="st4" d="M162 33.5c0-.1-.2 0-.2 0l-.1-.1v-.1-.2c0-.1.1-.2.2-.3h.2c.1 0 .1 0 .1.1l.1.1v.1c0 .1 0 .2-.2.3-.1 0-.1.1-.1.1M178.8 33.5c-.1 0-.2-.1-.2-.1s0-.1-.1-.1v-.1c0-.1.1-.3.2-.3 0 .1.1.2.2.2 0 0 .1 0 .1.1h.2v.1c0 .1-.1.1-.2.2h-.1c.1-.1 0 0-.1 0"/><path class="st3" d="M181.2 33.5s0-.1-.1-.1c-.1-.3-.2-.5-.3-.8l.2-.2c0 .1 0 .2.1.3 0 .1 0 .1.1.2l.1.1s0 .2-.1.5M160.4 33.4v-.6l.2-.2c0-.1.1-.2.1-.3l.2.2c-.3.2-.3.6-.5.9"/><path class="st4" d="M162.8 33.4c-.1 0-.2-.1-.3-.1-.1-.1-.1-.1-.1-.2h.4c.1-.1.2-.2.2-.3l.1.1c0 .1.1.1.1.2v.1c0 .1-.1.1-.1.2H162.8"/><path class="st2" d="M179.7 33.4s0-.1 0 0c-.1-.1-.1-.2 0-.3.1 0 .2 0 .2.1s0 .1-.2.2c.1 0 .1 0 0 0M161.9 33.4c-.1 0-.1-.1-.1-.2.1-.1.1-.1.2 0s.1.1 0 .2c0-.1 0-.1-.1 0"/><path class="st4" d="M179.2 33c-.2 0-.3-.1-.3-.3 0-.2.2-.4.4-.4.2.1.3.3.3.5 0 .1-.1.1-.2.2h-.2M162.5 33h-.1c-.1-.1-.2-.1-.2-.2v-.1c0-.1.1-.3.2-.3h.2c.2 0 .3.2.3.3v.1c0 .1-.1.2-.2.3-.1-.1-.1-.1-.2-.1"/><path class="st3" d="M181.4 32.8v-.2-.2-.5c0 .1.1.2.1.2 0 .1.1.2.1.3-.1.1-.1.3-.2.4M160.3 32.8c-.1-.1-.1-.2-.2-.3l-.1-.1c0-.1.1-.2.1-.3 0-.1.1-.1.1-.2v.7c.1.1.1.1.1.2z"/><path class="st2" d="M179.3 32.8s0-.1 0 0c-.1-.1-.1-.2 0-.3h.2c0 .2-.1.3-.2.3"/><path class="st4" d="M179.9 32.8c-.1 0-.1-.1-.2-.1 0-.1-.1-.2-.1-.2-.1-.1.1-.2.1-.3 0 0 .1 0 .1-.1.1 0 .2-.1.3 0 0 0 .1 0 .1.1l.1.1c.1.2.1.3 0 .4 0 0-.1 0-.1.1H179.9M161.8 32.8c-.2 0-.3-.1-.4-.3 0-.1.1-.3.2-.3.1-.1.2-.1.3 0 .1.1.2.2.2.3-.1.1-.1.2-.1.3-.1-.1-.1 0-.2 0"/><path class="st2" d="M162.3 32.8c-.1 0-.1-.1-.1-.2s.2-.1.2-.1v.1c.1.1 0 .2-.1.2"/><path class="st3" d="M160.4 32.6v-.2-.5c0 .1.1.2.2.2v.1c-.1.2-.1.3-.2.4"/><path class="st2" d="M168.9 32.6c-.1 0-.2-.1-.2-.1-.1-.2-.1-.3 0-.4 0 0 .1 0 .1-.1h.1c.1 0 .2 0 .3.1v.4s-.1 0-.3.1"/><path class="st3" d="M181.2 32.6c0-.1-.1-.2-.1-.4l.2-.2v-.1.4c0 .1 0 .2-.1.3z"/><path class="st2" d="M180 32.5c-.1 0-.1-.1-.1-.2H180.2v.1c0 .1-.1.1-.2.1M161.6 32.5c-.1 0-.1-.1-.1-.2.1 0 .1-.1.2 0v.1c0 .1 0 .1-.1.2.1-.1 0-.1 0-.1"/><path class="st5" d="M168.9 32.5c-.1 0-.2-.1-.2-.2v-.1c0-.1.1-.2.2-.2s.2.1.2.2v.1c0 .1 0 .1-.2.2"/><path class="st3" d="M179.4 32.2c0-.1-.1-.2-.1-.3v-.1c0-.1 0-.1.1-.2 0-.1.1-.2.1-.3 0 .1.1.2 0 .3 0 .1-.1.1-.1.2v.4M162.3 32.2v-.5c0-.1-.1-.1-.1-.2v-.2c0 .1.1.2.1.3 0 .1.1.2.1.4 0 .1 0 .1-.1.2M178.7 32.2c0-.1.3-.1.3-.1l.1.1h-.4M162.8 32.2h-.2l.1-.1c.1 0 .2 0 .3.1h-.2M178.5 32.2c-.1 0-.2 0-.3-.1.1-.1.4-.1.5-.1 0 0 .1 0 .1.1h-.1s-.1 0-.2.1M163.1 32.2c-.1-.1-.2-.2-.3-.2 0 0 .1 0 .1-.1.2 0 .4 0 .5.1-.1 0-.2 0-.2.1s0 .1-.1.1"/><path class="st3" d="M179.5 32.2v-.4c0-.1.1-.2.1-.3.1-.2.2-.3.4-.5l.1-.1c-.1.2-.1.4-.2.5-.1.3-.3.6-.4.8M162.2 32.2c-.1-.1-.1-.2-.2-.3-.1 0-.1-.2-.2-.2 0-.1-.1-.1-.1-.2-.1-.2-.1-.4-.2-.5l.3.3c.1.1.2.2.2.3 0 .1.1.2.1.2.1.1.1.3.1.4M178.1 32.1c-.1-.1-.1-.1 0 0-.1-.1-.1-.2-.1-.2h.4s.1 0 .1.1c-.2-.1-.3 0-.4.1M179.2 32.1c-.3-.2-.8-.3-1.1-.5l-.1-.1v-.2l.6.3c.1 0 .1.1.2.1l.4.4c-.1-.1-.1-.1 0 0M162.5 32c0-.1.1-.1.1-.2.1-.1.2-.1.3-.2.3-.1.6-.3.9-.5v.1l-.1.1c-.1.1-.2.1-.3.2-.2.1-.4.2-.6.2-.1.2-.2.3-.3.3M163.6 32c-.1-.1-.3-.1-.4-.2H163.8c0 .2-.1.2-.2.2"/><path class="st3" d="M163.8 31.8c-.1-.1-.2 0-.3 0 .1-.1.2-.1.3-.2v.2M179.1 31.8c-.3-.2-.7-.3-1-.5h-.1v-.1l.6.3c.1.1.3.1.4.2 0-.1 0 0 .1.1M162.6 31.8c0-.1.1-.2.2-.3.1 0 .1-.1.2-.1.3-.1.6-.2.9-.4v.1c0 .1-.1.1-.2.2-.3.2-.6.3-.9.5-.1-.1-.1-.1-.2 0M178.1 31.8h-.1v-.1c.1 0 .1 0 .1.1.1-.1.1-.1 0 0zM162.5 31.7c0-.1-.1-.2-.1-.2-.1-.1-.1-.2-.2-.3v-.3c0-.1.2-.4.2-.4v.1c.1.3.2.6.2.9 0 0 0 .1-.1.2M179.1 31.7c0-.1-.1-.2-.1-.3 0-.3.1-.6.2-1 0 0 0 .1.1.1 0 .1.1.2.1.3v.3c0 .1-.1.2-.2.4 0 0 0 .1-.1.2"/><path class="st2" d="M169.2 31.6s0-.1 0 0c.1-.5.3-1 .5-1.5h.1l-.6 1.5"/><path class="st3" d="M162.1 31.4c0-.1-.1-.1-.1-.2l-.3-.3c-.1-.1-.1-.3 0-.5.1.2.2.3.3.5.1.1.2.3.2.4-.1 0-.1.1-.1.1M179.6 31.4v-.2c.1-.3.3-.6.5-.8v.4c0 .1-.1.2-.2.3-.1 0-.2.2-.3.3M178.9 31.3c-.1 0-.1-.1-.2-.1-.2-.1-.5-.2-.7-.3v-.1h.1c.2.1.5.1.7.3v.1s0 .1.1.1M162.8 31.3c0-.1.1-.2.1-.2l.2-.2c.2-.1.4-.1.6-.2 0 0 .1 0 .1-.1v.1c-.1.1-.2.1-.3.2-.2.2-.4.3-.7.4M162.7 31.2c0-.2-.1-.4-.1-.6 0-.1-.1-.3 0-.4.1-.1.1-.2.2-.3 0 .2.1.5.1.7-.1.2 0 .5-.2.6M178.9 31.2c0-.1 0-.1-.1-.2v-.1c0-.3 0-.7.1-1 .1.1.1.2.2.3v.1c0 .3-.1.6-.2.9z"/><path class="st3" d="M162.2 31c-.1-.1-.2-.3-.3-.4l-.1-.1s0-.1-.1-.1c0 0-.1-.1-.1-.2v-.1c0-.1.1-.2.1-.2.1.1.1.2.2.2.1.1.2.3.2.5v.4zM179.5 31v-.4c0-.1.1-.3.2-.4.1-.1.2-.3.3-.4 0 .1.1.2.1.3v.2c-.1.2-.3.4-.4.6-.1 0-.1 0-.2.1M163 30.9c0-.1.1-.2.1-.2s.1 0 .1-.1h.1c.1 0 .3-.1.4-.1 0 0 .1 0 .1-.1v.2c-.2.1-.4.2-.6.2 0 0-.1.1-.2.1M178.7 30.9c-.2-.1-.4-.2-.7-.3v-.2c.2.1.4.1.6.2 0 .2 0 .2.1.3zM162.9 30.8c0-.3-.1-.6-.1-.8v-.3l.2-.2v1.1s0 .1-.1.2M178.8 30.8c0-.1 0-.1-.1-.2-.1-.4 0-.7 0-1.1l.2.2v.3c0 .2-.1.5-.1.7v.1M162.3 30.5v-.3-.1c.1 0 .1-.1.2-.1l.1-.1-.3.6M179.4 30.5s0-.1-.1-.1v-.1c-.1-.2-.2-.3-.2-.5l.1.1s.1.1.2.1v.5M163.2 30.5c0-.1.1-.2.2-.3h.1c.1 0 .3-.1.4-.1v.1s-.1 0-.1.1c-.2.1-.4.1-.6.2M178.5 30.5s-.1 0-.1-.1c-.1 0-.2-.1-.3-.1v-.2c.1 0 .2 0 .3.1h.1c-.1.1-.1.2 0 .3M162.2 30.3c0-.1-.1-.2-.1-.2-.1-.1-.2-.3-.3-.4v-.1c0-.1.1-.2.2-.3.1.2.2.5.2.8v.2M163.2 30.3v-.8-.1l.2-.2c0 .3.1.5 0 .8-.1.1-.2.2-.2.3"/><path class="st3" d="M178.5 30.3c-.1-.1-.1-.2-.1-.3 0-.1 0-.2-.1-.3v-.6c.1 0 .1.1.2.1v1.1zM179.5 30.3s0-.1 0 0c0-.4.1-.7.3-1 0 .1.1.2.2.3-.2.2-.4.5-.5.7zM163.4 30.1l.1-.1c.1-.1.2-.1.3-.1h.1v.1s-.1 0-.1.1c-.2-.1-.3 0-.4 0M178.2 30.1c-.1 0-.2 0-.2-.1v-.2c.1.1.2.2.2.3M162.4 30v-.3c.1-.1.1-.2.2-.2.1-.1.3-.2.4-.4 0 .1 0 .1.1.2l-.3.3c-.2.1-.3.3-.4.4M179.3 30l-.1-.1c-.1 0-.2-.1-.2-.2l-.3-.3-.1-.1c0-.1 0-.2.1-.2l.4.4.2.2v.3M162.3 29.9c-.1-.3-.2-.5-.3-.8 0-.1.1-.2.1-.2 0 .1.1.3.1.4.1.2.1.4.1.6M179.4 29.9v-.4c0-.2.1-.4.2-.6 0 0 .1.1.1.2-.1.3-.2.5-.3.8M163.5 29.8v-.6c.1-.1.2-.1.3-.2 0 .2 0 .4-.1.6-.1 0-.2.1-.2.2M178.2 29.8c-.1-.1-.1-.2-.1-.2 0-.2 0-.4-.1-.6.1 0 .1.1.2.1 0 0 .1 0 .1.1-.1.1-.1.3-.1.6M163.7 29.7c.1-.1.2-.3.3-.4h.1c.1 0 .2 0 .3-.1v.2h-.4v.1c-.2.2-.3.2-.3.2M178 29.7c-.2-.1-.3-.2-.5-.2h-.1v-.2c.1 0 .2 0 .3.1.2 0 .2.2.3.3"/><path class="st7" d="M164.8 29.5c-.1-.1-.1-.2 0-.3.4-.2.8-.3 1.3-.5.2-.1.4-.1.6-.2.2-.1.5-.1.7-.2.4-.1.8-.2 1.3-.2H171.6c.7 0 1.4.1 2.1.3.6.1 1.2.3 1.8.4.2.1.4.1.6.2.2.1.5.2.7.3.1.1.1.2 0 .3h-.2c-.4-.1-.8-.2-1.1-.4-.2-.1-.4-.1-.7-.2-.7-.2-1.4-.3-2.1-.4h-.4c-.3 0-.6 0-.9-.1h-1.7c-.7 0-1.3.1-2 .3-.9.2-1.9.5-2.8.8.1-.1 0-.1-.1-.1"/><path class="st3" d="M162.4 29.5c0-.1.1-.2.1-.3.1-.1.2-.2.3-.4 0 0 .1.1.1.2l-.5.5M179.2 29.4c-.2-.1-.3-.3-.5-.5v-.1s0-.1.1-.1l.3.3c.1.2.1.3.1.4zM163.8 29.4c0-.1 0-.3.1-.4h.1c.1 0 .2-.1.3-.1 0 .1-.1.1-.1.2-.2 0-.3.1-.4.3M177.9 29.4c0-.1 0-.1 0 0-.2-.2-.3-.4-.4-.6.1 0 .2.1.3.1h.1v.5M162.4 29.3c0-.2-.1-.4-.2-.5 0-.1.1-.1.1-.2 0 .2.1.3.1.5v.2zM179.3 29.3c0-.1-.1-.1-.1-.2 0-.2.1-.3.1-.5 0 0 .2.1.1.2 0 .1-.1.3-.1.5z"/><path class="st3" d="M164 29.2c.1-.1.2-.2.2-.4V29.1c0 .1-.1.1-.2.1M177.7 29.2h-.1-.1v-.3s.1.2.2.3"/><path class="st7" d="M176.8 29.1c-.1 0-.3-.1-.4-.1 0-.1.1-.2.1-.3.1 0 .3.1.4.1-.1.1-.1.2-.1.3M164.9 29c0-.1-.1-.2-.1-.3.1-.1.2-.1.4-.2 0 .1.1.2.1.3-.2.1-.3.2-.4.2"/><path class="st3" d="M162.5 28.9c0-.1-.1-.3-.1-.4l.2-.2v.4c0 .1 0 .1-.1.2M179.2 28.9c-.1-.2-.1-.4-.1-.5l.2.2c-.1 0-.1.2-.1.3z"/><path class="st7" d="M176.3 28.9c-.2-.1-.3-.1-.5-.2 0-.1 0-.2.1-.3.2.1.3.1.5.2-.1.1-.1.2-.1.3"/><path class="st3" d="M162.7 28.9c0-.1 0-.3.1-.4V28.8c0-.1-.1 0-.1.1"/><path class="st7" d="M165.3 28.9c0-.1-.1-.2-.1-.3.2-.1.3-.1.5-.2 0 .1.1.2.1.3-.1 0-.3.1-.5.2"/><path class="st3" d="M179 28.9l-.1-.2c0-.1.1-.3.1-.3v.5c0-.1 0-.1 0 0"/><path class="st7" d="M176.9 28.7s-.1-.1-.2-.1c0-.1.1-.2.1-.3.1 0 .1 0 .2.1 0 .1 0 .2-.1.3M175.7 28.7c-.2-.1-.3-.1-.5-.2 0-.1.1-.2.1-.3.1 0 .2.1.3.1.1 0 .1 0 .2.1 0 .1-.1.2-.1.3M165.9 28.7c0-.1-.1-.2-.1-.3.2-.1.3-.1.5-.2 0 .1.1.2.1.3-.2.1-.3.1-.5.2M164.7 28.6c0-.1-.1-.2-.1-.3 0 0 .1-.1.2-.1 0 .1.1.2.1.3-.1.1-.1.1-.2.1M176.6 28.6c-.1 0-.2-.1-.4-.1 0-.1.1-.2.1-.3.1 0 .2.1.4.1 0 .1 0 .2-.1.3zM165 28.5c0-.1-.1-.2-.1-.3.1 0 .3-.1.4-.1l.1.3c-.2 0-.3.1-.4.1M175.1 28.5s-.1 0 0 0c-.2-.1-.4-.1-.5-.1 0-.1 0-.2.1-.3.2 0 .4.1.5.1 0 .1-.1.2-.1.3zM166.5 28.5c0-.1-.1-.2-.1-.3.2 0 .3-.1.5-.1 0 .1 0 .2.1.3-.2 0-.3 0-.5.1M176.1 28.4c-.2-.1-.4-.1-.5-.2 0-.1.1-.2.1-.3.2.1.4.1.5.2 0 .1 0 .2-.1.3M174.5 28.3c-.2 0-.4-.1-.5-.1 0-.1 0-.2.1-.3.2 0 .4.1.5.1-.1.2-.1.2-.1.3M165.5 28.3l-.1-.3c.2 0 .3-.1.5-.1 0 .1.1.2.1.3-.2 0-.4.1-.5.1M167.1 28.3c0-.1-.1-.2-.1-.3.2 0 .3-.1.5-.1 0 .1 0 .2.1.3-.1 0-.3.1-.5.1"/><path class="st7" d="M177.1 28.3c-.2-.1-.4-.1-.5-.2-.5-.2-1-.3-1.5-.4-.3-.1-.6-.1-.9-.2-.4-.1-.9-.2-1.3-.2-.3 0-.6-.1-.8-.1H169.5c-.7 0-1.4.1-2 .3-.5.1-1 .2-1.5.4-.5.1-1 .3-1.4.5-.1 0-.2 0-.2-.1s0-.1.1-.2c.3-.1.6-.2 1-.4.2-.1.4-.1.6-.2.2-.1.5-.1.7-.2.1 0 .3-.1.4-.1l1.8-.3H172.5c1.2.1 2.3.3 3.5.6.5.1.9.3 1.4.4 0 0 .1 0 .1.1s.1.1.1.2 0 .1-.1.2c-.2-.1-.3-.1-.4-.1.1 0 0 0 0 0"/><path class="st7" d="M173.8 28.2c-.2 0-.3-.1-.5-.1 0-.1 0-.2.1-.3.2 0 .3.1.5.1 0 .1 0 .2-.1.3zM175.5 28.2c-.2 0-.3-.1-.5-.1 0-.1 0-.2.1-.3.2 0 .3.1.5.1-.1.1-.1.2-.1.3zM167.8 28.2c0-.1 0-.2-.1-.3.2 0 .3-.1.5-.1 0 .1 0 .2.1.3-.2 0-.4 0-.5.1M166 28.1c0-.1-.1-.2-.1-.3.2 0 .4-.1.6-.1 0 .1 0 .2.1.3-.2 0-.4.1-.6.1M173.2 28.1c-.2 0-.3-.1-.5-.1v-.3c.2 0 .3 0 .5.1.1.1.1.2 0 .3zM168.4 28.1v-.3c.2 0 .3 0 .5-.1v.3c-.2 0-.4 0-.5.1M174.9 28c-.2 0-.3-.1-.5-.1 0-.1 0-.2.1-.3.2 0 .4.1.5.1-.1.1-.1.3-.1.3zM172.6 28c-.2 0-.3 0-.5-.1v-.3c.2 0 .3 0 .5.1.1.1.1.2 0 .3zM168.9 28v-.3h.5v.3h-.5M166.7 28c0-.1-.1-.2-.1-.3.2 0 .3-.1.5-.1 0 .1 0 .2.1.3-.2 0-.3 0-.5.1M172 28h-.5v-.3h.6c-.1.1-.1.2-.1.3zM169.6 27.9v-.3h.5v.3h-.5M171.3 27.9h-.5v-.3h.6c-.1.1-.1.2-.1.3M170.2 27.9v-.3h.5v.3h-.5M174.2 27.9c-.2 0-.4-.1-.5-.1v-.3c.2 0 .4.1.6.1 0 .1 0 .2-.1.3M167.3 27.8c0-.1 0-.2-.1-.3.2 0 .3-.1.5-.1v.3c-.1.1-.2.1-.4.1"/><path class="st4" d="M177.3 27.8s-.1 0 0 0c-.2-.1-.4-.1-.5-.2.2-.5.3-1 .6-1.4.1-.2.2-.4.4-.5h.4c-.4.7-.7 1.4-.9 2.1"/><path class="st7" d="M173.5 27.8c-.2 0-.3-.1-.5-.1v-.3c.2 0 .3.1.5.1.1.1.1.2 0 .3.1-.1.1 0 0 0"/><path class="st4" d="M164.3 27.7c-.3-.7-.6-1.4-.8-2.2H163.8c.2.1.3.2.4.3 0 .1.1.2.1.3.2.4.4.9.5 1.4-.1.1-.3.2-.5.2"/><path class="st7" d="M167.9 27.7v-.3c.2 0 .4-.1.6-.1v.2c-.2.1-.4.2-.6.2M173 27.7c-.2 0-.3 0-.5-.1v-.3c.2 0 .4 0 .6.1-.1.1-.1.2-.1.3zM168.6 27.6v-.3c.2 0 .4-.1.5-.1v.3h-.1c-.1.1-.3.1-.4.1M172.3 27.6h-.6v-.3h.6c.1.1.1.2 0 .3zM169.2 27.5v-.3h.5v.3h-.5M176.6 27.5c-.1 0-.1 0-.2-.1.1-.3.2-.6.4-1 .2-.3.3-.7.6-1l.1-.1.1-.1c.1 0 .1 0 .2-.1h.2c.1 0 .1 0 .2.1 0 0 0 .1-.1.1-.2 0-.4 0-.6.1-.3.2-.5.6-.6 1-.1.5-.2.8-.3 1.1M171.6 27.5h-.5v-.3h.6c0 .1 0 .2-.1.3zM165 27.5c-.2-.4-.3-.8-.4-1.2 0-.1 0-.1-.1-.2-.1-.3-.3-.5-.5-.7h-.5c0-.1 0-.1-.1-.1.1 0 .2-.1.3-.1h.1c.5 0 .7.5.9.9 0 .1.1.2.1.3v.1c.1.3.2.6.4.9-.1.1-.1.1-.2.1M169.8 27.5v-.3h.5v.3h-.5M170.9 27.5h-.4v-.3h.6c-.1.1-.1.2-.2.3.1 0 0 0 0 0M176.3 27.4c-.1 0-.1-.1-.2-.1 0-.1 0-.1.1-.2 0-.1.1-.2.1-.3.1 0 .1.1.2.1v.1c-.1.2-.1.3-.2.4M165.3 27.4c-.1-.1-.1-.3-.2-.4.1 0 .1-.1.2-.1.1.1.1.3.2.4-.1.1-.1.1-.2.1M175.9 27.3c-.1 0-.2 0-.2-.1 0-.2.1-.3.1-.5h.2c-.1.3-.1.5-.1.6zM165.7 27.3v-.5c.1 0 .1 0 .2-.1 0 .1.1.3.1.4-.1.1-.2.2-.3.2M176 27.3c0-.3 0-.6.1-.9.1 0 .2 0 .3.1-.2.2-.3.5-.4.8M165.6 27.3c0-.1-.1-.2-.1-.3h.1v.3M175.5 27.2c-.1 0-.1 0-.2-.1 0-.2.1-.3.1-.5.1 0 .1 0 .2.1 0 .2 0 .4-.1.5zM166.1 27.2c0-.2-.1-.3-.1-.4h.2c0 .1.1.3.1.4h-.2M175.2 27.2h-.2c.1-.4.2-.8.3-1.3v-.3-.3c0-.1 0-.3-.1-.4 0 0 0-.1-.1-.1-.1-.1-.2-.1-.3-.2H174.2c-.1 0-.1.1-.2.1-.1.1-.2.3-.3.5-.2.5-.2 1.1-.3 1.7h-.2c.1-.3.1-.7.2-1 .1-.4.2-.8.4-1.1.1-.1.2-.2.4-.3.2-.1.5 0 .7 0 .1 0 .1 0 .2.1l.2.2.1.1c0 .1.1.2.1.3v.2c0 .2 0 .5-.1.7 0 .3-.1.7-.2 1.1zM166.4 27.1c-.1-.3-.1-.7-.2-1 0-.3-.1-.5-.1-.8 0-.2 0-.3.1-.5 0-.1.1-.1.2-.2 0 0 .1-.1.2-.1.1-.1.2-.1.4-.1H167.3c.1 0 .2 0 .2.1.1 0 .2.1.3.2 0 0 0 .1.1.1 0 .1.1.1.1.2s.1.2.1.2c0 .2.1.3.1.5.1.4.1.7.2 1.1h-.2c-.1-.4-.1-.7-.2-1.1-.1-.3-.1-.7-.4-1 0 0-.1 0-.1-.1h-.7c-.1 0-.2.1-.3.2-.2.3-.1.7-.1 1.1.1.4.2.8.2 1.1-.1.1-.1.1-.2.1"/><path class="st4" d="M174.9 27.1c-.4-.1-.8-.2-1.2-.2.1-.4.1-.8.2-1.1.1-.3.1-.6.3-.9l.1-.1H174.6c.2 0 .3.1.4.2 0 0 0 .1.1.1.1.2.1.3.1.5s0 .3-.1.5c0 .3-.1.6-.2 1zM166.7 27c-.1-.3-.1-.7-.2-1 0-.3-.1-.5-.1-.8 0-.2.1-.4.3-.5h.5c.1 0 .2.1.3.2.1.2.2.5.3.7.1.4.1.8.2 1.2-.2 0-.5.1-.7.1-.2.1-.4.1-.6.1"/><path class="st7" d="M176.5 26.9c-.1 0-.1-.1-.2-.1.1-.1.1-.2.2-.4.1 0 .1.1.2.1-.1.1-.1.3-.2.4M165.1 26.9c-.1-.1-.1-.2-.1-.4 0 0 .1-.1.2-.1 0 0 .2.4.1.4s-.1 0-.2.1"/><path class="st7" d="M165.4 26.8c-.1-.1-.1-.3-.2-.4h.1c.1.1.1.2.1.4.1 0 0 0 0 0M173.2 26.8h-.2c0-.2.1-.3.1-.5h.2c0 .2-.1.3-.1.5zM165.6 26.8c0-.2-.1-.3-.1-.4h.1v.4M168.4 26.8c0-.2 0-.3-.1-.5h.2v.4l-.1.1M172.9 26.8h-.2c0-.2.1-.3.1-.5h.2c0 .1-.1.3-.1.5zM168.7 26.7c0-.2-.1-.3-.1-.5h.2c0 .2.1.3.1.5h-.2M175.9 26.7c-.2 0-.3-.1-.5-.1 0-.1.1-.3.1-.4.1 0 .3.1.4.1v.4zM165.7 26.7v-.4c.1 0 .3-.1.4-.1 0 .1.1.3.1.4 0 .1-.4 0-.5.1M172.4 26.7h-.2v-.5h.2c0 .2.1.3 0 .5zM169.1 26.7c0-.2-.1-.3-.1-.5h.2c-.1.2-.1.3-.1.5zM169.2 26.7c0-.2 0-.3.1-.5h.2v.4c-.1.1-.2.1-.3.1M172 26.7h-.1v-.5h.2c0 .1 0 .3-.1.5zM171.8 26.7h-.2v-1.3c0-.2 0-.5-.1-.7 0-.1-.1-.1-.1-.1l-.1-.1c-.1 0-.1-.1-.2-.1H170.5h-.1c-.1 0-.1.1-.2.1s-.1.2-.1.3v1.9h-.2V26c0-.5 0-1 .2-1.5.1-.1.1-.2.2-.2.3-.2.8-.2 1.2 0l.1.1c.1.1.1.2.2.3 0 .1 0 .2.1.3-.1.5-.1 1.1-.1 1.7zM169.5 26.7v-.5h.2v.5h-.2"/><path class="st4" d="M171.4 26.6h-1.2c0-.5-.1-1.1 0-1.6 0-.2 0-.3.1-.4l.1-.1.1-.1c.2-.1.4-.1.6 0 .2.1.3.2.3.3 0 .1 0 .2.1.2v.4c0 .5 0 .9-.1 1.3z"/><path class="st7" d="M172.6 26.6c0-.3-.1-.6-.1-.9h.4c-.1.4-.2.6-.3.9zM176.7 26.4s-.1-.1-.2-.1c.1-.1.1-.3.2-.4.1 0 .2.1.2.1-.1.2-.1.3-.2.4M164.9 26.4c0-.1-.1-.1-.1-.2s-.1-.1-.1-.2l.2-.1c.1.1.1.3.2.4-.1 0-.1.1-.2.1M176.4 26.3c-.1 0-.2-.1-.3-.1v-.4c.1 0 .3.1.4.1 0 .2-.1.3-.1.4M165.2 26.3c0-.1-.1-.1-.1-.2 0 0-.1-.1-.1-.2h.1c.1 0 .2-.1.3-.1v.4s-.1 0-.2.1"/><path class="st7" d="M173.3 26.2c-.2 0-.3 0-.5-.1 0-.1.1-.3.1-.4h.4c.1.2.1.4 0 .5zM168.3 26.2c0-.1-.1-.3-.1-.4h.4c0 .1.1.3.1.4-.1-.1-.2 0-.4 0M176 26.2c-.1 0-.3-.1-.4-.1v-.4c.1 0 .2.1.4.1v.4zM165.7 26.2v-.4c.1 0 .2-.1.4-.1 0 .1 0 .2.1.4-.3 0-.4 0-.5.1M168.9 26.1c0-.1-.1-.3-.1-.4h.2c0 .1 0 .3-.1.4M169.1 26.1v-.4h.1c0 .1 0 .3-.1.4M169.3 26.1v-.4h.4v.4h-.4M172.4 26.1h-.5v-.4h.4c.1.1.1.2.1.4zM176.9 25.9c-.1 0-.1-.1-.2-.1 0-.1.1-.2.1-.3.1 0 .2.1.3.1 0 .1-.1.2-.2.3zM164.7 25.9c-.1-.1-.1-.2-.2-.3.1 0 .2-.1.3-.1 0 .1.1.2.1.3-.1 0-.2.1-.2.1M176.6 25.9c-.1 0-.1 0-.2-.1 0-.1.1-.3.1-.4.1 0 .2 0 .2.1s-.1.2-.1.4M165 25.8s0-.1 0 0c-.1-.1-.1-.2-.1-.3v-.1c.1 0 .2-.1.2-.1 0 .1.1.2.1.4-.1 0-.1.1-.2.1M176.3 25.8c-.1 0-.1 0-.2-.1v-.4c.1 0 .2 0 .3.1 0 .1-.1.2-.1.4M165.3 25.7c0-.1-.1-.2-.1-.4.1 0 .2 0 .3-.1v.4c-.1.1-.1.1-.2.1M172.8 25.7h-.4c0-.1 0-.3-.1-.4.2 0 .4 0 .6.1.1 0 0 .1-.1.3.1 0 0 0 0 0M173.4 25.7h-.4c0-.1.1-.3.1-.4h.4c0 .1-.1.3-.1.4zM176 25.7c-.1 0-.2-.1-.4-.1v-.4c.1 0 .3.1.4.1v.4zM168.2 25.7s0-.1 0 0c0-.2-.1-.3-.1-.4h.4c0 .1.1.3.1.4-.1-.1-.3-.1-.4 0M165.6 25.7v-.4c.1 0 .3-.1.4-.1v.4c-.1 0-.3 0-.4.1M168.7 25.6c0-.1-.1-.3-.1-.4h.7c0 .1 0 .3-.1.4h-.5M169.3 25.6v-.4h.4v.4c-.1-.1-.2-.1-.4 0"/><path class="st7" d="M172.3 25.5h-.3v-.4h.4c-.1.2-.1.3-.1.4zM177.2 25.5c-.1 0-.2-.1-.3-.1.1-.1.1-.3.2-.4.1 0 .2.1.3.1-.1.1-.1.2-.2.4M164.4 25.5c-.1-.2-.1-.3-.2-.4.1 0 .2-.1.3-.1.1.1.1.3.2.4-.1 0-.2 0-.3.1M176.8 25.4c-.2-.1-.4-.1-.6-.2v-.5c.3.1.5.1.8.2-.1.2-.2.4-.2.5M164.8 25.3c-.1-.1-.1-.3-.2-.4.3-.1.5-.1.8-.2v.5c-.1 0-.4.1-.6.1M177.4 25.3c0-.1 0-.1.1-.2.1 0 .1.1.2.1-.1 0-.2 0-.3.1M164.2 25.3c-.1-.1-.2-.1-.3-.1.1 0 .2-.1.2-.1.1 0 .1.1.1.2M178.2 25.3c-.1-.1-.2-.1-.3-.1 0-.1.1-.2.1-.3.1 0 .2.1.3.1 0 0 0 .2-.1.3zM163.4 25.2c0-.1-.1-.1-.1-.2v-.1c.1 0 .2-.1.3-.1 0 .1.1.2.1.3-.1.1-.2.1-.3.1M176 25.2c-.1 0-.3-.1-.4-.1V25c0-.1.1-.3.1-.4.1 0 .2.1.4.1 0 .2-.1.3-.1.5zM165.6 25.2v-.4-.1c.1 0 .2-.1.3-.1 0 .1.1.2.1.4v.1c-.1 0-.3 0-.4.1M173.5 25.2h-.4c0-.1.1-.2.1-.4h.4c0 .1 0 .2-.1.4z"/><path class="st7" d="M173 25.2h-.2c0-.1 0-.3.1-.4h.3c-.1.1-.1.2-.2.4M168.1 25.2c0-.1-.1-.2-.1-.3h.4c0 .1.1.2.1.4-.2-.2-.3-.2-.4-.1M172.6 25.1h-.2c0-.1 0-.3-.1-.4h.4c0 .2 0 .3-.1.4M168.6 25.1c0-.1-.1-.3-.1-.4h.4c0 .1 0 .2.1.4h-.4M177.8 25.1c-.2-.1-.5-.2-.7-.2 0-.1.1-.2.1-.3.2.1.4.2.6.2.1.1 0 .2 0 .3zM163.8 25.1c0-.1-.1-.2-.1-.3.2-.1.4-.2.7-.2 0 .1.1.2.1.3-.2 0-.5.1-.7.2"/><path class="st7" d="M169 25.1c0-.1 0-.3-.1-.4h.4v.4h-.3M169.4 25v-.4h.4c0 .1 0 .3-.1.4h-.3M172.2 25h-.3c0-.1 0-.3-.1-.4h.4v.4zM177 24.9c-.1 0-.1 0-.2-.1 0-.1.1-.2.1-.4.1 0 .1 0 .2.1 0 .1 0 .2-.1.4 0-.1 0 0 0 0M178.4 24.8c-.2-.1-.4-.2-.6-.2 0-.1.1-.2.1-.3v-.1c.1.1.3.1.4.2.1 0 .1 0 .2.1v.1s0 .1-.1.2zM175.5 24.8l-.3-.3c.1 0 .2.1.3.1.1.1 0 .1 0 .2M163.2 24.8c-.1-.2-.1-.3-.1-.3.2-.1.4-.2.6-.2 0 .1.1.2.1.4-.2 0-.4 0-.6.1M166.1 24.8c0-.1 0-.2-.1-.2.1 0 .2-.1.3-.1 0 .1-.1.2-.2.3M164.6 24.8c-.1-.1-.1-.2-.2-.4.1 0 .2 0 .2-.1 0 .1.1.2.1.4 0 0 0 .1-.1.1M173.7 24.7c-.1 0-.3 0-.4-.1 0-.2.1-.3.1-.5h.4c0 .3 0 .5-.1.6zM167.9 24.7c0-.2-.1-.3-.1-.5h.4c0 .2.1.3.1.5h-.4M173.2 24.7c-.3 0-.6-.1-.8-.1 0-.2 0-.3-.1-.5.3 0 .7.1 1 .1 0 .2-.1.3-.1.5M176.4 24.7c-.1 0-.1 0-.2-.1v-.4c.1 0 .2 0 .3.1-.1.2-.1.3-.1.4zM168.4 24.6c0-.2-.1-.3-.1-.5h.3c.2 0 .5 0 .7-.1v.5c-.3.1-.6.1-.9.1M165.2 24.6c0-.1-.1-.2-.1-.4 0-.1.2-.1.3-.1v.4c0 .1-.1.1-.2.1M176.1 24.6c-.1 0-.3-.1-.4-.1-.1 0-.2-.1-.3-.1 0-.1.1-.2.1-.3.2.1.5.1.7.2-.1.1-.1.2-.1.3zM165.5 24.6v-.3c.2-.1.4-.1.6-.2 0 .1.1.2.1.3-.2.1-.4.1-.7.2"/><path class="st7" d="M177.7 24.6c-.1 0-.2-.1-.3-.1 0-.1.1-.2.1-.3.1 0 .2.1.4.1-.1 0-.2.1-.2.3M169.4 24.6c0-.2 0-.3.1-.5h.4v.4c-.2 0-.3 0-.5.1M163.9 24.5c0-.1-.1-.2-.1-.4.1 0 .2-.1.3-.1 0 .1.1.2.1.3 0 .2-.1.2-.3.2M172.1 24.5h-.4v-.1-.4h.4c.1.2.1.4 0 .5zM167.7 24.5c0-.1-.2-.1-.2-.1h-.1-.1c.1 0 .3 0 .4-.1v.2M173.9 24.5v-.3c.1 0 .3 0 .4.1-.1.1-.2.1-.4.2M175.2 24.4c-.3-.1-.6-.1-.8-.2 0-.1 0-.2.1-.3.3.1.6.1.9.2-.1.1-.1.2-.2.3M166.4 24.4c0-.1-.1-.2-.1-.3.3-.1.6-.1.9-.2 0 .1 0 .2.1.3-.4.1-.6.1-.9.2M178.6 24.4s-.2-.1-.3-.1c0-.1.1-.2.1-.4 0 0 .1 0 .2.1 0 0 .1 0 .2.1-.1 0-.2.2-.2.3zM163 24.3c-.1-.1-.1-.2-.1-.3.1 0 .2-.1.3-.1 0 .1.1.2.1.4h-.3M170 24.3V24h.4c-.2.1-.3.1-.4.3M171.6 24.3s0-.1 0 0c-.1-.1-.2-.2-.3-.2h.3c.1 0 0 .1 0 .2M178.2 24.2c-.2-.1-.4-.2-.6-.2h-.1c0-.1.1-.2.1-.3.2.1.5.2.7.2 0 .1-.1.2-.1.3M174.3 24.2c-.3 0-.5-.1-.8-.1 0-.1.1-.2.1-.3.3 0 .5.1.8.1-.1.1-.1.2-.1.3zM163.4 24.2c0-.1-.1-.3-.1-.4.2-.1.4-.2.7-.2 0 .1.1.2.1.3-.1 0-.3.1-.4.1-.1.1-.2.2-.3.2M167.3 24.2c0-.1 0-.2-.1-.4.3 0 .5-.1.8-.1 0 .1.1.2.1.3-.2.1-.5.2-.8.2M176.1 24.2h-.1c-.1 0-.2-.1-.3-.1 0-.1.1-.2.1-.4.1 0 .2.1.3.1v.4zM165.5 24.1v-.4c.1 0 .2-.1.3-.1 0 .1.1.3.1.4-.1.1-.3.1-.4.1M173.3 24.1h-.3c0-.1 0-.3.1-.4h.3c0 .2 0 .3-.1.4zM168.3 24.1c0-.1-.1-.3-.1-.4h.4v.1c0 .1 0 .2.1.3h-.4M172.5 24.1h-.3c0-.1 0-.3-.1-.4h.4v.1c.1.1.1.2 0 .3M175.6 24c-.2-.1-.4-.1-.6-.2 0-.1.1-.2.1-.4.2 0 .5.1.7.2-.1.2-.2.3-.2.4zM166 24l-.1-.4c.2-.1.4-.1.6-.1 0 .1.1.2.1.4-.1 0-.4.1-.6.1M169.1 24v-.4h.4v.4h-.4M169.5 24v-.3c.3 0 .5 0 .8-.1v.4c-.3-.1-.5-.1-.8 0M172.1 24h-.7v-.3c.2 0 .5 0 .7.1v.2zM178.8 23.9c-.4-.1-.7-.3-1.1-.4v-.4h.2l.9.3c.1.1.3.1.4.2 0 .1-.4.3-.4.3M170.4 23.9v-.4h.9v.3h-.9zM162.8 23.9l-.3-.3c.3-.2.6-.3 1-.4.2-.1.3-.1.5-.1v.4c-.1 0-.2.1-.3.1l-.9.3M174.8 23.8c-.2 0-.4-.1-.6-.1 0-.1 0-.3.1-.4.2 0 .5.1.7.1-.1.2-.1.3-.2.4zM166.8 23.8c0-.1-.1-.3-.1-.4.2 0 .4-.1.7-.1 0 .1 0 .3.1.4-.3.1-.5.1-.7.1M174 23.7c-.1 0-.3 0-.4-.1 0-.1.1-.3.1-.4h.4c0 .2 0 .4-.1.5z"/><path class="st7" d="M167.5 23.7c0-.1 0-.3-.1-.4h.4c0 .1.1.2.1.4h-.4M176.1 23.6c-.2-.1-.4-.1-.6-.2 0-.1.1-.2.1-.3.2.1.4.1.6.2 0 0 0 .1-.1.1v.1c.1 0 0 .1 0 .1zM165.5 23.6v-.2l-.1-.1c.2-.1.4-.1.6-.2 0 .1.1.2.1.4-.2 0-.4.1-.6.1M179.2 23.6s0-.1 0 0c-.2-.1-.3-.2-.4-.2 0-.1.1-.2.1-.2s0-.1.1-.1.3.1.4.2c0 0-.1.2-.2.3M162.4 23.6s-.1-.1-.1-.2v-.1-.2c.1-.1.3-.2.4-.2h.1c.1.1.1.2.2.4-.1 0-.2.1-.3.2-.3 0-.3 0-.3.1M172 23.5h-.4v-.4h.3c.1.2.2.3.1.4zM169.5 23.5v-.4h.4v.4h-.4M171.5 23.5h-.6v-.4h.7c0 .1 0 .2-.1.4zM170.1 23.5v-.4h.7v.4h-.7M175.4 23.5c-.1 0-.3-.1-.4-.1-.1 0-.2 0-.4-.1 0-.1 0-.2.1-.4.3 0 .6.1.8.2 0 .1-.1.2-.1.4zM166.2 23.4c0-.1-.1-.2-.1-.4.3-.1.6-.1.9-.2 0 .1 0 .2.1.4-.3.1-.6.2-.9.2M174.5 23.3c-.2 0-.5-.1-.7-.1V23v-.2c.2 0 .5 0 .7.1v.4z"/><path class="st7" d="M167.1 23.3c0-.1 0-.3-.1-.4h.7c0 .1 0 .2.1.4-.2-.1-.4-.1-.7 0 .1 0 .1 0 0 0M176.3 23.2c-.3-.1-.7-.2-1-.3-.1 0-.3-.1-.4-.1-.3-.1-.7-.1-1-.1 0-.1-.1-.3-.1-.4.9.1 1.8.3 2.6.5.1 0 .3.1.4.1-.1.1-.2.2-.3.2-.1 0-.2.1-.2.1M165.3 23.2s-.1-.1 0 0c-.2-.2-.3-.2-.4-.3.1 0 .2-.1.3-.1.8-.2 1.7-.4 2.5-.5h.2c0 .1-.1.2-.1.4-.8.1-1.6.2-2.5.5M178.2 23.1c-.2-.1-.3-.1-.5-.1 0-.1 0-.3.1-.4.1 0 .3.1.4.1 0 0 .1 0 .1.1s-.1.2-.1.3zM163.4 23.1c0-.1-.1-.2-.1-.3v-.1c.2-.1.3-.1.5-.1.1 0 .1.1.1.2v.2c-.1 0-.3 0-.5.1M172 23h-.6v-.4h.7c-.1.1-.1.3-.1.4zM169.6 23v-.2-.2h.7v.4h-.7M171.1 23h-.7v-.4h.9v.4h-.2zM176.8 22.8c-.2-.1-.4-.1-.5-.1 0-.1.1-.2.1-.4.2 0 .4.1.5.2v.1s-.1.1-.1.2zM164.8 22.8c-.1-.1-.1-.2-.1-.3 0-.1 0-.1.1-.2s.3-.2.5-.1c0 .1.1.3.1.4-.2.1-.4.1-.6.2M172.1 22.5h-2.6c0-.1-.1-.2-.2-.3.8-.1 1.7-.1 2.6-.1h.5l-.1.1c0 .1-.1.2-.2.3M175.6 22.5c-.2-.1-.5-.1-.7-.1 0-.1.1-.2.1-.3 0-.1.1-.1.1-.1.2 0 .3.1.5.1 0 0 .1 0 .1.1v.1c-.1 0-.2.1-.1.2M166 22.5v-.4-.1c.2-.1.4-.1.5-.1 0 0 .1 0 .1.1s0 .2.1.3c-.2.1-.4.2-.7.2M174.2 22.3c-.2 0-.3 0-.5-.1v-.4c.1-.1.5-.1.6 0v.3c-.1 0-.1.1-.1.2M167.4 22.3v-.2s-.1-.2 0-.3h.1c.1 0 .4-.1.5 0v.4h-.2c-.1 0-.2 0-.4.1M169.3 22.1c0-.1-.1-.3-.1-.4 0-.1.2-.1.3-.1h.3v.4c-.2.1-.3.1-.5.1"/><path class="st7" d="M172.5 22.1h-.5V22v-.3c.1-.1.3 0 .4 0h.1l.1.1s-.1.2-.1.3M170.5 22c0-.1-.1-.4.1-.4h.5l.1.1v.4c-.2-.1-.4-.1-.7-.1"/><path class="st2" d="M272.6 27.2h-3.7v1.6h2.9v1.5h-2.9V32h3.7v1.5H267v-7.8h5.6v1.5zm-11.4-.1V32h.8c.7 0 1.2-.2 1.5-.7.3-.5.5-1.1.5-1.8 0-.5-.1-.9-.3-1.3-.2-.4-.4-.7-.7-.8-.3-.2-.6-.2-1-.2h-.8zm-1.8-1.4h2.4c1 0 1.7.1 2.2.4.5.3.9.7 1.3 1.3.4.6.6 1.3.6 2.2 0 1.1-.3 2.1-1 2.8-.7.8-1.6 1.1-2.7 1.1h-2.7v-7.8zm-8.3 4.7h1.7l-.8-2.7-.9 2.7zm2.1-4.7l2.4 7.8h-2l-.5-1.6h-2.5l-.5 1.6h-1.6l2.5-7.8h2.2zm-9.7 1.4v2h1.1c.4 0 .6 0 .8-.1.2-.1.3-.2.4-.3.1-.2.2-.4.2-.6 0-.2-.1-.4-.2-.6-.1-.2-.3-.3-.4-.3-.2 0-.4-.1-.9-.1h-1zm0 3.3v3.1h-1.8v-7.8h3.4c.6 0 1.1.1 1.5.2.4.1.7.4 1 .8.3.4.4.8.4 1.3 0 .9-.5 1.6-1.4 2l1.4 3.5h-2l-1.2-3.1h-1.3zm-3.3-4.7v4.9c0 .8-.1 1.4-.3 1.8-.2.4-.5.7-1 .9-.5.2-1.1.4-1.9.4-.8 0-1.4-.1-1.8-.3-.4-.2-.8-.5-1-.9-.2-.4-.3-1-.3-1.8v-4.9h2v4.9c0 .4 0 .7.1.9.1.2.2.4.4.5.2.1.5.2.8.2.3 0 .6-.1.8-.2.2-.1.4-.3.4-.5.1-.2.1-.5.1-.9v-4.9h1.7zm-7 0v1.5h-1.9v6.3h-1.9v-6.3h-1.9v-1.5h5.7zm-6.5 7.8h-1.8v-7.8h1.8v7.8zm-2.9-6.3h-3.7v1.6h2.9v1.5h-2.9V32h3.7v1.5h-5.6v-7.8h5.6v1.5zm-6.5 0h-3.7V29h2.9v1.5h-2.9v3.1h-1.9v-7.8h5.6v1.4zm-6.7 0h-3.7v1.6h2.9v1.5h-2.9V32h3.7v1.5H205v-7.8h5.6v1.5zm-11.5-.1v2h1.1c.4 0 .6 0 .8-.1.2-.1.3-.2.4-.3.1-.2.2-.4.2-.6 0-.2-.1-.4-.2-.6-.1-.2-.3-.3-.4-.3-.2 0-.4-.1-.9-.1h-1zm0 3.3v3.1h-1.8v-7.8h3.4c.6 0 1.1.1 1.5.2.4.1.7.4 1 .8.3.4.4.8.4 1.3 0 .9-.5 1.6-1.4 2l1.4 3.5h-2l-1.2-3.1h-1.3zm-7.1-1.2h1.2c.5 0 .8-.1 1-.3.2-.2.3-.5.3-.7 0-.3-.1-.6-.3-.8-.2-.2-.5-.3-.9-.3H192v2.1zm.1 1.4v2.9h-1.9v-7.8h3.1c.7 0 1.2.1 1.6.2.4.1.7.4 1 .8.3.4.4.8.4 1.4 0 .4-.1.8-.2 1.1-.2.4-.4.7-.6.9-.3.2-.5.4-.8.4-.3.1-.7.1-1.2.1h-1.4zM265 41.1c-.2.4-.3.8-.3 1.4 0 .5.1.9.2 1.3s.3.8.5 1.1c.2.3.5.6.8.8.3.2.6.2 1 .2h.2c.4 0 .8-.2 1.2-.4.3-.2.6-.5.8-.9.2-.4.3-.8.3-1.3s-.1-.9-.2-1.4c-.1-.5-.3-.9-.5-1.2-.2-.3-.5-.6-.8-.7-.3-.2-.6-.2-.9-.2h-.3c-.4 0-.7.1-1.1.3-.4.3-.7.6-.9 1m1.5-3.7h.6c.9 0 1.7.2 2.6.5.9.3 1.6.8 2.1 1.4.5.6.8 1.2 1 1.8.2.6.3 1.2.3 1.8 0 .7-.1 1.4-.4 2.1-.3.8-.7 1.4-1.3 1.9-.6.5-1.3.9-2 1.1-.7.2-1.4.3-2.1.3-.8 0-1.5-.1-2.3-.3-.7-.2-1.4-.6-2-1.1-.6-.5-1-1.2-1.3-1.9-.3-.7-.4-1.5-.4-2.2v-.5c0-.1.1-.4.2-1s.4-1.2.9-1.8c.5-.7 1-1.1 1.7-1.4.6-.3 1.1-.5 1.4-.5.3-.2.7-.2 1-.2m-11.6.2h3.3v8.1h3.4v2.5h-6.8V37.6zm-11 0h3.4v6.5c0 .6 0 .9.1 1.2.1.2.3.4.5.5s.5.2 1 .2c.4 0 .8-.1 1-.2.2-.1.4-.3.5-.6.1-.3.1-.6.1-1v-6.6h3.1V44c0 .9-.1 1.6-.3 2.2-.2.6-.6 1-1.1 1.3-.5.3-1.1.5-1.6.6-.5.1-1.1.1-1.8.1-.6 0-1.2-.1-1.8-.2-.6-.1-1.1-.3-1.7-.7-.6-.3-.9-.8-1.1-1.4-.2-.6-.3-1.4-.3-2.4v-5.9zM237 44h2.1l-1-3.2L237 44zm3-6.5l3.9 10.7h-3.6l-.6-2h-3.3l-.6 2h-3.3l4-10.7h3.5zm-12.2 4.9h.5c.5 0 .9 0 1.1-.1.2-.1.4-.2.5-.4.1-.2.2-.4.2-.6 0-.3-.1-.6-.2-.8-.2-.2-.3-.4-.5-.4-.2-.1-.5-.1-.8-.1h-.7v2.4zm-3.3-4.8h4.6c.8 0 1.7.1 2.4.4.8.3 1.3.7 1.6 1.3.3.6.5 1.2.5 1.9s-.2 1.4-.6 2c-.4.6-1 1-1.7 1.2-.8.2-1.6.3-2.5.3h-1v3.4h-3.3V37.6zm-12 3.5c-.2.4-.3.8-.3 1.4 0 .5.1.9.2 1.3s.3.8.5 1.1c.2.3.5.6.8.8.3.2.6.2 1 .2h.2c.4 0 .8-.2 1.2-.4.3-.2.6-.5.8-.9.2-.4.3-.8.3-1.3s-.1-.9-.2-1.4c-.1-.5-.3-.9-.5-1.2-.2-.3-.5-.6-.8-.7-.3-.2-.6-.2-.9-.2h-.3c-.4 0-.7.1-1.1.3-.4.3-.7.6-.9 1m1.5-3.7h.6c.9 0 1.7.2 2.6.5.9.3 1.6.8 2.1 1.4.5.6.8 1.2 1 1.8.2.6.3 1.2.3 1.8 0 .7-.1 1.4-.4 2.1-.3.8-.7 1.4-1.3 1.9-.6.5-1.3.9-2 1.1-.7.2-1.4.3-2.1.3-.8 0-1.5-.1-2.3-.3-.7-.2-1.4-.6-2-1.1-.6-.5-1-1.2-1.3-1.9-.3-.7-.4-1.5-.4-2.2v-.5c0-.1.1-.4.2-1s.4-1.2.9-1.8c.5-.7 1-1.1 1.7-1.4.6-.3 1.1-.5 1.4-.5.3-.2.7-.2 1-.2m-8-2.2h.7c-.1.4-.2.6-.4.9-.1.2-.3.4-.5.5-.2.1-.4.2-.5.2h-.5c-.2 0-.5 0-.9-.1-.3-.1-.6-.1-.7-.2l-.6-.2c-.1 0-.2-.1-.4-.1h-.3c-.2 0-.3.1-.4.1s-.2.1-.3.3h-.7c.1-.4.3-.7.4-.9.2-.2.3-.4.6-.5.2-.1.9-.2 1.1-.2.2 0 .5 0 .9.1.3.1.3.1.5.2l.7.2c.2.1.4.1.5.1.3 0 .5-.2.8-.4m-.6 2.4l3.9 10.6h-3.5l-.6-2H202l-.6 2H198l4-10.6h3.4zm-2.9 6.5h2.1l-1-3.2-1.1 3.2zm-4.8-6.3l-.5 2.6c-.2-.1-.7-.2-1.3-.3-.6-.1-1.1-.2-1.5-.2-.5 0-.8.1-1 .3-.2.2-.2.4-.2.6.1.2.2.3.4.4.4.1.6.2.8.2l.7.2c.7.2 1.3.4 1.7.7.4.3.7.6.9 1.1.2.5.2.9.2 1.2 0 .4-.1.9-.2 1.3-.2.5-.4.9-.8 1.3s-.9.7-1.6.9c-.7.2-1.4.3-2.2.3-.4 0-.9 0-1.3-.1-.4 0-.8-.1-1.1-.2l-1-.2.5-2.8c.3.1.9.2 1.8.3.9.1 1.5.2 1.8.2.3 0 .5 0 .6-.1.1-.1.2-.2.2-.4 0-.1 0-.2-.1-.3 0-.1-.2-.2-.4-.3-.4-.1-.6-.2-.8-.2l-.5-.1c-1.1-.3-1.8-.6-2.1-.9-.3-.3-.5-.6-.6-1-.1-.4-.2-.8-.2-1.1 0-.5.1-.9.2-1.4.1-.4.4-.9.8-1.3s.9-.7 1.5-.8c.6-.2 1.3-.3 2.1-.3.5 0 .9 0 1.3.1s.8.1 1.1.2l.8.1z"/><path class="st8" d="M181 54.4c.4-.1 1-.1 1.5-.1.9 0 1.6.2 2 .5.5.4.8 1 .8 1.9 0 1-.3 1.6-.8 2-.5.4-1.3.6-2.3.6-.6 0-1 0-1.3-.1v-4.8zm1.1 4.1h.4c1 0 1.7-.6 1.7-1.7 0-1-.6-1.6-1.6-1.6h-.5v3.3zM189.5 57.2h-1.8v1.2h2v.9h-3.2v-4.9h3.1v.9h-1.9v1h1.8zM190.9 58.2c.3.2.8.3 1.2.3.5 0 .8-.2.8-.5s-.2-.5-.8-.7c-.8-.3-1.4-.7-1.4-1.5s.7-1.5 1.9-1.5c.6 0 1 .1 1.3.3l-.3.9c-.2-.1-.6-.2-1-.2-.5 0-.7.2-.7.5s.3.5.9.7c.9.3 1.3.8 1.3 1.5 0 .8-.6 1.5-2 1.5-.6 0-1.1-.1-1.4-.3l.2-1zM198.2 57.2h-1.8v1.2h2.1v.9h-3.2v-4.9h3.1v.9h-2v1h1.8zM199.6 59.3v-5h1.3l1 1.8c.3.5.6 1.1.8 1.7-.1-.7-.1-1.3-.1-2.1v-1.5h1v5h-1.2l-1.1-1.9c-.3-.5-.6-1.2-.9-1.8v3.7h-.8zM206.3 59.3l-1.6-5h1.2l.6 2.1c.2.6.3 1.2.4 1.8.1-.6.3-1.2.5-1.8l.6-2.1h1.2l-1.7 5h-1.2zM214.7 56.8c0 1.6-1 2.6-2.4 2.6-1.5 0-2.3-1.1-2.3-2.5 0-1.5 1-2.6 2.4-2.6 1.5 0 2.3 1.1 2.3 2.5m-3.6.1c0 1 .5 1.7 1.2 1.7.8 0 1.2-.7 1.2-1.7 0-.9-.4-1.7-1.2-1.7-.7 0-1.2.7-1.2 1.7M215.9 54.4h1.1v4h2v.9h-3.1zM220.7 59.3l-1.6-5h1.2l.6 2.1c.2.6.3 1.2.4 1.8.1-.6.3-1.2.4-1.8l.6-2.1h1.2l-1.7 5h-1.1zM224.6 54.4h1.1v5h-1.1zM231.4 57.4v-2c-.2.6-.4 1.3-.6 1.9l-.6 1.9h-.9l-.5-1.9c-.2-.6-.3-1.3-.5-1.9 0 .7-.1 1.4-.1 2.1l-.1 1.9h-1l.3-5h1.5l.5 1.7c.2.6.3 1.2.4 1.8.1-.6.3-1.2.5-1.8l.5-1.7h1.5l.3 5h-1.1l-.1-2zM236.8 57.2h-1.9v1.2h2.1v.9h-3.2v-4.9h3.1v.9h-2v1h1.9zM238.1 59.3v-5h1.3l1 1.8c.3.5.6 1.1.8 1.7-.1-.7-.1-1.3-.1-2.1v-1.5h1v5h-1.2l-1.1-1.9c-.3-.5-.6-1.2-.9-1.8v3.7h-.8zM244.6 55.3h-1.3v-.9h3.8v.9h-1.4v4h-1.1zM252.4 56.8c0 1.6-1 2.6-2.4 2.6-1.5 0-2.3-1.1-2.3-2.5 0-1.5 1-2.6 2.4-2.6 1.5 0 2.3 1.1 2.3 2.5m-3.6.1c0 1 .5 1.7 1.2 1.7.8 0 1.2-.7 1.2-1.7 0-.9-.4-1.7-1.2-1.7-.7 0-1.2.7-1.2 1.7M252.8 60.2c.2-.7.4-1.4.5-2.1l1.1-.1c-.2.8-.6 1.5-.9 2.1l-.7.1zM155.3 64.2H154v-1h3.8v1h-1.4v4h-1.1zM158.8 63.3c.4-.1.9-.1 1.5-.1.7 0 1.3.1 1.6.4.3.2.5.6.5 1 0 .6-.4 1.1-.9 1.2.3.1.5.5.7.9.2.6.3 1.2.4 1.4h-1.2c-.1-.1-.2-.5-.3-1.2-.1-.6-.3-.8-.8-.8h-.3v2h-1.1v-4.8zm1.1 2.1h.4c.6 0 .9-.3.9-.7 0-.5-.3-.7-.8-.7h-.5v1.4zM164.8 66.9l-.4 1.3h-1.2l1.5-5h1.5l1.5 5h-1.2l-.4-1.3h-1.3zm1.3-.8l-.3-1.1c-.1-.3-.2-.7-.3-1-.1.3-.1.7-.2 1l-.3 1.1h1.1zM168.9 63.3c.3-.1.9-.1 1.5-.1.7 0 1.1.1 1.5.3.3.2.6.5.6 1 0 .4-.3.9-.8 1.1.6.2 1 .6 1 1.2 0 .5-.2.8-.5 1.1-.4.3-1 .5-2 .5-.6 0-1 0-1.2-.1v-5zm1.1 1.9h.4c.6 0 .9-.2.9-.6 0-.4-.3-.6-.8-.6h-.5v1.2zm0 2.2h.4c.5 0 1-.2 1-.7 0-.5-.5-.7-1-.7h-.4v1.4zM174.9 66.9l-.4 1.3h-1.2l1.5-5h1.5l1.5 5h-1.2l-.4-1.3h-1.3zm1.3-.8l-.3-1.1c-.1-.3-.2-.7-.3-1-.1.3-.1.7-.2 1l-.3 1.1h1.1zM179 63.2h1.1v4h2v1H179zM184.3 63.2v1.9h1.8v-1.9h1.2v5h-1.2v-2.1h-1.8v2.1h-1.2v-5zM193.2 65.7c0 1.6-1 2.6-2.4 2.6-1.5 0-2.3-1.1-2.3-2.5 0-1.5 1-2.6 2.4-2.6 1.5-.1 2.3 1.1 2.3 2.5m-3.6 0c0 1 .5 1.7 1.2 1.7.8 0 1.2-.7 1.2-1.7 0-.9-.4-1.7-1.2-1.7-.8 0-1.2.8-1.2 1.7M199.2 66.1h-1.8v1.2h2v.9h-3.2v-5h3.1v.9h-1.9v1.1h1.8zM205.4 66.1h-1.8v1.2h2v.9h-3.1v-5h3v.9h-1.9v1.1h1.8zM211 66.3v-2c-.2.6-.4 1.3-.6 1.9l-.6 1.9h-.9l-.5-1.9c-.2-.6-.3-1.3-.5-1.9 0 .7-.1 1.4-.1 2.1l-.1 1.9h-1l.3-5h1.5l.5 1.7c.2.6.3 1.2.4 1.8.1-.6.3-1.2.5-1.8l.5-1.7h1.5l.3 5h-1.1l-.1-2zM213.5 63.3c.3-.1.8-.1 1.5-.1s1.2.1 1.5.4c.3.2.5.7.5 1.2s-.2.9-.5 1.2c-.4.4-1 .5-1.6.5h-.4v1.8h-1.1v-5zm1.1 2.2h.4c.6 0 1-.3 1-.8s-.3-.7-.9-.7h-.5v1.5zM218.2 63.3c.4-.1.9-.1 1.5-.1.7 0 1.3.1 1.6.4.3.2.5.6.5 1 0 .6-.4 1.1-.9 1.2.3.1.5.5.7.9.2.6.3 1.2.4 1.4h-1.2c-.1-.1-.2-.5-.3-1.2-.1-.6-.3-.8-.8-.8h-.3v2h-1.1v-4.8zm1.1 2.1h.4c.6 0 .9-.3.9-.7 0-.5-.3-.7-.8-.7h-.5v1.4zM225.9 66.1h-1.8v1.2h2v.9h-3.2v-5h3.1v.9h-1.9v1.1h1.8zM230.2 66.1h-1.8v1.2h2v.9h-3.1v-5h3v.9h-1.9v1.1h1.8zM231.6 68.2v-5h1.3l1 1.8c.3.5.6 1.1.8 1.7-.1-.7-.1-1.3-.1-2.1v-1.5h1v5h-1.2l-1.1-1.9c-.3-.5-.6-1.2-.9-1.8v3.7h-.8z"/><g><path class="st8" d="M237.1 63.3c.4-.1 1-.1 1.5-.1.9 0 1.6.2 2 .5.5.4.8 1 .8 1.9 0 1-.3 1.6-.8 2-.5.4-1.3.6-2.3.6-.6 0-1 0-1.3-.1v-4.8zm1.1 4h.4c1 0 1.7-.6 1.7-1.7 0-1-.6-1.6-1.6-1.6h-.5v3.3z"/></g><g><path class="st8" d="M245.6 66.1h-1.8v1.2h2v.9h-3.1v-5h3v.9h-1.9v1.1h1.8z"/></g><g><path class="st8" d="M247 63.3c.4-.1 1-.1 1.5-.1.9 0 1.6.2 2 .5.5.4.8 1 .8 1.9 0 1-.3 1.6-.8 2-.5.4-1.3.6-2.3.6-.6 0-1 0-1.3-.1v-4.8zm1.1 4h.4c1 0 1.7-.6 1.7-1.7 0-1-.6-1.6-1.6-1.6h-.5v3.3z"/></g><g><path class="st8" d="M257.1 65.7c0 1.6-1 2.6-2.4 2.6-1.5 0-2.3-1.1-2.3-2.5 0-1.5 1-2.6 2.4-2.6 1.5-.1 2.3 1.1 2.3 2.5m-3.6 0c0 1 .5 1.7 1.2 1.7.8 0 1.2-.7 1.2-1.7 0-.9-.4-1.7-1.2-1.7-.8 0-1.2.8-1.2 1.7"/></g><g><path class="st8" d="M258.2 63.3c.4-.1.9-.1 1.5-.1.7 0 1.3.1 1.6.4.3.2.5.6.5 1 0 .6-.4 1.1-.9 1.2.3.1.5.5.7.9.2.6.3 1.2.4 1.4h-1.2c-.1-.1-.2-.5-.3-1.2-.1-.6-.3-.8-.8-.8h-.3v2h-1.1v-4.8zm1.1 2.1h.4c.6 0 .9-.3.9-.7 0-.5-.3-.7-.8-.7h-.5v1.4z"/></g><g><path class="st8" d="M263 63.2h1.1v5H263z"/></g><g><path class="st8" d="M265.6 67c.3.2.8.3 1.2.3.5 0 .8-.2.8-.5s-.2-.5-.8-.7c-.8-.3-1.4-.7-1.4-1.5s.7-1.5 1.9-1.5c.6 0 1 .1 1.3.3l-.3.9c-.2-.1-.6-.2-1-.2-.5 0-.7.2-.7.5s.3.5.9.7c.9.3 1.3.8 1.3 1.5 0 .8-.6 1.5-2 1.5-.6 0-1.1-.1-1.4-.3l.2-1z"/></g><g><path class="st8" d="M274.1 66.3v-2c-.2.6-.4 1.3-.6 1.9l-.6 1.9h-.9l-.5-1.9c-.2-.6-.3-1.3-.5-1.9 0 .7-.1 1.4-.1 2.1l-.1 1.9h-1l.3-5h1.5l.5 1.7c.2.6.3 1.2.4 1.8.1-.6.3-1.2.5-1.8l.5-1.7h1.5l.3 5h-1.1l-.1-2z"/></g><g><path class="st8" d="M281.1 65.7c0 1.6-1 2.6-2.4 2.6-1.5 0-2.3-1.1-2.3-2.5 0-1.5 1-2.6 2.4-2.6 1.5-.1 2.3 1.1 2.3 2.5m-3.6 0c0 1 .5 1.7 1.2 1.7.8 0 1.2-.7 1.2-1.7 0-.9-.4-1.7-1.2-1.7-.7 0-1.2.8-1.2 1.7"/></g><g><path class="st0" d="M8.7 54.1l-.8 2.3h-1L9.4 49h1.1l2.5 7.4h-1l-.8-2.3H8.7zm2.4-.7l-.7-2.1c-.2-.5-.3-.9-.4-1.3-.1.4-.2.9-.4 1.3l-.7 2.1h2.2zM18.4 51.1v4.6c0 1.2-.2 2-.8 2.4-.5.5-1.3.6-1.9.6-.6 0-1.3-.2-1.8-.4l.2-.7c.3.2.9.4 1.6.4 1 0 1.7-.5 1.7-1.8v-.6c-.3.5-.9.9-1.7.9-1.3 0-2.3-1.1-2.3-2.6 0-1.8 1.2-2.8 2.4-2.8.9 0 1.4.5 1.6.9v-.8h1zm-1 2.1c0-.2 0-.3-.1-.4-.2-.6-.6-1-1.3-1-.9 0-1.6.8-1.6 2 0 1 .5 1.9 1.6 1.9.6 0 1.1-.4 1.3-1 .1-.2.1-.3.1-.5v-1zM20.5 53.9c0 1.3.9 1.8 1.8 1.8.7 0 1.1-.1 1.5-.3l.2.7c-.3.2-.9.3-1.8.3-1.6 0-2.6-1.1-2.6-2.7s.9-2.9 2.5-2.9c1.7 0 2.2 1.5 2.2 2.5v.4h-3.8zm2.8-.6c0-.6-.3-1.6-1.3-1.6s-1.4.9-1.5 1.6h2.8zm-.9-4.5l1 1.6h-.7l-.6-1-.6 1h-.7l1-1.6h.6zM25.4 52.6v-1.4h.9l.1.9c.3-.5.9-1 1.7-1 .7 0 1.9.4 1.9 2.3v3.2h-1v-3c0-.9-.3-1.6-1.2-1.6-.6 0-1.1.4-1.3 1 0 .1-.1.3-.1.4v3.2h-1v-4zM35.3 56.2c-.3.1-.8.3-1.5.3-1.6 0-2.6-1.1-2.6-2.7S32.3 51 34 51c.6 0 1.1.1 1.3.3l-.2.7c-.2-.1-.6-.3-1.1-.3-1.2 0-1.9.9-1.9 2 0 1.2.8 2 1.8 2 .5 0 .9-.1 1.2-.3l.2.8zM37.5 49.6c0 .3-.2.6-.6.6-.3 0-.6-.3-.6-.6s.3-.6.6-.6.6.3.6.6zm-1.1 6.8v-5.3h1v5.3h-1zM41.9 56.4l-.1-.7c-.3.4-.9.8-1.6.8-1.1 0-1.6-.8-1.6-1.5 0-1.3 1.1-2 3.2-2v-.1c0-.4-.1-1.2-1.2-1.2-.5 0-1 .2-1.4.4l-.2-.6c.4-.3 1.1-.5 1.7-.5 1.6 0 2 1.1 2 2.2v2c0 .5 0 .9.1 1.3h-.9zm-.2-2.7c-1 0-2.2.2-2.2 1.2 0 .6.4.9.9.9.7 0 1.1-.4 1.3-.9 0-.1.1-.2.1-.3v-.9zM46.4 55.3c.4.3 1 .5 1.7.5 1 0 1.5-.5 1.5-1.3 0-.7-.4-1.1-1.4-1.5-1.2-.4-1.9-1-1.9-2.1s1-2 2.4-2c.8 0 1.3.2 1.6.4l-.3.8c-.2-.1-.7-.3-1.4-.3-1 0-1.4.6-1.4 1.1 0 .7.4 1 1.5 1.4 1.2.5 1.9 1.1 1.9 2.2s-.8 2.1-2.6 2.1c-.7 0-1.5-.2-1.9-.5l.3-.8zM54.8 56.4l-.1-.7c-.3.4-.9.8-1.6.8-1.1 0-1.6-.8-1.6-1.5 0-1.3 1.1-2 3.2-2v-.1c0-.4-.1-1.2-1.2-1.2-.5 0-1 .2-1.4.4l-.2-.6c.4-.3 1.1-.5 1.7-.5 1.6 0 2 1.1 2 2.2v2c0 .5 0 .9.1 1.3h-.9zm-2.4-6.2c0-.7.3-1.1.7-1.1.2 0 .4.1.7.2.2.1.3.2.5.2s.3-.1.3-.5h.5c0 .7-.2 1.1-.7 1.1-.2 0-.4-.1-.7-.2-.2-.1-.3-.2-.5-.2s-.3.2-.3.5h-.5zm2.3 3.5c-1 0-2.2.2-2.2 1.2 0 .6.4.9.9.9.7 0 1.1-.4 1.3-.9 0-.1.1-.2.1-.3v-.9zM62 53.7c0 2-1.4 2.8-2.6 2.8-1.4 0-2.5-1-2.5-2.7 0-1.8 1.2-2.8 2.6-2.8 1.4 0 2.5 1.1 2.5 2.7zm-4.2.1c0 1.2.7 2 1.6 2 .9 0 1.6-.9 1.6-2.1 0-.9-.4-2-1.6-2-1.1 0-1.6 1.1-1.6 2.1zM65.5 49.1c.5-.1 1.1-.1 1.8-.1.9 0 1.6.2 2.1.6.4.3.6.9.6 1.5 0 .7-.2 1.2-.6 1.6-.5.5-1.3.8-2.3.8-.3 0-.5 0-.8-.1v3h-1v-7.3zm1 3.6c.2.1.5.1.8.1 1.1 0 1.8-.6 1.8-1.6s-.7-1.4-1.7-1.4c-.4 0-.7 0-.9.1v2.8zM74.1 56.4l-.1-.7c-.3.4-.9.8-1.6.8-1.1 0-1.6-.8-1.6-1.5 0-1.3 1.1-2 3.2-2v-.1c0-.4-.1-1.2-1.2-1.2-.5 0-1 .2-1.4.4l-.2-.6c.4-.3 1.1-.5 1.7-.5 1.6 0 2 1.1 2 2.2v2c0 .5 0 .9.1 1.3h-.9zm-.1-2.7c-1 0-2.2.2-2.2 1.2 0 .6.4.9.9.9.7 0 1.1-.4 1.3-.9 0-.1.1-.2.1-.3v-.9zM80.9 55v1.4H80v-.9c-.3.4-.8 1-1.7 1-.8 0-1.8-.5-1.8-2.3v-3.1h1V54c0 1 .3 1.7 1.2 1.7.6 0 1.1-.4 1.3-.9.1-.1.1-.3.1-.5v-3.2h1V55zM82.5 48.7h1v7.8h-1v-7.8zM89.8 53.7c0 2-1.4 2.8-2.6 2.8-1.4 0-2.5-1-2.5-2.7 0-1.8 1.2-2.8 2.6-2.8 1.5 0 2.5 1.1 2.5 2.7zm-4.2.1c0 1.2.7 2 1.6 2 .9 0 1.6-.9 1.6-2.1 0-.9-.4-2-1.6-2-1.1 0-1.6 1.1-1.6 2.1zM97.9 48.7V56.4H97v-.9c-.3.6-.9 1-1.8 1-1.3 0-2.3-1.1-2.3-2.7 0-1.8 1.1-2.8 2.4-2.8.8 0 1.4.4 1.6.8v-3.2h1zm-.9 4.6v-.4c-.1-.6-.7-1.1-1.4-1.1-1 0-1.6.9-1.6 2s.5 2 1.6 2c.6 0 1.2-.4 1.4-1.1v-1.4zM100 53.9c0 1.3.9 1.8 1.8 1.8.7 0 1.1-.1 1.5-.3l.2.7c-.3.2-.9.3-1.8.3-1.6 0-2.6-1.1-2.6-2.7s.9-2.9 2.5-2.9c1.7 0 2.2 1.5 2.2 2.5v.4H100zm2.9-.6c0-.6-.3-1.6-1.3-1.6s-1.4.9-1.5 1.6h2.8z"/></g><g><path class="st0" d="M19.8 62.2c.6-.1 1.3-.2 2-.2 1.4 0 2.3.3 3 .9.7.6 1 1.5 1 2.6 0 1.2-.4 2.2-1.1 2.9-.7.7-1.8 1.1-3.3 1.1-.7 0-1.2 0-1.7-.1v-7.2zm1 6.6c.2 0 .6.1 1 .1 2 0 3.1-1.1 3.1-3.1 0-1.7-1-2.8-3-2.8-.5 0-.9 0-1.1.1v5.7zM27.6 67c0 1.3.9 1.8 1.8 1.8.7 0 1.1-.1 1.5-.3l.2.7c-.3.2-.9.3-1.8.3-1.6 0-2.6-1.1-2.6-2.7s.9-2.9 2.5-2.9c1.7 0 2.2 1.5 2.2 2.5v.4h-3.8zm2.8-.6c0-.6-.3-1.6-1.3-1.6s-1.4.9-1.5 1.6h2.8zM32.4 68.5c.3.2.8.4 1.3.4.7 0 1-.3 1-.8s-.3-.7-1-1c-1-.3-1.4-.9-1.4-1.5 0-.9.7-1.6 1.8-1.6.5 0 1 .2 1.3.3l-.2.7c-.2-.1-.6-.3-1.1-.3-.6 0-.9.3-.9.7 0 .4.3.6 1 .9.9.3 1.4.8 1.4 1.6 0 .9-.7 1.6-2 1.6-.6 0-1.1-.1-1.5-.4l.3-.6zM37.4 67c0 1.3.9 1.8 1.8 1.8.7 0 1.1-.1 1.5-.3l.2.7c-.3.2-.9.3-1.8.3-1.6 0-2.6-1.1-2.6-2.7s.9-2.9 2.5-2.9c1.7 0 2.2 1.5 2.2 2.5v.4h-3.8zm2.8-.6c0-.6-.3-1.6-1.3-1.6s-1.4.9-1.5 1.6h2.8zM42.3 65.7v-1.4h.9l.1.9c.3-.5.9-1 1.7-1 .7 0 1.9.4 1.9 2.3v3.2h-1v-3c0-.9-.3-1.6-1.2-1.6-.6 0-1.1.4-1.3 1 0 .1-.1.3-.1.4v3.2h-1v-4zM48.6 64.2l1 3c.2.5.3.9.4 1.4.1-.4.3-.9.4-1.4l1-3h1l-2.1 5.3h-.9l-2-5.3h1.2zM57.9 66.8c0 2-1.4 2.8-2.6 2.8-1.4 0-2.5-1-2.5-2.7 0-1.8 1.2-2.8 2.6-2.8 1.5 0 2.5 1.1 2.5 2.7zm-4.2.1c0 1.2.7 2 1.6 2 .9 0 1.6-.9 1.6-2.1 0-.9-.4-2-1.6-2-1.1 0-1.6 1.1-1.6 2.1zM59.1 61.8h1v7.8h-1v-7.8zM62.1 64.2l1 3c.2.5.3.9.4 1.4.1-.4.3-.9.4-1.4l1-3h1L64 69.5h-1l-2-5.3h1.1zM68 62.7c0 .3-.2.6-.6.6-.3 0-.6-.3-.6-.6s.3-.6.6-.6c.4 0 .6.3.6.6zm-1.1 6.8v-5.3h1v5.3h-1zM69.5 65.7v-1.4h.8v.9c.3-.5.8-1 1.7-1 .7 0 1.3.4 1.5 1.1.2-.3.4-.5.6-.7.3-.2.7-.4 1.2-.4.7 0 1.7.5 1.7 2.3v3.1h-.9v-3c0-1-.4-1.6-1.1-1.6-.5 0-1 .4-1.1.9 0 .1-.1.3-.1.5v3.3h-.9v-3.2c0-.8-.4-1.5-1.1-1.5-.6 0-1 .5-1.2 1-.1.1-.1.3-.1.5v3.2h-.9v-4zM79.1 67c0 1.3.9 1.8 1.8 1.8.7 0 1.1-.1 1.5-.3l.2.7c-.3.2-.9.3-1.8.3-1.6 0-2.6-1.1-2.6-2.7s.9-2.9 2.5-2.9c1.7 0 2.2 1.5 2.2 2.5v.4h-3.8zm2.9-.6c0-.6-.3-1.6-1.3-1.6s-1.4.9-1.5 1.6H82zM84.1 65.7v-1.4h.9l.1.9c.3-.5.9-1 1.7-1 .7 0 1.9.4 1.9 2.3v3.2h-1v-3c0-.9-.3-1.6-1.2-1.6-.6 0-1.1.4-1.3 1 0 .1-.1.3-.1.4v3.2h-1v-4zM91.3 62.7v1.5h1.4v.8h-1.4v2.9c0 .7.2 1 .7 1 .3 0 .4 0 .6-.1v.7c-.2.1-.5.1-.9.1s-.8-.1-1-.4c-.3-.3-.4-.8-.4-1.4V65h-.8v-.7h.8V63l1-.3zM98.4 66.8c0 2-1.4 2.8-2.6 2.8-1.4 0-2.5-1-2.5-2.7 0-1.8 1.2-2.8 2.6-2.8 1.5 0 2.5 1.1 2.5 2.7zm-4.2.1c0 1.2.7 2 1.6 2 .9 0 1.6-.9 1.6-2.1 0-.9-.4-2-1.6-2-1.1 0-1.6 1.1-1.6 2.1z"/></g></svg>